<svg width="41" height="18" viewBox="0 0 41 18" fill="none" xmlns="http://www.w3.org/2000/svg">
    <g clip-path="url(#clip0_1189_12021)">
        <path d="M40.4964 9.94028C40.4964 11.1098 40.4964 12.2793 40.4964 13.4488C40.4964 13.9856 40.3443 14.1686 39.7778 14.2622C38.5648 14.4741 37.3512 14.6797 36.1368 14.8792C36.0169 14.8879 35.903 14.9307 35.8105 15.0018C35.718 15.0729 35.6516 15.1687 35.6203 15.2761C35.1415 16.4844 34.1763 17.1949 32.8034 17.3132C31.4072 17.4325 30.322 16.8813 29.6056 15.7594C29.4756 15.5538 29.3524 15.4777 29.0947 15.4777C22.6961 15.4845 16.2963 15.4845 9.89551 15.4777C9.79585 15.4671 9.69511 15.4859 9.60773 15.5316C9.52034 15.5772 9.45078 15.6472 9.40901 15.7317C8.08945 17.8716 4.91495 17.8633 3.58761 15.7183C3.54938 15.6388 3.48492 15.5726 3.4035 15.5292C3.32207 15.4858 3.22787 15.4674 3.13443 15.4766C2.52353 15.49 1.91262 15.4849 1.30171 15.4766C0.754117 15.4766 0.507528 15.2514 0.506418 14.7507C0.506418 13.2339 0.491978 11.7172 0.506418 10.2004C0.517898 9.30046 0.832814 8.42628 1.40715 7.70008C1.98148 6.97387 2.78653 6.43192 3.7098 6.14997C3.77348 6.12518 3.83922 6.10524 3.90639 6.09034C5.1171 5.91553 6.0679 5.31088 6.98093 4.59313C8.2394 3.6039 9.55674 2.67844 10.8396 1.71389C11.7587 1.01434 12.9167 0.640682 14.1063 0.659885C21.9215 0.668111 29.737 0.668111 37.553 0.659885C38.2039 0.659885 38.3305 0.740089 38.5593 1.31285C39.1569 2.79052 39.76 4.26716 40.3442 5.74996C40.4371 5.9896 40.4859 6.24194 40.4887 6.49651C40.5042 7.65232 40.4964 8.79887 40.4964 9.94028ZM17.8051 14.2324V1.93704H16.5044C16.5044 2.90569 16.5044 3.84351 16.5044 4.78131C16.5044 6.09137 15.6969 6.83791 14.2829 6.83791C12.007 6.83791 9.7289 6.8739 7.45522 6.82351C6.34652 6.79431 5.24187 6.95969 4.19963 7.31093C3.73645 7.46723 3.31104 7.72224 2.86674 7.9351L2.9245 8.07289C3.3899 8.07289 3.85641 8.07289 4.32181 8.07289C5.07045 8.07289 5.34147 8.48421 5.00714 9.11764C4.62283 9.83745 4.21741 10.5573 3.84198 11.2894C3.66537 11.6339 3.40878 11.7974 2.99337 11.7789C2.61238 11.7614 2.23029 11.7789 1.85486 11.7789V14.2262H3.14332C3.38101 12.4041 4.62061 11.2257 6.34337 11.166C7.15629 11.1271 7.95575 11.3698 8.58595 11.8468C9.40012 12.4545 9.78333 13.2679 9.84665 14.2314L17.8051 14.2324ZM19.1835 14.2489C20.8252 14.2489 22.4202 14.2489 24.0164 14.2417C24.1628 14.2296 24.3 14.1702 24.404 14.074C25.9324 12.6708 27.4548 11.2623 28.9714 9.84876C29.0653 9.77689 29.13 9.6775 29.1546 9.56701C29.1691 8.67136 29.1635 7.77468 29.1635 6.86669H19.1835V14.2489ZM30.4998 1.90927V2.35967C30.4998 4.80188 30.4998 7.24408 30.5064 9.68526C30.5134 9.84447 30.483 10.0032 30.4174 10.1505C30.3519 10.2978 30.2526 10.4303 30.1265 10.5388C28.9047 11.6565 27.6829 12.7866 26.47 13.9126C26.3722 14.0041 26.2801 14.1008 26.1545 14.2211H29.138C29.4068 12.5408 30.3831 11.4807 31.8682 11.239C32.5843 11.1107 33.3261 11.2047 33.9786 11.5064C34.9583 11.9578 35.5259 12.7146 35.7958 13.6833C36.8588 13.5044 37.8817 13.3357 38.9058 13.1537C39.0036 13.1362 39.158 13.0396 39.1602 12.9758C39.1791 12.3773 39.1713 11.7789 39.1713 11.1568C38.4971 11.1568 37.874 11.164 37.2508 11.1568C36.6955 11.1475 36.4211 10.8143 36.5533 10.3094C36.7521 9.5485 36.9598 8.78962 37.1698 8.03176C37.2908 7.59782 37.483 7.46208 37.9662 7.45694C38.3638 7.45694 38.7603 7.45694 39.1547 7.45694V6.83996H38.6892C37.0931 6.83996 35.497 6.83996 33.9008 6.83996C32.709 6.83379 31.8537 6.042 31.8437 4.94275C31.836 4.05636 31.8437 3.16996 31.8437 2.28254V1.90927H30.4998ZM29.148 1.9288H19.2024V5.58441H29.148V1.9288ZM38.8714 5.60189C38.3749 4.37822 37.9051 3.21623 37.4274 2.05837C37.4037 2.018 37.37 1.98338 37.3291 1.9573C37.2882 1.93121 37.2412 1.91441 37.192 1.90824C35.8591 1.89899 34.5384 1.90208 33.1755 1.90208C33.1755 2.97356 33.16 4.01008 33.1833 5.04558C33.1911 5.37978 33.451 5.59366 33.8153 5.59675C35.4714 5.61114 37.1342 5.61115 38.8692 5.61115L38.8714 5.60189ZM7.74734 5.60189C10.0877 5.60189 12.3136 5.60806 14.5384 5.59572C14.9338 5.59572 15.1615 5.32117 15.1671 4.91704C15.176 4.33914 15.1671 3.76227 15.1671 3.18436V1.90927C14.855 1.90927 14.5928 1.92264 14.3329 1.90927C13.2533 1.84552 12.3336 2.16428 11.5094 2.81622C10.6675 3.48256 9.78111 4.10161 8.91473 4.74224C8.55263 5.00343 8.19164 5.27283 7.74512 5.60497L7.74734 5.60189ZM6.50775 16.0998C6.90242 16.0986 7.28787 15.9892 7.61554 15.7856C7.94321 15.5819 8.19843 15.293 8.34906 14.9553C8.49968 14.6175 8.53898 14.2461 8.46198 13.8877C8.38498 13.5294 8.19514 13.2001 7.91637 12.9415C7.6376 12.6829 7.28237 12.5064 6.89546 12.4343C6.50854 12.3622 6.10724 12.3978 5.74211 12.5365C5.37698 12.6752 5.06436 12.9108 4.84364 13.2137C4.62291 13.5166 4.50394 13.8732 4.50175 14.2386C4.50175 14.7315 4.71295 15.2043 5.08902 15.5532C5.46509 15.9021 5.97532 16.0987 6.50775 16.0998ZM34.4984 14.2396C34.4966 13.8726 34.377 13.5144 34.1548 13.2105C33.9326 12.9066 33.6178 12.6707 33.2504 12.5328C32.8831 12.3949 32.4797 12.3612 32.0916 12.436C31.7035 12.5108 31.3482 12.6907 31.0708 12.9528C30.7934 13.215 30.6065 13.5476 30.5337 13.9084C30.461 14.2691 30.5057 14.6418 30.6622 14.9789C30.8188 15.3161 31.08 15.6026 31.4128 15.802C31.7456 16.0014 32.1349 16.1047 32.5313 16.0988C33.057 16.0896 33.5578 15.8896 33.9258 15.5418C34.2937 15.1941 34.4994 14.7264 34.4984 14.2396ZM1.85263 10.547C2.02318 10.5559 2.19414 10.5559 2.36468 10.547C2.51797 10.5295 2.74345 10.5244 2.80232 10.4359C3.02447 10.0935 3.19886 9.71612 3.41323 9.31714H3.02447C1.8282 9.30583 1.79043 9.34284 1.85263 10.547ZM38.0261 9.91047H39.1369V8.70941H38.3471L38.0261 9.91047Z" fill="#66C61C"/>
        <path d="M14.5383 7.46245C14.7604 7.46245 14.9826 7.44806 15.2047 7.46245C15.3735 7.46985 15.5327 7.5371 15.6493 7.65025C15.766 7.7634 15.8311 7.91377 15.8312 8.07018C15.8354 8.22682 15.7729 8.3787 15.6571 8.493C15.5413 8.6073 15.3816 8.67482 15.2125 8.68098C14.7415 8.70258 14.2684 8.70258 13.7974 8.68098C13.629 8.67616 13.4692 8.61053 13.3524 8.49812C13.2355 8.38571 13.1708 8.23544 13.1721 8.07943C13.1681 7.92242 13.2303 7.77016 13.3456 7.65496C13.4609 7.53976 13.6202 7.4707 13.7896 7.46245C14.0373 7.44909 14.2884 7.46245 14.5383 7.46245Z" fill="#66C61C"/>
        <path d="M21.1601 8.68977C20.9246 8.68977 20.6869 8.7052 20.4525 8.68977C20.2835 8.68076 20.1249 8.61145 20.0099 8.49639C19.8949 8.38133 19.8326 8.22949 19.8361 8.07279C19.8334 7.91593 19.8977 7.76443 20.015 7.65121C20.1323 7.53799 20.2931 7.47221 20.4625 7.46817C20.9335 7.44863 21.4067 7.4476 21.8776 7.46817C22.0477 7.47459 22.2082 7.54309 22.3239 7.6587C22.4396 7.77431 22.5012 7.92763 22.4952 8.08515C22.4935 8.24132 22.428 8.39108 22.3117 8.50425C22.1954 8.61741 22.0371 8.68556 21.8687 8.69492H21.7854H21.1601V8.68977Z" fill="#66C61C"/>
    </g>
    <defs>
        <clipPath id="clip0_1189_12021">
            <rect width="40" height="16.6667" fill="white" transform="translate(0.5 0.666992)"/>
        </clipPath>
    </defs>
</svg>
