<svg width="131" height="24" viewBox="0 0 131 24" fill="none" xmlns="http://www.w3.org/2000/svg">
    <path d="M13.25 0H23.75L32.75 8.70536V18.75H13.25V0Z" fill="#66C61C"/>
    <rect x="9.82812" width="6.21928" height="3.11538" fill="#66C61C"/>
    <rect x="6.71875" y="7.78809" width="10.8837" height="3.11538" fill="#66C61C"/>
    <rect x="3.60938" y="4.67285" width="7.77411" height="1.55769" fill="#66C61C"/>
    <rect x="0.5" y="12.4614" width="10.8837" height="1.55769" fill="#66C61C"/>
    <rect x="3.60938" y="15.5771" width="12.4386" height="3.11538" fill="#66C61C"/>
    <path d="M22.2659 21.0003C24.3988 21.0003 26.1255 19.2684 26.1255 17.1349C26.1255 15.0014 24.3988 13.2695 22.2659 13.2695C20.133 13.2695 18.4062 15.0014 18.4062 17.1349C18.4062 19.2684 20.133 21.0003 22.2659 21.0003Z" fill="#66C61C" stroke="white" stroke-width="1.5"/>
    <path d="M45.4515 18.5713C43.5023 18.5713 41.9239 18.0543 40.7165 17.0203C39.509 15.969 38.8621 14.5127 38.7759 12.6515L38.75 11.6175L38.7759 10.5576C38.8449 8.69631 39.4831 7.24004 40.6906 6.18878C41.9153 5.13751 43.5023 4.61188 45.4515 4.61188C46.9177 4.61188 48.151 4.879 49.1515 5.41325C50.1692 5.93027 50.9196 6.5593 51.4026 7.30036C51.9028 8.02419 52.1702 8.68769 52.2047 9.29088C52.2219 9.46322 52.1616 9.61832 52.0236 9.75619C51.9028 9.87683 51.7476 9.93715 51.5578 9.93715H48.2718C48.082 9.93715 47.9354 9.89406 47.8319 9.80789C47.7284 9.72172 47.6336 9.59247 47.5473 9.42013C47.3403 8.88588 47.0729 8.50673 46.7452 8.28269C46.4347 8.05865 46.0293 7.94663 45.5291 7.94663C44.1146 7.94663 43.3815 8.86003 43.3298 10.6868L43.3039 11.6692L43.3298 12.5222C43.3643 13.4529 43.5626 14.1422 43.9249 14.5903C44.3044 15.0211 44.8391 15.2366 45.5291 15.2366C46.0638 15.2366 46.4865 15.1245 46.7969 14.9005C47.1074 14.6765 47.3576 14.2973 47.5473 13.7631C47.6336 13.5907 47.7284 13.4615 47.8319 13.3753C47.9354 13.2891 48.082 13.2461 48.2718 13.2461H51.5578C51.7303 13.2461 51.877 13.3064 51.9977 13.427C52.1357 13.5304 52.2047 13.6683 52.2047 13.8406C52.2047 14.3921 51.9632 15.0384 51.4802 15.7794C51.0145 16.5205 50.2727 17.1754 49.255 17.7441C48.2373 18.2956 46.9694 18.5713 45.4515 18.5713Z" fill="#1A1F23"/>
    <path d="M58.5658 18.5713C57.6515 18.5713 56.8149 18.399 56.0559 18.0543C55.3142 17.6924 54.7277 17.2098 54.2965 16.6067C53.8825 15.9862 53.6755 15.3055 53.6755 14.5644C53.6755 13.3753 54.1585 12.4188 55.1245 11.695C56.1077 10.9712 57.4532 10.4714 59.1609 10.1957L62.3952 9.70449V9.34258C62.3952 8.68769 62.2572 8.20514 61.9812 7.89493C61.7052 7.58472 61.2395 7.42962 60.584 7.42962C60.1872 7.42962 59.8595 7.49855 59.6007 7.63642C59.342 7.77429 59.0746 7.96387 58.7986 8.20514C58.5571 8.41195 58.376 8.54982 58.2553 8.61875C58.2035 8.75663 58.1087 8.82556 57.9707 8.82556H55.1503C54.9778 8.82556 54.8312 8.77386 54.7105 8.67046C54.607 8.54982 54.5639 8.41195 54.5811 8.25684C54.5984 7.79153 54.8226 7.27451 55.2538 6.70579C55.7023 6.13707 56.3751 5.64591 57.272 5.2323C58.1863 4.81868 59.3075 4.61188 60.6357 4.61188C62.7574 4.61188 64.3271 5.08581 65.3449 6.03367C66.3626 6.9643 66.8715 8.22237 66.8715 9.80789V17.6665C66.8715 17.8389 66.8111 17.994 66.6903 18.1319C66.5696 18.2525 66.4143 18.3128 66.2246 18.3128H63.2232C63.0507 18.3128 62.8954 18.2525 62.7574 18.1319C62.6367 17.994 62.5763 17.8389 62.5763 17.6665V16.7618C62.1968 17.296 61.6621 17.7355 60.9721 18.0802C60.2994 18.4076 59.4972 18.5713 58.5658 18.5713ZM59.7819 15.6243C60.5753 15.6243 61.2136 15.3658 61.6966 14.8488C62.1968 14.3318 62.4469 13.5735 62.4469 12.5739V12.212L60.2476 12.5998C58.6951 12.8755 57.9189 13.4184 57.9189 14.2284C57.9189 14.6592 58.1 15.0039 58.4623 15.2624C58.8245 15.5037 59.2644 15.6243 59.7819 15.6243Z" fill="#1A1F23"/>
    <path d="M70.4381 18.3128C70.2483 18.3128 70.0931 18.2525 69.9723 18.1319C69.8516 18.0112 69.7912 17.8561 69.7912 17.6665V5.51665C69.7912 5.32708 69.8516 5.17198 69.9723 5.05134C70.0931 4.9307 70.2483 4.87038 70.4381 4.87038H73.4136C73.6034 4.87038 73.7586 4.93932 73.8794 5.07719C74.0174 5.19783 74.0864 5.34432 74.0864 5.51665V6.55069C75.0351 5.43049 76.3116 4.87038 77.9158 4.87038H79.0543C79.244 4.87038 79.3993 4.9307 79.52 5.05134C79.6408 5.17198 79.7011 5.32708 79.7011 5.51665V8.17929C79.7011 8.35163 79.6408 8.50673 79.52 8.64461C79.3993 8.76524 79.244 8.82556 79.0543 8.82556H76.5444C75.8372 8.82556 75.2852 9.02375 74.8885 9.42013C74.509 9.79927 74.3192 10.3421 74.3192 11.0487V17.6665C74.3192 17.8561 74.2502 18.0112 74.1123 18.1319C73.9915 18.2525 73.8363 18.3128 73.6465 18.3128H70.4381Z" fill="#1A1F23"/>
    <path d="M88.4234 18.3128C84.8528 18.3128 83.0674 16.6153 83.0674 13.2202V8.25684H81.0492C80.8595 8.25684 80.6956 8.19652 80.5576 8.07589C80.4369 7.95525 80.3765 7.80014 80.3765 7.61057V5.51665C80.3765 5.32708 80.4369 5.17198 80.5576 5.05134C80.6956 4.9307 80.8595 4.87038 81.0492 4.87038H83.0674V3.64627C83.0674 3.4567 83.1278 3.30159 83.2486 3.18096C83.3865 3.06032 83.5418 3 83.7143 3H86.7157C86.9055 3 87.0607 3.06032 87.1815 3.18096C87.3022 3.30159 87.3626 3.4567 87.3626 3.64627V4.87038H90.5969C90.7866 4.87038 90.9419 4.9307 91.0626 5.05134C91.2006 5.17198 91.2696 5.32708 91.2696 5.51665V7.61057C91.2696 7.80014 91.2006 7.95525 91.0626 8.07589C90.9419 8.19652 90.7866 8.25684 90.5969 8.25684H87.3626V12.8583C87.3626 14.1336 87.8542 14.7713 88.8374 14.7713H90.8298C91.0195 14.7713 91.1747 14.8316 91.2955 14.9522C91.4162 15.0728 91.4766 15.228 91.4766 15.4175V17.6665C91.4766 17.8389 91.4162 17.994 91.2955 18.1319C91.1747 18.2525 91.0195 18.3128 90.8298 18.3128H88.4234Z" fill="#1A1F23"/>
    <path d="M101.669 18.3128C101.48 18.3128 101.324 18.2525 101.204 18.1319C101.083 18.0112 101.022 17.8561 101.022 17.6665V5.51665C101.022 5.32708 101.083 5.17198 101.204 5.05134C101.324 4.9307 101.48 4.87038 101.669 4.87038H104.645C104.835 4.87038 104.99 4.9307 105.111 5.05134C105.249 5.17198 105.318 5.32708 105.318 5.51665V6.49899C105.783 5.93027 106.378 5.47357 107.103 5.12889C107.845 4.78421 108.681 4.61188 109.613 4.61188C111.131 4.61188 112.364 5.12889 113.313 6.16292C114.262 7.17972 114.736 8.61014 114.736 10.4542V17.6665C114.736 17.8389 114.676 17.994 114.555 18.1319C114.434 18.2525 114.279 18.3128 114.089 18.3128H110.829C110.656 18.3128 110.501 18.2525 110.363 18.1319C110.242 17.994 110.182 17.8389 110.182 17.6665V10.6093C110.182 9.79927 109.984 9.17886 109.587 8.74801C109.19 8.29993 108.621 8.07589 107.879 8.07589C107.155 8.07589 106.585 8.29993 106.171 8.74801C105.757 9.17886 105.55 9.79927 105.55 10.6093V17.6665C105.55 17.8389 105.49 17.994 105.369 18.1319C105.249 18.2525 105.093 18.3128 104.904 18.3128H101.669Z" fill="#1A1F23"/>
    <path d="M124.247 24C122.608 24 121.28 23.7329 120.262 23.1986C119.244 22.6644 118.511 22.0526 118.063 21.3632C117.632 20.6739 117.416 20.0965 117.416 19.6312C117.416 19.4761 117.485 19.3382 117.623 19.2176C117.761 19.097 117.916 19.0366 118.089 19.0366H121.375C121.547 19.0366 121.677 19.0711 121.763 19.14C121.866 19.2262 121.961 19.3641 122.047 19.5537C122.22 19.95 122.453 20.2602 122.746 20.4843C123.039 20.7256 123.496 20.8462 124.117 20.8462C124.911 20.8462 125.497 20.648 125.877 20.2516C126.256 19.8725 126.446 19.2262 126.446 18.3128V16.5808C125.566 17.5459 124.307 18.0285 122.668 18.0285C120.926 18.0285 119.589 17.5201 118.658 16.5033C117.744 15.4692 117.243 13.9785 117.157 12.0311L117.131 11.3331C117.131 9.24779 117.597 7.61057 118.529 6.42143C119.46 5.21506 120.84 4.61188 122.668 4.61188C123.548 4.61188 124.324 4.78421 124.997 5.12889C125.67 5.45634 126.239 5.90442 126.705 6.47313V5.51665C126.705 5.32708 126.765 5.17198 126.886 5.05134C127.024 4.9307 127.179 4.87038 127.352 4.87038H130.327C130.517 4.87038 130.672 4.93932 130.793 5.07719C130.931 5.19783 131 5.34432 131 5.51665V17.9509C131 19.9156 130.414 21.4149 129.241 22.4489C128.068 23.483 126.403 24 124.247 24ZM124.066 14.6679C124.842 14.6679 125.42 14.4352 125.799 13.9699C126.179 13.4873 126.394 12.8841 126.446 12.1603C126.463 12.0397 126.472 11.7726 126.472 11.3589C126.472 10.9626 126.463 10.7041 126.446 10.5834C126.412 9.85959 126.196 9.26503 125.799 8.79971C125.42 8.31716 124.842 8.07589 124.066 8.07589C123.255 8.07589 122.668 8.31716 122.306 8.79971C121.944 9.28226 121.746 9.94576 121.711 10.7902L121.685 11.3589C121.685 12.3757 121.858 13.1857 122.203 13.7889C122.548 14.3749 123.169 14.6679 124.066 14.6679Z" fill="#1A1F23"/>
    <path d="M94.8936 18.3225C94.7047 18.3225 94.5502 18.2622 94.43 18.1418C94.3098 18.0214 94.2497 17.8665 94.2497 17.6773V5.54825C94.2497 5.359 94.3098 5.20416 94.43 5.08373C94.5502 4.9633 94.7047 4.90308 94.8936 4.90308H97.9332C98.1221 4.90308 98.2767 4.9633 98.3969 5.08373C98.5171 5.20416 98.5772 5.359 98.5772 5.54825V17.6773C98.5772 17.8493 98.5171 18.0042 98.3969 18.1418C98.2767 18.2622 98.1221 18.3225 97.9332 18.3225H94.8936Z" fill="#66C61C"/>
</svg>
