<svg width="218" height="40" viewBox="0 0 218 40" fill="none" xmlns="http://www.w3.org/2000/svg">
    <g clip-path="url(#clip0_1099_8643)">
        <path d="M25.9208 0H15.5508V5.19H25.9208V0Z" fill="white"/>
        <path d="M28.5111 12.98H10.3711V18.17H28.5111V12.98Z" fill="white"/>
        <path d="M18.1397 7.79004H5.17969V10.39H18.1397V7.79004Z" fill="white"/>
        <path d="M18.14 20.77H0V23.37H18.14V20.77Z" fill="white"/>
        <path d="M25.9097 25.96H5.17969V31.15H25.9097V25.96Z" fill="white"/>
        <path d="M36.2798 33.7501C37.3063 33.7501 38.3098 33.4457 39.1633 32.8754C40.0167 32.3052 40.682 31.4946 41.0748 30.5462C41.4676 29.5979 41.5704 28.5544 41.3701 27.5476C41.1699 26.5408 40.6756 25.6161 39.9497 24.8902C39.2239 24.1644 38.2991 23.6701 37.2924 23.4698C36.2856 23.2696 35.2421 23.3724 34.2937 23.7652C33.3454 24.158 32.5348 24.8232 31.9645 25.6767C31.3942 26.5302 31.0898 27.5336 31.0898 28.5601C31.0898 29.9366 31.6366 31.2567 32.61 32.23C33.5833 33.2033 34.9034 33.7501 36.2798 33.7501Z" fill="white"/>
        <path d="M38.75 0H21.25V31.25H29.09C28.7602 30.3915 28.5908 29.4797 28.59 28.56C28.5527 27.5275 28.7239 26.498 29.0934 25.5331C29.4628 24.5682 30.0229 23.6877 30.7402 22.944C31.4575 22.2004 32.3173 21.6089 33.2682 21.2049C34.2192 20.8009 35.2418 20.5927 36.275 20.5927C37.3082 20.5927 38.3308 20.8009 39.2818 21.2049C40.2327 21.6089 41.0925 22.2004 41.8098 22.944C42.5271 23.6877 43.0872 24.5682 43.4566 25.5331C43.826 26.498 43.9973 27.5275 43.96 28.56C43.9592 29.4797 43.7898 30.3915 43.46 31.25H53.75V14.51L38.75 0Z" fill="white"/>
        <path d="M41.4617 28.56C41.4713 27.7536 41.2929 26.9561 40.9405 26.2307C40.5882 25.5053 40.0717 24.872 39.432 24.381C38.7923 23.89 38.047 23.5548 37.2551 23.4021C36.4633 23.2493 35.6468 23.2832 34.8703 23.501C34.0939 23.7188 33.3789 24.1145 32.782 24.6568C32.1851 25.1991 31.7228 25.873 31.4318 26.6251C31.1408 27.3771 31.029 28.1867 31.1053 28.9895C31.1817 29.7923 31.4441 30.5663 31.8717 31.25H40.6917C41.1917 30.4416 41.4582 29.5105 41.4617 28.56Z" fill="white"/>
        <path d="M74.9205 31C72.0637 31.1323 69.2572 30.2146 67.0305 28.42C65.9971 27.4991 65.1706 26.3698 64.6052 25.1064C64.0399 23.843 63.7486 22.4741 63.7505 21.09V19.36V17.6C63.7366 16.2284 64.0137 14.8695 64.5636 13.6128C65.1134 12.3562 65.9236 11.2305 66.9405 10.31C69.1782 8.49601 72.0026 7.56403 74.8805 7.69C77.0269 7.60691 79.1605 8.05698 81.0905 9C82.5956 9.70222 83.889 10.7887 84.8405 12.15C85.5797 13.1101 86.0399 14.2554 86.1705 15.46C86.1848 15.6044 86.1651 15.7502 86.1131 15.8856C86.061 16.021 85.9779 16.1424 85.8705 16.24C85.7709 16.342 85.6507 16.4215 85.5179 16.4733C85.3851 16.525 85.2428 16.5478 85.1005 16.54H79.6205C79.36 16.558 79.1016 16.4837 78.8905 16.33C78.6879 16.1482 78.5246 15.9271 78.4105 15.68C78.1645 14.9292 77.7017 14.2681 77.0805 13.78C76.4877 13.3911 75.789 13.1955 75.0805 13.22C72.7205 13.22 71.5005 14.75 71.4105 17.79V19.43V20.85C71.3738 22.0764 71.7236 23.2833 72.4105 24.3C72.751 24.6645 73.1677 24.9494 73.631 25.1344C74.0942 25.3194 74.5926 25.3998 75.0905 25.37C75.8355 25.4131 76.5749 25.2168 77.2005 24.81C77.8021 24.324 78.2387 23.6638 78.4505 22.92C78.5646 22.6729 78.7279 22.4518 78.9305 22.27C79.1416 22.1163 79.4 22.042 79.6605 22.06H85.1405C85.2762 22.0579 85.4109 22.0834 85.5364 22.1349C85.6619 22.1865 85.7755 22.2631 85.8705 22.36C85.9799 22.4378 86.0683 22.5416 86.1276 22.6621C86.187 22.7825 86.2155 22.9158 86.2105 23.05C86.1227 24.2182 85.7067 25.3378 85.0105 26.28C84.0655 27.662 82.7902 28.786 81.3005 29.55C79.3294 30.5615 77.1352 31.0602 74.9205 31Z" fill="white"/>
        <path d="M96.7504 31.0002C95.3079 31.021 93.8781 30.7275 92.5604 30.1402C91.3978 29.5942 90.3905 28.7656 89.6304 27.7302C88.9604 26.7206 88.6117 25.5318 88.6304 24.3202C88.6091 23.3869 88.8179 22.4627 89.2382 21.6291C89.6584 20.7955 90.2774 20.0781 91.0404 19.5402C93.0474 18.1801 95.3458 17.3101 97.7504 17.0002L103.14 16.1802V15.5802C103.21 14.7198 102.965 13.8633 102.45 13.1702C102.139 12.8831 101.77 12.6652 101.369 12.5307C100.967 12.3963 100.542 12.3484 100.12 12.3902C99.5533 12.3706 98.9901 12.4908 98.4804 12.7402C97.998 13.0032 97.5482 13.322 97.1404 13.6902C96.8607 13.9426 96.5595 14.1701 96.2404 14.3702C96.2097 14.473 96.1462 14.563 96.0595 14.6262C95.9728 14.6895 95.8677 14.7225 95.7604 14.7202H91.0604C90.7937 14.724 90.5346 14.6317 90.3304 14.4602C90.2481 14.3669 90.1867 14.257 90.1505 14.138C90.1143 14.019 90.104 13.8935 90.1204 13.7702C90.2178 12.815 90.6091 11.9136 91.2404 11.1902C92.1506 10.1166 93.302 9.27361 94.6004 8.7302C96.3784 8.00297 98.2906 7.6621 100.21 7.7302C103.74 7.7302 106.36 8.5202 108.05 10.1002C108.906 10.901 109.578 11.8783 110.018 12.9645C110.458 14.0506 110.657 15.2196 110.6 16.3902V29.4402C110.601 29.7284 110.494 30.0065 110.3 30.2202C110.197 30.3204 110.075 30.3987 109.941 30.4503C109.807 30.5019 109.664 30.5257 109.52 30.5202H104.52C104.375 30.5323 104.23 30.5127 104.093 30.4627C103.957 30.4128 103.833 30.3336 103.73 30.2308C103.627 30.128 103.548 30.004 103.498 29.8674C103.448 29.7309 103.428 29.5851 103.44 29.4402V27.9402C102.742 28.8843 101.817 29.6374 100.75 30.1302C99.5016 30.7236 98.1328 31.0213 96.7504 31.0002ZM98.7504 26.0902C99.3435 26.1165 99.9353 26.0149 100.486 25.7923C101.036 25.5697 101.532 25.2314 101.94 24.8002C102.399 24.2848 102.751 23.6836 102.976 23.0313C103.201 22.3791 103.294 21.6887 103.25 21.0002V20.3902L99.5804 21.0002C96.9871 21.4602 95.6937 22.3635 95.7004 23.7102C95.6903 24.0514 95.7677 24.3895 95.9252 24.6923C96.0828 24.9951 96.3152 25.2526 96.6004 25.4402C97.2622 25.8403 98.0278 26.0352 98.8004 26.0002L98.7504 26.0902Z" fill="white"/>
        <path d="M116.562 30.5199C116.418 30.5306 116.273 30.5098 116.138 30.4592C116.002 30.4085 115.88 30.3291 115.778 30.2265C115.676 30.1238 115.598 30.0004 115.549 29.8646C115.499 29.7288 115.48 29.5839 115.492 29.4399V9.18995C115.481 9.04676 115.502 8.903 115.552 8.76845C115.602 8.63391 115.68 8.51172 115.782 8.4102C115.883 8.30868 116.006 8.23021 116.14 8.18013C116.275 8.13005 116.419 8.10952 116.562 8.11995H121.562C121.709 8.11577 121.855 8.14408 121.99 8.20285C122.125 8.26162 122.245 8.3494 122.342 8.45995C122.449 8.54884 122.535 8.66045 122.594 8.7867C122.653 8.91294 122.683 9.05068 122.682 9.18995V10.9199C123.463 9.99694 124.445 9.26479 125.552 8.77949C126.66 8.29419 127.864 8.06859 129.072 8.11995H130.962C131.106 8.108 131.251 8.1274 131.386 8.1768C131.522 8.2262 131.646 8.30445 131.748 8.40614C131.851 8.50783 131.93 8.63055 131.981 8.76586C132.032 8.90117 132.052 9.04585 132.042 9.18995V13.6299C132.042 13.9182 131.935 14.1963 131.742 14.4099C131.639 14.5102 131.517 14.5885 131.383 14.6401C131.248 14.6916 131.105 14.7154 130.962 14.7099H126.752C126.248 14.6813 125.744 14.7551 125.269 14.927C124.795 15.0989 124.36 15.3652 123.992 15.7099C123.651 16.0709 123.387 16.497 123.215 16.9627C123.043 17.4285 122.967 17.9241 122.992 18.4199V29.4199C122.996 29.567 122.968 29.7131 122.909 29.8479C122.85 29.9827 122.762 30.1029 122.652 30.1999C122.549 30.3002 122.427 30.3785 122.293 30.4301C122.158 30.4816 122.015 30.5054 121.872 30.4999L116.562 30.5199Z" fill="white"/>
        <path d="M146.54 30.5199C140.594 30.5199 137.617 27.6899 137.61 22.0299V13.7599H134.25C133.949 13.7665 133.656 13.6594 133.43 13.4599C133.33 13.357 133.252 13.2348 133.2 13.1008C133.149 12.9667 133.125 12.8235 133.13 12.6799V9.18994C133.123 9.04763 133.145 8.9053 133.197 8.7725C133.249 8.6397 133.328 8.5195 133.43 8.41994C133.656 8.22052 133.949 8.11342 134.25 8.11994H137.61V6.11994C137.605 5.97638 137.629 5.83321 137.68 5.69913C137.732 5.56504 137.81 5.44284 137.91 5.33994C138.124 5.1465 138.402 5.03956 138.69 5.03994H143.69C143.83 5.03142 143.97 5.05232 144.101 5.1013C144.232 5.15028 144.352 5.22625 144.452 5.32428C144.552 5.42231 144.63 5.54022 144.681 5.67039C144.733 5.80056 144.756 5.94009 144.75 6.07994V8.07994H150.14C150.284 8.07448 150.427 8.09826 150.561 8.14983C150.695 8.2014 150.817 8.27969 150.92 8.37994C151.03 8.47586 151.117 8.59444 151.175 8.72743C151.234 8.86041 151.263 9.0046 151.26 9.14994V12.6399C151.265 12.787 151.236 12.9331 151.177 13.0679C151.119 13.2027 151.031 13.3229 150.92 13.4199C150.817 13.5202 150.695 13.5985 150.561 13.6501C150.427 13.7016 150.284 13.7254 150.14 13.7199H144.75V21.3899C144.75 23.5199 145.57 24.5799 147.21 24.5799H150.53C150.675 24.5678 150.821 24.5874 150.958 24.6374C151.094 24.6874 151.218 24.7665 151.321 24.8693C151.424 24.9722 151.503 25.0962 151.553 25.2327C151.603 25.3692 151.623 25.515 151.61 25.6599V29.3999C151.611 29.6882 151.504 29.9662 151.31 30.1799C151.207 30.2802 151.085 30.3585 150.951 30.4101C150.817 30.4616 150.674 30.4854 150.53 30.4799L146.54 30.5199Z" fill="white"/>
        <path d="M168.619 30.52C168.474 30.5321 168.328 30.5125 168.191 30.4626C168.055 30.4126 167.931 30.3334 167.828 30.2306C167.725 30.1278 167.646 30.0038 167.596 29.8672C167.546 29.7307 167.527 29.5849 167.539 29.44V9.19C167.528 9.04591 167.549 8.90123 167.599 8.76592C167.65 8.63061 167.73 8.50788 167.832 8.40619C167.935 8.3045 168.058 8.22626 168.194 8.17686C168.33 8.12745 168.475 8.10806 168.619 8.12H173.569C173.712 8.11454 173.855 8.13832 173.989 8.18989C174.124 8.24146 174.246 8.31975 174.349 8.42C174.46 8.51498 174.549 8.63315 174.609 8.76618C174.67 8.89921 174.7 9.04388 174.699 9.19V10.83C175.511 9.85032 176.537 9.07027 177.699 8.55001C179.011 7.95787 180.439 7.66415 181.879 7.69C183.032 7.64942 184.181 7.85899 185.246 8.30434C186.311 8.74969 187.267 9.42026 188.049 10.27C189.629 11.97 190.419 14.3533 190.419 17.42V29.42C190.419 29.7082 190.312 29.9863 190.119 30.2C190.019 30.302 189.899 30.3815 189.766 30.4333C189.633 30.485 189.491 30.5078 189.349 30.5H183.909C183.621 30.4985 183.343 30.3918 183.129 30.2C182.935 29.9863 182.828 29.7082 182.829 29.42V17.68C182.902 16.557 182.544 15.4484 181.829 14.58C181.466 14.1947 181.022 13.8945 180.529 13.7009C180.036 13.5073 179.507 13.425 178.979 13.46C178.453 13.4319 177.927 13.5174 177.437 13.7107C176.947 13.9039 176.504 14.2004 176.139 14.58C175.412 15.4422 175.053 16.5555 175.139 17.68V29.44C175.139 29.7282 175.032 30.0063 174.839 30.22C174.739 30.322 174.619 30.4015 174.486 30.4533C174.353 30.505 174.211 30.5278 174.069 30.52H168.619Z" fill="white"/>
        <path d="M206.241 39.9998C203.953 40.0913 201.675 39.6318 199.601 38.6598C198.149 37.9834 196.89 36.9516 195.941 35.6598C195.329 34.8107 194.956 33.8125 194.861 32.7698C194.865 32.636 194.898 32.5046 194.958 32.3852C195.019 32.2659 195.105 32.1615 195.211 32.0798C195.42 31.8844 195.696 31.7769 195.981 31.7798H201.461C201.688 31.7621 201.914 31.8221 202.101 31.9498C202.312 32.1399 202.476 32.376 202.581 32.6398C202.841 33.2289 203.243 33.7443 203.751 34.1398C204.425 34.5929 205.232 34.8044 206.041 34.7398C206.572 34.7825 207.106 34.7158 207.61 34.5438C208.114 34.3718 208.577 34.0981 208.971 33.7398C209.696 32.8276 210.037 31.669 209.921 30.5098V27.6298C209.107 28.4629 208.123 29.1104 207.036 29.5281C205.948 29.9457 204.784 30.1237 203.621 30.0498C202.391 30.1287 201.158 29.9428 200.006 29.5046C198.853 29.0665 197.808 28.3862 196.941 27.5098C195.421 25.7798 194.581 23.2998 194.441 20.0498V18.8898C194.441 15.4098 195.215 12.6798 196.761 10.6998C197.589 9.68529 198.647 8.88358 199.847 8.36167C201.047 7.83975 202.355 7.61279 203.661 7.69976C205.005 7.6684 206.337 7.9635 207.541 8.55976C208.648 9.08272 209.622 9.84837 210.391 10.7998V9.18976C210.384 9.04745 210.406 8.90512 210.458 8.77232C210.51 8.63952 210.589 8.51932 210.691 8.41976C210.905 8.22633 211.183 8.11938 211.471 8.11976H216.471C216.617 8.11706 216.761 8.14608 216.894 8.2048C217.027 8.26352 217.145 8.35053 217.241 8.45976C217.347 8.55032 217.433 8.66204 217.494 8.78776C217.554 8.91348 217.587 9.05041 217.591 9.18976V29.9198C217.591 33.1864 216.615 35.6831 214.661 37.4098C212.611 39.1398 209.841 39.9998 206.241 39.9998ZM205.941 24.4498C206.481 24.4921 207.023 24.4085 207.524 24.2054C208.026 24.0024 208.473 23.6855 208.831 23.2798C209.485 22.411 209.861 21.3656 209.911 20.2798C209.936 19.8334 209.936 19.3861 209.911 18.9398C209.935 18.5101 209.935 18.0794 209.911 17.6498C209.905 16.5556 209.524 15.4967 208.831 14.6498C208.45 14.2658 207.997 13.961 207.498 13.753C206.998 13.5451 206.462 13.438 205.921 13.438C205.38 13.438 204.845 13.5451 204.345 13.753C203.846 13.961 203.393 14.2658 203.011 14.6498C202.353 15.6274 202.004 16.781 202.011 17.9598V18.9098C201.941 20.3116 202.237 21.7075 202.871 22.9598C203.197 23.4659 203.656 23.8726 204.197 24.1354C204.739 24.3983 205.342 24.507 205.941 24.4498Z" fill="white"/>
        <path d="M157.32 30.5402C157.175 30.5508 157.031 30.53 156.895 30.4794C156.76 30.4287 156.637 30.3493 156.536 30.2467C156.434 30.144 156.356 30.0206 156.306 29.8848C156.257 29.749 156.238 29.6042 156.25 29.4602V9.25018C156.238 9.10619 156.257 8.96132 156.306 8.82554C156.356 8.68977 156.434 8.56631 156.536 8.46367C156.637 8.36103 156.76 8.28164 156.895 8.23098C157.031 8.18031 157.175 8.15957 157.32 8.17018H162.39C162.534 8.15957 162.678 8.18031 162.814 8.23098C162.949 8.28164 163.072 8.36103 163.173 8.46367C163.275 8.56631 163.353 8.68977 163.403 8.82554C163.452 8.96132 163.471 9.10619 163.46 9.25018V29.4602C163.46 29.7484 163.353 30.0265 163.16 30.2402C163.06 30.3422 162.94 30.4217 162.807 30.4734C162.674 30.5252 162.532 30.5479 162.39 30.5402H157.32Z" fill="white"/>
    </g>
    <defs>
        <clipPath id="clip0_1099_8643">
            <rect width="217.5" height="40" fill="white"/>
        </clipPath>
    </defs>
</svg>
