<svg width="116" height="20" viewBox="0 0 116 20" fill="none" xmlns="http://www.w3.org/2000/svg">
    <path d="M1.25 8.53904V8.13424C1.25 8.10632 1.24997 8.08304 1.28275 8.05512C1.33748 7.80116 1.4715 7.57085 1.6657 7.39706C1.8599 7.22327 2.10439 7.1149 2.36423 7.08734C3.72503 6.88571 5.08738 6.69029 6.4513 6.50107C6.57665 6.49048 6.6968 6.4464 6.799 6.3735C6.90119 6.3006 6.98162 6.20159 7.03182 6.08695C7.62639 4.8679 8.235 3.65345 8.83893 2.43904C8.90287 2.30608 8.98479 2.18245 9.08239 2.0715C9.22 1.92127 9.39269 1.80703 9.58524 1.73884C9.7778 1.67065 9.98432 1.65056 10.1865 1.68045C10.3887 1.71034 10.5804 1.78926 10.7446 1.9102C10.9089 2.03114 11.0406 2.19042 11.1283 2.37395C11.7509 3.61162 12.3689 4.8586 13.0009 6.09627C13.0507 6.20722 13.1295 6.30284 13.2292 6.37322C13.3288 6.4436 13.4456 6.48615 13.5674 6.49641C14.9392 6.68718 16.3062 6.88261 17.6779 7.08268C17.9346 7.11324 18.1753 7.22305 18.3659 7.39666C18.5565 7.57028 18.6876 7.79893 18.7406 8.05046C18.7912 8.26932 18.7813 8.49767 18.7121 8.71142C18.6429 8.92517 18.5169 9.11638 18.3474 9.26486C17.3549 10.2187 16.3717 11.1772 15.3839 12.1311C15.2998 12.2035 15.2365 12.2967 15.2004 12.4013C15.1642 12.5059 15.1565 12.6181 15.1779 12.7266C15.3995 13.9674 15.6133 15.2082 15.8193 16.449C15.8857 16.7292 15.9063 17.0183 15.8801 17.3051C15.8476 17.5048 15.766 17.6934 15.6424 17.8542C15.5189 18.015 15.3573 18.143 15.172 18.2268C14.9867 18.3106 14.7834 18.3476 14.5803 18.3345C14.3771 18.3215 14.1804 18.2587 14.0075 18.1519C12.809 17.5315 11.6167 16.9111 10.4307 16.2907C10.3023 16.2131 10.1549 16.172 10.0047 16.172C9.85438 16.172 9.70703 16.2131 9.57867 16.2907C8.38953 16.9282 7.18633 17.547 5.98783 18.1519C5.77651 18.2733 5.53357 18.3294 5.29004 18.3128C5.04651 18.2962 4.81345 18.2078 4.62076 18.0588C4.42506 17.9191 4.27592 17.7243 4.19249 17.4996C4.10906 17.2749 4.09516 17.0305 4.1526 16.7979C4.38668 15.4625 4.62076 14.1225 4.85016 12.7871C4.87871 12.657 4.87115 12.5215 4.82827 12.3953C4.78539 12.2691 4.70885 12.1569 4.60676 12.0706C3.69852 11.2005 2.79962 10.3164 1.8867 9.44633C1.59057 9.21152 1.3694 8.89635 1.25 8.53904Z" fill="#FFCE37"/>
    <path d="M25.25 8.53904V8.13424C25.25 8.10632 25.25 8.08304 25.2827 8.05512C25.3375 7.80116 25.4715 7.57085 25.6657 7.39706C25.8599 7.22327 26.1044 7.1149 26.3642 7.08734C27.725 6.88571 29.0874 6.69029 30.4513 6.50107C30.5766 6.49048 30.6968 6.4464 30.799 6.3735C30.9012 6.3006 30.9816 6.20159 31.0318 6.08695C31.6264 4.8679 32.235 3.65345 32.8389 2.43904C32.9029 2.30608 32.9848 2.18245 33.0824 2.0715C33.22 1.92127 33.3927 1.80703 33.5852 1.73884C33.7778 1.67065 33.9843 1.65056 34.1865 1.68045C34.3887 1.71034 34.5804 1.78926 34.7446 1.9102C34.9089 2.03114 35.0406 2.19042 35.1283 2.37395C35.7509 3.61162 36.3689 4.8586 37.0009 6.09627C37.0507 6.20722 37.1295 6.30284 37.2292 6.37322C37.3288 6.4436 37.4456 6.48615 37.5674 6.49641C38.9392 6.68718 40.3062 6.88261 41.6779 7.08268C41.9346 7.11324 42.1753 7.22305 42.3659 7.39666C42.5565 7.57028 42.6876 7.79893 42.7406 8.05046C42.7912 8.26932 42.7813 8.49767 42.7121 8.71142C42.6429 8.92517 42.5169 9.11638 42.3474 9.26486C41.3549 10.2187 40.3717 11.1772 39.3839 12.1311C39.2998 12.2035 39.2365 12.2967 39.2004 12.4013C39.1642 12.5059 39.1565 12.6181 39.1779 12.7266C39.3995 13.9674 39.6133 15.2082 39.8193 16.449C39.8857 16.7292 39.9063 17.0183 39.8801 17.3051C39.8476 17.5048 39.766 17.6934 39.6424 17.8542C39.5189 18.015 39.3573 18.143 39.172 18.2268C38.9867 18.3106 38.7834 18.3476 38.5803 18.3345C38.3771 18.3215 38.1804 18.2587 38.0075 18.1519C36.809 17.5315 35.6167 16.9111 34.4307 16.2907C34.3023 16.2131 34.1549 16.172 34.0047 16.172C33.8544 16.172 33.707 16.2131 33.5787 16.2907C32.3895 16.9282 31.1863 17.547 29.9878 18.1519C29.7765 18.2733 29.5336 18.3294 29.29 18.3128C29.0465 18.2962 28.8134 18.2078 28.6208 18.0588C28.4251 17.9191 28.2759 17.7243 28.1925 17.4996C28.1091 17.2749 28.0952 17.0305 28.1526 16.7979C28.3867 15.4625 28.6208 14.1225 28.8502 12.7871C28.8787 12.657 28.8712 12.5215 28.8283 12.3953C28.7854 12.2691 28.7089 12.1569 28.6068 12.0706C27.6985 11.2005 26.7996 10.3164 25.8867 9.44633C25.5906 9.21152 25.3694 8.89635 25.25 8.53904Z" fill="#FFCE37"/>
    <path d="M49.25 8.53904V8.13424C49.25 8.10632 49.25 8.08304 49.2827 8.05512C49.3375 7.80116 49.4715 7.57085 49.6657 7.39706C49.8599 7.22327 50.1044 7.1149 50.3642 7.08734C51.725 6.88571 53.0874 6.69029 54.4513 6.50107C54.5766 6.49048 54.6968 6.4464 54.799 6.3735C54.9012 6.3006 54.9816 6.20159 55.0318 6.08695C55.6264 4.8679 56.235 3.65345 56.8389 2.43904C56.9029 2.30608 56.9848 2.18245 57.0824 2.0715C57.22 1.92127 57.3927 1.80703 57.5852 1.73884C57.7778 1.67065 57.9843 1.65056 58.1865 1.68045C58.3887 1.71034 58.5804 1.78926 58.7446 1.9102C58.9089 2.03114 59.0406 2.19042 59.1283 2.37395C59.7509 3.61162 60.3689 4.8586 61.0009 6.09627C61.0507 6.20722 61.1295 6.30284 61.2292 6.37322C61.3288 6.4436 61.4456 6.48615 61.5674 6.49641C62.9392 6.68718 64.3062 6.88261 65.6779 7.08268C65.9346 7.11324 66.1753 7.22305 66.3659 7.39666C66.5565 7.57028 66.6876 7.79893 66.7406 8.05046C66.7912 8.26932 66.7813 8.49767 66.7121 8.71142C66.6429 8.92517 66.5169 9.11638 66.3474 9.26486C65.3549 10.2187 64.3717 11.1772 63.3839 12.1311C63.2998 12.2035 63.2365 12.2967 63.2004 12.4013C63.1642 12.5059 63.1565 12.6181 63.1779 12.7266C63.3995 13.9674 63.6133 15.2082 63.8193 16.449C63.8857 16.7292 63.9063 17.0183 63.8801 17.3051C63.8476 17.5048 63.766 17.6934 63.6424 17.8542C63.5189 18.015 63.3573 18.143 63.172 18.2268C62.9867 18.3106 62.7834 18.3476 62.5803 18.3345C62.3771 18.3215 62.1804 18.2587 62.0075 18.1519C60.809 17.5315 59.6167 16.9111 58.4307 16.2907C58.3023 16.2131 58.1549 16.172 58.0047 16.172C57.8544 16.172 57.707 16.2131 57.5787 16.2907C56.3895 16.9282 55.1863 17.547 53.9878 18.1519C53.7765 18.2733 53.5336 18.3294 53.29 18.3128C53.0465 18.2962 52.8134 18.2078 52.6208 18.0588C52.4251 17.9191 52.2759 17.7243 52.1925 17.4996C52.1091 17.2749 52.0952 17.0305 52.1526 16.7979C52.3867 15.4625 52.6208 14.1225 52.8502 12.7871C52.8787 12.657 52.8712 12.5215 52.8283 12.3953C52.7854 12.2691 52.7089 12.1569 52.6068 12.0706C51.6985 11.2005 50.7996 10.3164 49.8867 9.44633C49.5906 9.21152 49.3694 8.89635 49.25 8.53904Z" fill="#FFCE37"/>
    <path d="M73.25 8.53904V8.13424C73.25 8.10632 73.25 8.08304 73.2827 8.05512C73.3375 7.80116 73.4715 7.57085 73.6657 7.39706C73.8599 7.22327 74.1044 7.1149 74.3642 7.08734C75.725 6.88571 77.0874 6.69029 78.4513 6.50107C78.5766 6.49048 78.6968 6.4464 78.799 6.3735C78.9012 6.3006 78.9816 6.20159 79.0318 6.08695C79.6264 4.8679 80.235 3.65345 80.8389 2.43904C80.9029 2.30608 80.9848 2.18245 81.0824 2.0715C81.22 1.92127 81.3927 1.80703 81.5852 1.73884C81.7778 1.67065 81.9843 1.65056 82.1865 1.68045C82.3887 1.71034 82.5804 1.78926 82.7446 1.9102C82.9089 2.03114 83.0406 2.19042 83.1283 2.37395C83.7509 3.61162 84.3689 4.8586 85.0009 6.09627C85.0507 6.20722 85.1295 6.30284 85.2292 6.37322C85.3288 6.4436 85.4456 6.48615 85.5674 6.49641C86.9392 6.68718 88.3062 6.88261 89.6779 7.08268C89.9346 7.11324 90.1753 7.22305 90.3659 7.39666C90.5565 7.57028 90.6876 7.79893 90.7406 8.05046C90.7912 8.26932 90.7813 8.49767 90.7121 8.71142C90.6429 8.92517 90.5169 9.11638 90.3474 9.26486C89.3549 10.2187 88.3717 11.1772 87.3839 12.1311C87.2998 12.2035 87.2365 12.2967 87.2004 12.4013C87.1642 12.5059 87.1565 12.6181 87.1779 12.7266C87.3995 13.9674 87.6133 15.2082 87.8193 16.449C87.8857 16.7292 87.9063 17.0183 87.8801 17.3051C87.8476 17.5048 87.766 17.6934 87.6424 17.8542C87.5189 18.015 87.3573 18.143 87.172 18.2268C86.9867 18.3106 86.7834 18.3476 86.5803 18.3345C86.3771 18.3215 86.1804 18.2587 86.0075 18.1519C84.809 17.5315 83.6167 16.9111 82.4307 16.2907C82.3023 16.2131 82.1549 16.172 82.0047 16.172C81.8544 16.172 81.707 16.2131 81.5787 16.2907C80.3895 16.9282 79.1863 17.547 77.9878 18.1519C77.7765 18.2733 77.5336 18.3294 77.29 18.3128C77.0465 18.2962 76.8134 18.2078 76.6208 18.0588C76.4251 17.9191 76.2759 17.7243 76.1925 17.4996C76.1091 17.2749 76.0952 17.0305 76.1526 16.7979C76.3867 15.4625 76.6208 14.1225 76.8502 12.7871C76.8787 12.657 76.8712 12.5215 76.8283 12.3953C76.7854 12.2691 76.7089 12.1569 76.6068 12.0706C75.6985 11.2005 74.7996 10.3164 73.8867 9.44633C73.5906 9.21152 73.3694 8.89635 73.25 8.53904Z" fill="#FFCE37"/>
    <path d="M97.25 8.53904V8.13424C97.25 8.10632 97.25 8.08304 97.2827 8.05512C97.3375 7.80116 97.4715 7.57085 97.6657 7.39706C97.8599 7.22327 98.1044 7.1149 98.3642 7.08734C99.725 6.88571 101.087 6.69029 102.451 6.50107C102.577 6.49048 102.697 6.4464 102.799 6.3735C102.901 6.3006 102.982 6.20159 103.032 6.08695C103.626 4.8679 104.235 3.65345 104.839 2.43904C104.903 2.30608 104.985 2.18245 105.082 2.0715C105.22 1.92127 105.393 1.80703 105.585 1.73884C105.778 1.67065 105.984 1.65056 106.187 1.68045C106.389 1.71034 106.58 1.78926 106.745 1.9102C106.909 2.03114 107.041 2.19042 107.128 2.37395C107.751 3.61162 108.369 4.8586 109.001 6.09627C109.051 6.20722 109.13 6.30284 109.229 6.37322C109.329 6.4436 109.446 6.48615 109.567 6.49641C110.939 6.68718 112.306 6.88261 113.678 7.08268C113.935 7.11324 114.175 7.22305 114.366 7.39666C114.557 7.57028 114.688 7.79893 114.741 8.05046C114.791 8.26932 114.781 8.49767 114.712 8.71142C114.643 8.92517 114.517 9.11638 114.347 9.26486C113.355 10.2187 112.372 11.1772 111.384 12.1311C111.3 12.2035 111.237 12.2967 111.2 12.4013C111.164 12.5059 111.156 12.6181 111.178 12.7266C111.399 13.9674 111.613 15.2082 111.819 16.449C111.886 16.7292 111.906 17.0183 111.88 17.3051C111.848 17.5048 111.766 17.6934 111.642 17.8542C111.519 18.015 111.357 18.143 111.172 18.2268C110.987 18.3106 110.783 18.3476 110.58 18.3345C110.377 18.3215 110.18 18.2587 110.007 18.1519C108.809 17.5315 107.617 16.9111 106.431 16.2907C106.302 16.2131 106.155 16.172 106.005 16.172C105.854 16.172 105.707 16.2131 105.579 16.2907C104.39 16.9282 103.186 17.547 101.988 18.1519C101.777 18.2733 101.534 18.3294 101.29 18.3128C101.047 18.2962 100.813 18.2078 100.621 18.0588C100.425 17.9191 100.276 17.7243 100.192 17.4996C100.109 17.2749 100.095 17.0305 100.153 16.7979C100.387 15.4625 100.621 14.1225 100.85 12.7871C100.879 12.657 100.871 12.5215 100.828 12.3953C100.785 12.2691 100.709 12.1569 100.607 12.0706C99.6985 11.2005 98.7996 10.3164 97.8867 9.44633C97.5906 9.21152 97.3694 8.89635 97.25 8.53904Z" fill="#FFCE37"/>
</svg>