<svg fill="red" width="24" height="24" viewBox="0 0 24 24" xmlns="http://www.w3.org/2000/svg">
    <g clip-path="url(#clip0_1_1867)">
        <path d="M19.1284 20.0001V19.8715H18.9998H4.99985H4.87128V20.0001V21.1429C4.87128 21.7198 4.46553 22.1572 3.99985 22.1572H2.99985C2.53416 22.1572 2.12842 21.7198 2.12842 21.1429V12.5715V12.4745L2.03517 12.4479L0.792629 12.0929C0.412045 11.9842 0.128419 11.5852 0.128419 11.1077V10.2858C0.128419 10.0246 0.31031 9.84293 0.499847 9.84293H1.99985H2.08895L2.12023 9.7595L4.60073 3.14483C4.90007 2.34659 5.58024 1.84293 6.31864 1.84293H17.681C18.4195 1.84293 19.0996 2.34659 19.399 3.14483L21.8795 9.7595L21.9107 9.84293H21.9998H23.4998C23.6894 9.84293 23.8713 10.0246 23.8713 10.2858V11.1077C23.8713 11.5852 23.5877 11.9842 23.207 12.0929L21.9645 12.4479L21.8713 12.4745V12.5715V21.1429C21.8713 21.7198 21.4655 22.1572 20.9998 22.1572H19.9998C19.5341 22.1572 19.1284 21.7198 19.1284 21.1429V20.0001ZM19.9998 17.8429H20.1284V17.7144V12.0001V11.8715H19.9998H3.99985H3.87128V12.0001V17.7144V17.8429H3.99985H19.9998ZM18.9476 9.74961L18.9477 9.74957C19.5298 9.48343 19.7963 8.74348 19.5726 8.10456L18.1212 3.9576L18.0911 3.8715H17.9998H5.99985H5.90863L5.87849 3.9576L4.42705 8.10458C4.37495 8.25345 4.34831 8.41188 4.34831 8.5715C4.34831 9.25704 4.838 9.84293 5.47688 9.84293H18.5228C18.6689 9.84293 18.8131 9.81101 18.9476 9.74961ZM9.4135 16.3942L9.41348 16.3943C9.36044 16.4267 9.30256 16.4429 9.24481 16.4429H5.99985C5.53416 16.4429 5.12842 16.0055 5.12842 15.4286V13.2724C6.21397 13.2879 7.11817 13.5001 7.8467 13.9024C8.60226 14.3197 9.17636 14.9455 9.56927 15.7852C9.67498 16.0111 9.59475 16.2835 9.4135 16.3942ZM16.153 13.9024C16.8816 13.5001 17.7857 13.2879 18.8713 13.2724V15.4286C18.8713 16.0055 18.4655 16.4429 17.9998 16.4429H14.7548C14.6971 16.4429 14.6392 16.4267 14.5862 16.3943L14.5862 16.3942C14.405 16.2835 14.3248 16.0112 14.4305 15.7852C14.8234 14.9455 15.3975 14.3197 16.153 13.9024Z"
              fill="#292D32" fill-opacity="0.4" stroke="#66C61C" stroke-width="0.257143"/>
    </g>
    <defs>
        <clipPath id="clip0_1_1867">
            <rect width="24" height="24" fill="#66C61C"/>
        </clipPath>
    </defs>
</svg>
