<svg width="25" height="24" viewBox="0 0 25 24" fill="none" xmlns="http://www.w3.org/2000/svg">
<path d="M3.5 6.28259C3.08579 6.28259 2.75 6.61838 2.75 7.03259C2.75 7.44681 3.08579 7.78259 3.5 7.78259V6.28259ZM21.5 7.78259C21.9142 7.78259 22.25 7.44681 22.25 7.03259C22.25 6.61838 21.9142 6.28259 21.5 6.28259V7.78259ZM5.5 7.03259V6.28259H4.75V7.03259H5.5ZM19.5 7.03259H20.25V6.28259H19.5V7.03259ZM18.8418 16.8303L19.5624 17.0383L18.8418 16.8303ZM14.224 20.8553L14.3489 21.5949L14.224 20.8553ZM10.776 20.8553L10.901 20.1158L10.901 20.1158L10.776 20.8553ZM10.6183 20.8287L10.4933 21.5682H10.4933L10.6183 20.8287ZM6.15815 16.8303L5.43757 17.0383L6.15815 16.8303ZM14.3817 20.8287L14.2568 20.0892L14.3817 20.8287ZM8.34254 5.48939L9.02333 5.80406L8.34254 5.48939ZM9.31802 4.18112L8.81749 3.62258V3.62258L9.31802 4.18112ZM10.7779 3.30696L11.0389 4.01009L10.7779 3.30696ZM14.2221 3.30696L14.4831 2.60384V2.60384L14.2221 3.30696ZM16.6575 5.48939L17.3383 5.17471L16.6575 5.48939ZM3.5 7.78259H21.5V6.28259H3.5V7.78259ZM14.2568 20.0892L14.099 20.1158L14.3489 21.5949L14.5067 21.5682L14.2568 20.0892ZM10.901 20.1158L10.7432 20.0892L10.4933 21.5682L10.651 21.5949L10.901 20.1158ZM18.75 7.03259V12.1758H20.25V7.03259H18.75ZM6.25 12.1759V7.03259H4.75V12.1759H6.25ZM18.75 12.1758C18.75 13.6806 18.5383 15.1776 18.1212 16.6223L19.5624 17.0383C20.0185 15.4583 20.25 13.8212 20.25 12.1758H18.75ZM14.099 20.1158C13.0404 20.2947 11.9596 20.2947 10.901 20.1158L10.651 21.5949C11.8751 21.8017 13.1248 21.8017 14.3489 21.5949L14.099 20.1158ZM10.7432 20.0892C8.90523 19.7786 7.40157 18.4335 6.87873 16.6223L5.43757 17.0383C6.11878 19.3981 8.08166 21.1607 10.4933 21.5682L10.7432 20.0892ZM6.87873 16.6223C6.4617 15.1776 6.25 13.6806 6.25 12.1759H4.75C4.75 13.8212 4.98148 15.4583 5.43757 17.0383L6.87873 16.6223ZM14.5067 21.5682C16.9183 21.1607 18.8812 19.3981 19.5624 17.0383L18.1212 16.6223C17.5984 18.4335 16.0947 19.7786 14.2568 20.0892L14.5067 21.5682ZM8.75 7.03259C8.75 6.61367 8.84194 6.19649 9.02333 5.80406L7.66175 5.17471C7.39085 5.76079 7.25 6.39238 7.25 7.03259H8.75ZM9.02333 5.80406C9.20487 5.41133 9.47357 5.04881 9.81855 4.73966L8.81749 3.62258C8.32675 4.06235 7.93251 4.58893 7.66175 5.17471L9.02333 5.80406ZM9.81855 4.73966C10.1637 4.43037 10.5778 4.18126 11.0389 4.01009L10.5169 2.60384C9.88616 2.83798 9.30808 3.18295 8.81749 3.62258L9.81855 4.73966ZM11.0389 4.01009C11.5001 3.8389 11.9968 3.75 12.5 3.75V2.25C11.8213 2.25 11.1477 2.36972 10.5169 2.60384L11.0389 4.01009ZM12.5 3.75C13.0032 3.75 13.4999 3.8389 13.9611 4.01009L14.4831 2.60384C13.8523 2.36972 13.1787 2.25 12.5 2.25V3.75ZM13.9611 4.01009C14.4222 4.18126 14.8363 4.43037 15.1815 4.73966L16.1825 3.62258C15.6919 3.18295 15.1138 2.83798 14.4831 2.60384L13.9611 4.01009ZM15.1815 4.73966C15.5264 5.04881 15.7951 5.41133 15.9767 5.80407L17.3383 5.17471C17.0675 4.58893 16.6733 4.06235 16.1825 3.62258L15.1815 4.73966ZM15.9767 5.80406C16.1581 6.19649 16.25 6.61367 16.25 7.03259H17.75C17.75 6.39238 17.6092 5.7608 17.3383 5.17471L15.9767 5.80406ZM5.5 7.78259H19.5V6.28259H5.5V7.78259Z" fill="#F04438"/>
<path d="M10.5 12V16M14.5 12V16" stroke="#F04438" stroke-width="1.5" stroke-linecap="round"/>
</svg>
