<svg width="44" height="32" viewBox="0 0 44 32" fill="none" xmlns="http://www.w3.org/2000/svg">
<path d="M26.8594 1.75171H13.2935L1.66558 12.9989V25.9765H26.8594V1.75171Z" fill="#66C61C"/>
<rect width="8.03525" height="4.02503" transform="matrix(-1 0 0 1 31.2812 1.75171)" fill="#66C61C"/>
<rect width="14.0617" height="4.02503" transform="matrix(-1 0 0 1 35.2969 11.8142)" fill="#66C61C"/>
<rect width="10.0441" height="2.01252" transform="matrix(-1 0 0 1 39.3177 7.78955)" fill="#66C61C"/>
<rect width="14.0617" height="2.01252" transform="matrix(-1 0 0 1 43.3333 17.8521)" fill="#66C61C"/>
<rect width="16.0705" height="4.02503" transform="matrix(-1 0 0 1 39.3177 21.9497)" fill="#66C61C"/>
<path d="M15.2115 28.9151C12.4386 28.9151 10.1939 26.6635 10.1939 23.89C10.1939 21.1165 12.4386 18.865 15.2115 18.865C17.9844 18.865 20.2291 21.1165 20.2291 23.89C20.2291 26.6635 17.9844 28.9151 15.2115 28.9151Z" fill="#66C61C" stroke="white" stroke-width="2"/>
</svg>
