<svg width="24" height="24" viewBox="0 0 24 24" fill="none" xmlns="http://www.w3.org/2000/svg">
    <path d="M22.0581 6.9449C21.9386 6.50093 21.7045 6.09614 21.3794 5.77103C21.0543 5.44592 20.6495 5.2119 20.2056 5.0924C18.5706 4.6499 12.0006 4.6499 12.0006 4.6499C12.0006 4.6499 5.43056 4.6499 3.79556 5.0924C3.35159 5.2119 2.9468 5.44592 2.62169 5.77103C2.29658 6.09614 2.06257 6.50093 1.94306 6.9449C1.63777 8.61235 1.48962 10.3048 1.50056 11.9999C1.48962 13.695 1.63777 15.3875 1.94306 17.0549C2.06257 17.4989 2.29658 17.9037 2.62169 18.2288C2.9468 18.5539 3.35159 18.7879 3.79556 18.9074C5.43056 19.3499 12.0006 19.3499 12.0006 19.3499C12.0006 19.3499 18.5706 19.3499 20.2056 18.9074C20.6495 18.7879 21.0543 18.5539 21.3794 18.2288C21.7045 17.9037 21.9386 17.4989 22.0581 17.0549C22.3634 15.3875 22.5115 13.695 22.5006 11.9999C22.5115 10.3048 22.3634 8.61235 22.0581 6.9449ZM9.90056 15.1499V8.8499L15.3531 11.9999L9.90056 15.1499Z" fill="#BBBCBE"/>
</svg>
