<svg width="41" height="40" viewBox="0 0 41 40" fill="none" xmlns="http://www.w3.org/2000/svg">
    <g clip-path="url(#clip0_1189_11804)">
        <g clip-path="url(#clip1_1189_11804)">
            <path d="M40.4964 20.9403C40.4964 22.1098 40.4964 23.2793 40.4964 24.4488C40.4964 24.9856 40.3443 25.1686 39.7778 25.2622C38.5648 25.4741 37.3512 25.6797 36.1368 25.8792C36.0169 25.8879 35.903 25.9307 35.8105 26.0018C35.718 26.0729 35.6516 26.1687 35.6203 26.2761C35.1415 27.4844 34.1763 28.1949 32.8034 28.3132C31.4072 28.4325 30.322 27.8813 29.6056 26.7594C29.4756 26.5538 29.3524 26.4777 29.0947 26.4777C22.6961 26.4845 16.2963 26.4845 9.89551 26.4777C9.79585 26.4671 9.69511 26.4859 9.60773 26.5316C9.52034 26.5772 9.45078 26.6472 9.40901 26.7317C8.08945 28.8716 4.91495 28.8633 3.58761 26.7183C3.54938 26.6388 3.48492 26.5726 3.4035 26.5292C3.32207 26.4858 3.22787 26.4674 3.13443 26.4766C2.52353 26.49 1.91262 26.4849 1.30171 26.4766C0.754117 26.4766 0.507528 26.2514 0.506418 25.7507C0.506418 24.2339 0.491978 22.7172 0.506418 21.2004C0.517898 20.3005 0.832814 19.4263 1.40715 18.7001C1.98148 17.9739 2.78653 17.4319 3.7098 17.15C3.77348 17.1252 3.83922 17.1052 3.90639 17.0903C5.1171 16.9155 6.0679 16.3109 6.98093 15.5931C8.2394 14.6039 9.55674 13.6784 10.8396 12.7139C11.7587 12.0143 12.9167 11.6407 14.1063 11.6599C21.9215 11.6681 29.737 11.6681 37.553 11.6599C38.2039 11.6599 38.3305 11.7401 38.5593 12.3129C39.1569 13.7905 39.76 15.2672 40.3442 16.75C40.4371 16.9896 40.4859 17.2419 40.4887 17.4965C40.5042 18.6523 40.4964 19.7989 40.4964 20.9403ZM17.8051 25.2324V12.937H16.5044C16.5044 13.9057 16.5044 14.8435 16.5044 15.7813C16.5044 17.0914 15.6969 17.8379 14.2829 17.8379C12.007 17.8379 9.7289 17.8739 7.45522 17.8235C6.34652 17.7943 5.24187 17.9597 4.19963 18.3109C3.73645 18.4672 3.31104 18.7222 2.86674 18.9351L2.9245 19.0729C3.3899 19.0729 3.85641 19.0729 4.32181 19.0729C5.07045 19.0729 5.34147 19.4842 5.00714 20.1176C4.62283 20.8375 4.21741 21.5573 3.84198 22.2894C3.66537 22.6339 3.40878 22.7974 2.99337 22.7789C2.61238 22.7614 2.23029 22.7789 1.85486 22.7789V25.2262H3.14332C3.38101 23.4041 4.62061 22.2257 6.34337 22.166C7.15629 22.1271 7.95575 22.3698 8.58595 22.8468C9.40012 23.4545 9.78333 24.2679 9.84665 25.2314L17.8051 25.2324ZM19.1835 25.2489C20.8252 25.2489 22.4202 25.2489 24.0164 25.2417C24.1628 25.2296 24.3 25.1702 24.404 25.074C25.9324 23.6708 27.4548 22.2623 28.9714 20.8488C29.0653 20.7769 29.13 20.6775 29.1546 20.567C29.1691 19.6714 29.1635 18.7747 29.1635 17.8667H19.1835V25.2489ZM30.4998 12.9093V13.3597C30.4998 15.8019 30.4998 18.2441 30.5064 20.6853C30.5134 20.8445 30.483 21.0032 30.4174 21.1505C30.3519 21.2978 30.2526 21.4303 30.1265 21.5388C28.9047 22.6565 27.6829 23.7866 26.47 24.9126C26.3722 25.0041 26.2801 25.1008 26.1545 25.2211H29.138C29.4068 23.5408 30.3831 22.4807 31.8682 22.239C32.5843 22.1107 33.3261 22.2047 33.9786 22.5064C34.9583 22.9578 35.5259 23.7146 35.7958 24.6833C36.8588 24.5044 37.8817 24.3357 38.9058 24.1537C39.0036 24.1362 39.158 24.0396 39.1602 23.9758C39.1791 23.3773 39.1713 22.7789 39.1713 22.1568C38.4971 22.1568 37.874 22.164 37.2508 22.1568C36.6955 22.1475 36.4211 21.8143 36.5533 21.3094C36.7521 20.5485 36.9598 19.7896 37.1698 19.0318C37.2908 18.5978 37.483 18.4621 37.9662 18.4569C38.3638 18.4569 38.7603 18.4569 39.1547 18.4569V17.84H38.6892C37.0931 17.84 35.497 17.84 33.9008 17.84C32.709 17.8338 31.8537 17.042 31.8437 15.9428C31.836 15.0564 31.8437 14.17 31.8437 13.2825V12.9093H30.4998ZM29.148 12.9288H19.2024V16.5844H29.148V12.9288ZM38.8714 16.6019C38.3749 15.3782 37.9051 14.2162 37.4274 13.0584C37.4037 13.018 37.37 12.9834 37.3291 12.9573C37.2882 12.9312 37.2412 12.9144 37.192 12.9082C35.8591 12.899 34.5384 12.9021 33.1755 12.9021C33.1755 13.9736 33.16 15.0101 33.1833 16.0456C33.1911 16.3798 33.451 16.5937 33.8153 16.5967C35.4714 16.6111 37.1342 16.6111 38.8692 16.6111L38.8714 16.6019ZM7.74734 16.6019C10.0877 16.6019 12.3136 16.6081 14.5384 16.5957C14.9338 16.5957 15.1615 16.3212 15.1671 15.917C15.176 15.3391 15.1671 14.7623 15.1671 14.1844V12.9093C14.855 12.9093 14.5928 12.9226 14.3329 12.9093C13.2533 12.8455 12.3336 13.1643 11.5094 13.8162C10.6675 14.4826 9.78111 15.1016 8.91473 15.7422C8.55263 16.0034 8.19164 16.2728 7.74512 16.605L7.74734 16.6019ZM6.50775 27.0998C6.90242 27.0986 7.28787 26.9892 7.61554 26.7856C7.94321 26.5819 8.19843 26.293 8.34906 25.9553C8.49968 25.6175 8.53898 25.2461 8.46198 24.8877C8.38498 24.5294 8.19514 24.2001 7.91637 23.9415C7.6376 23.6829 7.28237 23.5064 6.89546 23.4343C6.50854 23.3622 6.10724 23.3978 5.74211 23.5365C5.37698 23.6752 5.06436 23.9108 4.84364 24.2137C4.62291 24.5166 4.50394 24.8732 4.50175 25.2386C4.50175 25.7315 4.71295 26.2043 5.08902 26.5532C5.46509 26.9021 5.97532 27.0987 6.50775 27.0998ZM34.4984 25.2396C34.4966 24.8726 34.377 24.5144 34.1548 24.2105C33.9326 23.9066 33.6178 23.6707 33.2504 23.5328C32.8831 23.3949 32.4797 23.3612 32.0916 23.436C31.7035 23.5108 31.3482 23.6907 31.0708 23.9528C30.7934 24.215 30.6065 24.5476 30.5337 24.9084C30.461 25.2691 30.5057 25.6418 30.6622 25.9789C30.8188 26.3161 31.08 26.6026 31.4128 26.802C31.7456 27.0014 32.1349 27.1047 32.5313 27.0988C33.057 27.0896 33.5578 26.8896 33.9258 26.5418C34.2937 26.1941 34.4994 25.7264 34.4984 25.2396ZM1.85263 21.547C2.02318 21.5559 2.19414 21.5559 2.36468 21.547C2.51797 21.5295 2.74345 21.5244 2.80232 21.4359C3.02447 21.0935 3.19886 20.7161 3.41323 20.3171H3.02447C1.8282 20.3058 1.79043 20.3428 1.85263 21.547ZM38.0261 20.9105H39.1369V19.7094H38.3471L38.0261 20.9105Z" fill="#66C61C"/>
            <path d="M14.5383 18.4625C14.7604 18.4625 14.9826 18.4481 15.2047 18.4625C15.3735 18.4699 15.5327 18.5371 15.6493 18.6503C15.766 18.7634 15.8311 18.9138 15.8312 19.0702C15.8354 19.2268 15.7729 19.3787 15.6571 19.493C15.5413 19.6073 15.3816 19.6748 15.2125 19.681C14.7415 19.7026 14.2684 19.7026 13.7974 19.681C13.629 19.6762 13.4692 19.6105 13.3524 19.4981C13.2355 19.3857 13.1708 19.2354 13.1721 19.0794C13.1681 18.9224 13.2303 18.7702 13.3456 18.655C13.4609 18.5398 13.6202 18.4707 13.7896 18.4625C14.0373 18.4491 14.2884 18.4625 14.5383 18.4625Z" fill="#66C61C"/>
            <path d="M21.1601 19.6898C20.9246 19.6898 20.6869 19.7052 20.4525 19.6898C20.2835 19.6808 20.1249 19.6114 20.0099 19.4964C19.8949 19.3813 19.8326 19.2295 19.8361 19.0728C19.8334 18.9159 19.8977 18.7644 20.015 18.6512C20.1323 18.538 20.2931 18.4722 20.4625 18.4682C20.9335 18.4486 21.4067 18.4476 21.8776 18.4682C22.0477 18.4746 22.2082 18.5431 22.3239 18.6587C22.4396 18.7743 22.5012 18.9276 22.4952 19.0851C22.4935 19.2413 22.428 19.3911 22.3117 19.5042C22.1954 19.6174 22.0371 19.6856 21.8687 19.6949H21.7854H21.1601V19.6898Z" fill="#66C61C"/>
        </g>
    </g>
    <defs>
        <clipPath id="clip0_1189_11804">
            <rect width="40" height="40" fill="white" transform="translate(0.5)"/>
        </clipPath>
        <clipPath id="clip1_1189_11804">
            <rect width="40" height="16.6667" fill="white" transform="translate(0.5 11.667)"/>
        </clipPath>
    </defs>
</svg>
