<svg width="16" height="16" viewBox="0 0 16 16" fill="none" xmlns="http://www.w3.org/2000/svg">
    <g clip-path="url(#clip0_1132_11383)">
        <path d="M8 16C12.4183 16 16 12.4183 16 8C16 3.58172 12.4183 0 8 0C3.58172 0 0 3.58172 0 8C0 12.4183 3.58172 16 8 16Z" fill="#66C61C"/>
        <g clip-path="url(#clip1_1132_11383)">
            <path d="M7.30583 4.5H5.18359V5.57644H7.30583V4.5Z" fill="white"/>
            <path d="M7.83347 7.19214H4.12109V8.26858H7.83347V7.19214Z" fill="white"/>
            <path d="M5.71087 6.11572H3.05859V6.65498H5.71087V6.11572Z" fill="white"/>
            <path d="M5.71237 8.80786H2V9.34712H5.71237V8.80786Z" fill="white"/>
            <path d="M7.30101 9.88428H3.05859V10.9607H7.30101V9.88428Z" fill="white"/>
            <path d="M9.42542 11.5001C9.63549 11.5001 9.84085 11.4369 10.0155 11.3186C10.1902 11.2004 10.3263 11.0322 10.4067 10.8356C10.4871 10.6389 10.5081 10.4224 10.4672 10.2136C10.4262 10.0048 10.325 9.813 10.1765 9.66245C10.0279 9.51191 9.83867 9.40939 9.63263 9.36785C9.4266 9.32632 9.21304 9.34763 9.01896 9.42911C8.82488 9.51058 8.65899 9.64855 8.54228 9.82557C8.42557 10.0026 8.36328 10.2107 8.36328 10.4236C8.36328 10.7091 8.47518 10.9829 8.67437 11.1848C8.87356 11.3866 9.14372 11.5001 9.42542 11.5001Z" fill="white"/>
            <path d="M9.92905 4.5H6.34766V10.9815H7.95212C7.88464 10.8034 7.84995 10.6143 7.8498 10.4236C7.84217 10.2094 7.87721 9.99588 7.95281 9.79576C8.02842 9.59563 8.14304 9.41299 8.28983 9.25876C8.43663 9.10452 8.61259 8.98185 8.8072 8.89806C9.00182 8.81427 9.21109 8.77109 9.42254 8.77109C9.63399 8.77109 9.84327 8.81427 10.0379 8.89806C10.2325 8.98185 10.4085 9.10452 10.5552 9.25876C10.702 9.41299 10.8167 9.59563 10.8923 9.79576C10.9679 9.99588 11.0029 10.2094 10.9953 10.4236C10.9951 10.6143 10.9604 10.8034 10.893 10.9815H12.9988V7.50948L9.92905 4.5Z" fill="white"/>
            <path d="M10.4836 10.4235C10.4855 10.2563 10.449 10.0909 10.3769 9.9404C10.3048 9.78995 10.1991 9.65859 10.0682 9.55675C9.93729 9.45492 9.78476 9.3854 9.62271 9.35372C9.46066 9.32203 9.29356 9.32906 9.13466 9.37423C8.97575 9.4194 8.82942 9.50148 8.70727 9.61396C8.58512 9.72643 8.49052 9.8662 8.43096 10.0222C8.3714 10.1782 8.34852 10.3461 8.36415 10.5126C8.37977 10.6791 8.43347 10.8396 8.52097 10.9814H10.326C10.4283 10.8138 10.4829 10.6207 10.4836 10.4235Z" fill="white"/>
        </g>
    </g>
    <defs>
        <clipPath id="clip0_1132_11383">
            <rect width="16" height="16" fill="white"/>
        </clipPath>
        <clipPath id="clip1_1132_11383">
            <rect width="11" height="7" fill="white" transform="translate(2 4.5)"/>
        </clipPath>
    </defs>
</svg>
