<svg width="48" height="48" viewBox="0 0 48 48" fill="none" xmlns="http://www.w3.org/2000/svg">
<rect width="48" height="48" rx="24" fill="#292D32" fill-opacity="0.05"/>
<path fill-rule="evenodd" clip-rule="evenodd" d="M19.7475 12.4404C22.5494 11.8532 25.4532 11.8532 28.2551 12.4404L28.8412 12.5632C31.2592 13.07 33.361 14.3499 34.842 16.1222C35.0838 16.4114 35.0025 16.8285 34.6832 17.04L25.8337 22.9001C24.7335 23.6287 23.2691 23.6287 22.1689 22.9001L13.3194 17.04C13.0001 16.8286 12.9188 16.4114 13.1606 16.1222C14.6416 14.3499 16.7434 13.07 19.1614 12.5632L19.7475 12.4404ZM12.4344 18.9138C12.0639 18.6684 11.5473 18.8091 11.407 19.2159C11.3287 19.4431 11.2586 19.674 11.1971 19.9083C10.4916 22.5953 10.4916 25.4047 11.1971 28.0918C12.1632 31.7715 15.2482 34.6167 19.1614 35.4368L19.7475 35.5596C22.5494 36.1468 25.4532 36.1468 28.2551 35.5596L28.8412 35.4368C32.7544 34.6167 35.8394 31.7715 36.8055 28.0917C37.511 25.4047 37.511 22.5953 36.8055 19.9083C36.744 19.674 36.6739 19.4431 36.5956 19.2159C36.4553 18.8091 35.9387 18.6684 35.5682 18.9138L27.0552 24.551C25.2216 25.7652 22.781 25.7652 20.9473 24.551L12.4344 18.9138Z" fill="#66C61C"/>
</svg>
