<svg width="100" height="100" viewBox="0 0 100 100" fill="none" xmlns="http://www.w3.org/2000/svg">
    <g clip-path="url(#clip0_1433_5608)">
        <path d="M99.9911 52.3497C99.9911 55.2735 99.9911 58.1973 99.9911 61.1211C99.9911 62.463 99.6106 62.9206 98.1944 63.1546C95.1621 63.6842 92.1279 64.1983 89.0919 64.697C88.7924 64.7188 88.5074 64.8258 88.2762 65.0035C88.045 65.1812 87.8789 65.4207 87.8007 65.6893C86.6038 68.71 84.1908 70.4864 80.7586 70.782C77.2681 71.0802 74.5551 69.7023 72.764 66.8976C72.4391 66.3834 72.1309 66.1932 71.4867 66.1932C55.4901 66.2103 39.4909 66.2103 23.4888 66.1932C23.2396 66.1667 22.9878 66.2139 22.7693 66.3279C22.5508 66.442 22.3769 66.6171 22.2725 66.8282C18.9736 72.1779 11.0374 72.1573 7.71903 66.7948C7.62346 66.5961 7.46231 66.4306 7.25874 66.322C7.05517 66.2135 6.81967 66.1675 6.58609 66.1906C5.05882 66.224 3.53155 66.2112 2.00428 66.1906C0.635292 66.1906 0.0188209 65.6276 0.016044 64.3757C0.016044 60.5838 -0.020055 56.792 0.016044 53.0001C0.0447461 50.7502 0.832036 48.5647 2.26786 46.7492C3.70369 44.9337 5.71633 43.5788 8.02451 42.874C8.18369 42.812 8.34804 42.7621 8.51598 42.7249C11.5428 42.2878 13.9198 40.7762 16.2023 38.9818C19.3485 36.5088 22.6418 34.1951 25.8491 31.7838C28.1466 30.0349 31.0419 29.1007 34.0158 29.1487C53.5538 29.1693 73.0926 29.1693 92.6324 29.1487C94.2596 29.1487 94.5762 29.3492 95.1482 30.7812C96.6422 34.4753 98.15 38.1669 99.6106 41.8739C99.8427 42.473 99.9647 43.1039 99.9716 43.7403C100.011 46.6298 99.9911 49.4962 99.9911 52.3497ZM43.2627 63.08V32.3416H40.0111C40.0111 34.7633 40.0111 37.1078 40.0111 39.4523C40.0111 42.7274 37.9923 44.5938 34.4573 44.5938C28.7676 44.5938 23.0723 44.6838 17.388 44.5578C14.6163 44.4848 11.8547 44.8983 9.24908 45.7763C8.09113 46.1671 7.0276 46.8046 5.91685 47.3368L6.06126 47.6812C7.22476 47.6812 8.39102 47.6812 9.55452 47.6812C11.4261 47.6812 12.1037 48.7095 11.2679 50.2931C10.3071 52.0927 9.29351 53.8922 8.35494 55.7225C7.91342 56.5837 7.27196 56.9925 6.23342 56.9462C5.28096 56.9025 4.32572 56.9462 3.38715 56.9462V63.0646H6.60829C7.20253 58.5093 10.3015 55.5632 14.6084 55.4141C16.6407 55.3167 18.6394 55.9234 20.2149 57.1159C22.2503 58.6352 23.2083 60.6687 23.3666 63.0774L43.2627 63.08ZM46.7088 63.1212C50.813 63.1212 54.8006 63.1212 58.7909 63.1032C59.157 63.0729 59.5 62.9246 59.76 62.6842C63.581 59.1759 67.3871 55.6548 71.1784 52.1209C71.4133 51.9413 71.5749 51.6928 71.6366 51.4165C71.6727 49.1774 71.6588 46.9357 71.6588 44.6658H46.7088V63.1212ZM74.9994 32.2722V33.3982C74.9994 39.5037 74.9994 45.6092 75.0161 51.7122C75.0334 52.1102 74.9575 52.507 74.7936 52.8753C74.6296 53.2436 74.3816 53.5747 74.0664 53.8459C71.0118 56.6403 67.9573 59.4656 64.925 62.2805C64.6806 62.5093 64.4501 62.751 64.1363 63.0518H71.595C72.267 58.8511 74.7078 56.2007 78.4204 55.5966C80.2107 55.2759 82.0651 55.5108 83.6965 56.265C86.1457 57.3935 87.5647 59.2856 88.2394 61.7073C90.8969 61.2599 93.4544 60.8383 96.0146 60.3833C96.259 60.3396 96.6449 60.098 96.6505 59.9386C96.6977 58.4424 96.6783 56.9462 96.6783 55.3909C94.9927 55.3909 93.4349 55.4089 91.8771 55.3909C90.4887 55.3678 89.8028 54.5349 90.1332 53.2726C90.6303 51.3703 91.1496 49.4731 91.6744 47.5784C91.9771 46.4936 92.4574 46.1542 93.6654 46.1414C94.6595 46.1414 95.6508 46.1414 96.6366 46.1414V44.5989H95.4731C91.4828 44.5989 87.4924 44.5989 83.5021 44.5989C80.5225 44.5835 78.3844 42.604 78.3594 39.8559C78.3399 37.6399 78.3594 35.4239 78.3594 33.2054V32.2722H74.9994ZM71.6199 32.321H46.756V41.46H71.6199V32.321ZM95.9285 41.5038C94.6873 38.4446 93.5127 35.5396 92.3186 32.6449C92.2592 32.544 92.1749 32.4575 92.0726 32.3923C91.9704 32.3271 91.853 32.285 91.7299 32.2696C88.3977 32.2465 85.096 32.2542 81.6888 32.2542C81.6888 34.9329 81.65 37.5242 81.7083 40.113C81.7277 40.9485 82.3775 41.4832 83.2883 41.4909C87.4286 41.5269 91.5855 41.5269 95.923 41.5269L95.9285 41.5038ZM18.1184 41.5038C23.9692 41.5038 29.534 41.5192 35.096 41.4883C36.0846 41.4883 36.6538 40.8019 36.6677 39.7916C36.6899 38.3469 36.6677 36.9047 36.6677 35.4599V32.2722C35.8874 32.2722 35.2321 32.3056 34.5823 32.2722C31.8832 32.1128 29.584 32.9097 27.5236 34.5396C25.4187 36.2054 23.2028 37.753 21.0368 39.3546C20.1316 40.0076 19.2291 40.6811 18.1128 41.5114L18.1184 41.5038ZM15.0194 67.7485C16.0061 67.7454 16.9697 67.4721 17.7888 66.9629C18.608 66.4538 19.2461 65.7315 19.6226 64.8872C19.9992 64.0429 20.0974 63.1143 19.9049 62.2184C19.7124 61.3225 19.2378 60.4994 18.5409 59.8528C17.844 59.2062 16.9559 58.765 15.9886 58.5848C15.0213 58.4046 14.0181 58.4935 13.1053 58.8402C12.1925 59.187 11.4109 59.776 10.8591 60.5333C10.3073 61.2905 10.0099 62.182 10.0044 63.0955C10.0044 64.3277 10.5324 65.5097 11.4726 66.382C12.4127 67.2544 13.6883 67.7458 15.0194 67.7485ZM84.996 63.098C84.9915 62.1806 84.6925 61.2851 84.137 60.5253C83.5814 59.7655 82.7945 59.1758 81.8761 58.831C80.9577 58.4862 79.9493 58.402 78.9791 58.589C78.0088 58.776 77.1205 59.2257 76.4271 59.8811C75.7336 60.5366 75.2662 61.3681 75.0843 62.2699C74.9025 63.1718 75.0143 64.1034 75.4056 64.9464C75.7969 65.7893 76.4501 66.5055 77.2821 67.004C78.1141 67.5024 79.0874 67.7607 80.0783 67.7459C81.3926 67.723 82.6446 67.223 83.5645 66.3536C84.4844 65.4842 84.9985 64.315 84.996 63.098ZM3.38159 53.8665C3.80796 53.8887 4.23534 53.8887 4.66171 53.8665C5.04492 53.8228 5.60864 53.8099 5.75581 53.5888C6.31118 52.7328 6.74715 51.7893 7.28308 50.7919H6.31118C3.32051 50.7636 3.22608 50.8561 3.38159 53.8665ZM93.8153 52.2752H96.5922V49.2726H94.6179L93.8153 52.2752Z" fill="#66C61C"/>
        <path d="M35.0957 46.1542C35.6511 46.1542 36.2064 46.1182 36.7618 46.1542C37.1837 46.1727 37.5817 46.3408 37.8733 46.6237C38.1649 46.9065 38.3277 47.2825 38.3279 47.6735C38.3384 48.0651 38.1821 48.4448 37.8927 48.7305C37.6033 49.0163 37.204 49.1851 36.7812 49.2005C35.6038 49.2545 34.4209 49.2545 33.2435 49.2005C32.8224 49.1884 32.4231 49.0244 32.131 48.7433C31.8388 48.4623 31.677 48.0866 31.6801 47.6966C31.6702 47.3041 31.8258 46.9234 32.1141 46.6354C32.4024 46.3474 32.8006 46.1748 33.2241 46.1542C33.8433 46.1208 34.4709 46.1542 35.0957 46.1542Z" fill="#66C61C"/>
        <path d="M51.6463 49.2237C51.0576 49.2237 50.4634 49.2623 49.8774 49.2237C49.4549 49.2012 49.0582 49.0279 48.7708 48.7402C48.4834 48.4526 48.3277 48.073 48.3363 47.6813C48.3295 47.2891 48.4903 46.9103 48.7835 46.6273C49.0768 46.3442 49.4789 46.1798 49.9024 46.1697C51.0798 46.1208 52.2627 46.1183 53.4401 46.1697C53.8654 46.1857 54.2665 46.357 54.5558 46.646C54.8451 46.935 54.9991 47.3183 54.984 47.7121C54.9799 48.1026 54.816 48.477 54.5253 48.7599C54.2347 49.0428 53.8389 49.2132 53.4179 49.2366H53.2097H51.6463V49.2237Z" fill="#66C61C"/>
    </g>
    <defs>
        <clipPath id="clip0_1433_5608">
            <rect width="100" height="41.6667" fill="white" transform="translate(0 29.1667)"/>
        </clipPath>
    </defs>
</svg>
