<svg width="100" height="100" viewBox="0 0 100 100" fill="none" xmlns="http://www.w3.org/2000/svg">
    <mask id="mask0_1508_14866" style="mask-type:luminance" maskUnits="userSpaceOnUse" x="15" y="9" width="70" height="82">
        <path d="M84.0721 9.12427H15.9258V90.9493H84.0721V9.12427Z" fill="white"/>
    </mask>
    <g mask="url(#mask0_1508_14866)">
        <path d="M16.6087 57.3242C16.1941 57.7242 15.9746 58.2742 15.9502 58.8742C15.9502 59.4742 16.1697 60.0242 16.5599 60.4492C16.9502 60.8742 17.4868 61.1242 18.0477 61.1492C18.2916 61.1492 18.5355 61.1992 18.8038 61.2242L20.0721 61.3742L19.316 62.4242C18.6575 63.3492 18.0477 64.1492 17.4868 64.9742C16.5111 66.2992 15.9746 67.8992 15.9502 69.5492C15.9258 74.0742 15.9014 78.5492 15.9746 83.0492C15.999 84.9242 16.6819 86.7242 17.877 88.1492C19.0721 89.5742 20.7063 90.4992 22.4868 90.7742C23.9502 90.9992 25.438 90.9492 27.0233 90.9242C28.877 90.8992 30.6331 90.1492 31.9989 88.8492C33.7063 87.2492 34.5355 85.1992 34.6575 82.7742V82.0742H64.7794L64.8282 82.7742C64.8282 83.0492 64.8526 83.2242 64.877 83.3992V83.4242C65.2185 87.0242 67.6331 89.9992 70.9502 90.6992C72.2916 90.9992 73.7307 90.9492 75.2672 90.9492C77.7307 90.9492 79.7794 90.0742 81.2185 88.5742C82.6575 87.0742 83.5355 84.9492 83.5355 82.3992C83.5355 78.4492 83.5111 74.4492 83.5355 70.4742C83.6087 68.2992 82.9258 66.1742 81.6087 64.4742C81.0965 63.8242 80.6331 63.1242 80.1209 62.3992L79.3648 61.3242L80.6575 61.1992C80.7794 61.1992 80.8526 61.1992 80.9502 61.1742C81.0233 61.1742 81.0965 61.1742 81.1941 61.1742C81.9746 61.1492 82.5599 60.8742 82.9502 60.4742C83.3404 60.0742 83.5599 59.5492 83.5355 58.8992C83.5355 58.2492 83.2672 57.7242 82.8526 57.3492C82.438 56.9742 81.8282 56.7242 81.0477 56.7242C80.5599 56.7242 80.0233 56.6742 79.5843 56.6742C79.1209 56.6742 78.7063 56.6742 78.2916 56.7492C77.2428 56.9492 76.3892 56.7492 75.7063 56.1992C75.0477 55.6992 74.6331 54.9742 74.2916 54.2742C74.2185 54.1242 74.1209 53.8992 74.0477 53.7742C72.877 51.3242 71.7063 48.8992 70.5111 46.4742C69.7307 44.9242 68.755 43.7742 67.5599 43.0242C66.3648 42.2742 64.9502 41.8742 63.2672 41.8742C54.2185 41.8492 45.1697 41.8492 36.1209 41.8742C34.438 41.8742 33.0233 42.2742 31.8282 43.0492C30.6331 43.7992 29.6575 44.9492 28.877 46.4992C28.4136 47.4492 27.9502 48.3992 27.4868 49.3492C27.0233 50.2992 26.5599 51.2742 26.0721 52.2242C25.4624 53.4492 24.8038 54.6492 24.0721 55.8242L24.0477 55.8992C23.8526 56.1492 23.6087 56.3492 23.3404 56.4992C23.0721 56.6492 22.755 56.7242 22.4624 56.7492C21.0233 56.8242 19.4868 56.7492 18.1209 56.7742C17.5599 56.7742 16.999 56.9992 16.6087 57.3992V57.3242ZM28.2429 57.7742L32.7307 48.4992C33.0233 47.7992 33.5355 47.2242 34.1697 46.8242C34.8038 46.4242 35.5355 46.2242 36.2672 46.2742C36.2672 46.2742 36.2916 46.2742 36.316 46.2742H63.2429C63.9989 46.2742 64.6819 46.4242 65.2916 46.7992C65.9014 47.1742 66.3892 47.7242 66.7307 48.4242C68.1941 51.4242 69.6575 54.4492 71.1209 57.5242L71.3404 57.9992L70.9746 58.3742C70.1941 59.1992 69.1209 59.6742 67.9746 59.6742C55.8038 59.6742 43.6331 59.6742 31.4624 59.6492C30.9258 59.6492 30.4136 59.4992 29.9502 59.3242C29.4624 59.1492 29.0965 58.9742 28.6575 58.8492L27.8282 58.5992L28.2185 57.7992L28.2429 57.7742ZM20.2429 69.8492C20.2429 69.2242 20.3892 68.5992 20.7063 68.0492V67.9992C22.0233 66.0492 23.438 64.1242 24.6331 62.4492L24.9502 61.9992L25.4624 62.1992C27.2185 62.8742 28.755 63.4992 30.316 64.0492C30.4868 64.0992 30.6819 64.1242 30.9258 64.1242C31.2185 64.1242 31.4136 64.1242 31.7794 64.1242C43.0965 64.1242 54.438 64.0992 65.7794 64.1492C68.7063 64.1492 71.2916 64.0242 73.4867 62.0242L74.0965 61.4742L74.5599 62.1492C75.9989 64.1742 77.3892 66.1242 78.7307 68.1242C79.1453 68.7492 79.1941 69.5992 79.1941 70.1492C79.1941 74.2742 79.1941 78.3992 79.1941 82.5242C79.1941 83.6742 78.8526 84.6992 78.1453 85.4242C77.438 86.1492 76.4624 86.4992 75.316 86.4992C74.4867 86.4992 73.6331 86.4992 72.7794 86.4992C71.7307 86.4992 70.8282 86.0992 70.1453 85.3992C69.4868 84.7242 69.0965 83.7742 69.0965 82.6992C69.0965 81.7242 69.0965 80.7742 69.0965 79.8242C69.0721 78.4742 68.1697 77.5742 66.9014 77.5742C55.4136 77.5742 43.9502 77.5742 32.4624 77.5742C31.7794 77.5742 31.2429 77.8242 30.877 78.1992C30.5111 78.5992 30.2672 79.1742 30.2672 79.8992C30.2672 80.8242 30.2916 81.7992 30.2672 82.7742C30.2672 83.2492 30.1697 83.7242 29.999 84.1742C29.8282 84.6242 29.5599 85.0242 29.2185 85.3742C28.877 85.7242 28.4868 85.9992 28.0477 86.1742C27.6087 86.3492 27.1453 86.4492 26.6819 86.4492C25.7063 86.4742 24.755 86.4492 23.7794 86.4492C21.7794 86.3992 20.1941 84.8742 20.1941 82.7492C20.1697 78.4492 20.1697 74.1242 20.1941 69.7992L20.2429 69.8492Z" fill="#66C61C"/>
        <path d="M80.682 23.1991C80.682 21.8741 80.1455 20.5241 79.0235 19.3241C78.2918 18.5491 77.4137 17.6991 76.682 16.8741C75.4869 15.5741 74.0967 14.9991 72.3162 14.9991C63.1455 14.9991 53.9747 14.9991 44.804 14.9991C44.4381 14.9991 44.0723 14.9491 43.7308 14.7991C43.3894 14.6491 43.0967 14.3991 42.8772 14.0991C39.1942 9.62413 33.4137 7.99913 27.9503 9.92413C25.9747 10.6491 24.1699 11.8241 22.7065 13.3741C21.2431 14.9241 20.1455 16.7991 19.487 18.8741C18.8284 20.9491 18.6577 23.1241 18.9504 25.274C19.2431 27.424 20.0236 29.474 21.2187 31.249C22.4138 33.024 23.9992 34.499 25.8284 35.549C27.6576 36.599 29.7064 37.199 31.804 37.299C33.9016 37.399 35.9747 36.999 37.9016 36.124C39.8284 35.249 41.5113 33.924 42.8528 32.249C43.0723 31.974 43.3406 31.724 43.6577 31.574C43.9747 31.424 44.3406 31.349 44.682 31.374C44.682 31.374 44.682 31.374 44.7064 31.374H58.7064C63.2918 31.374 67.8772 31.374 72.4625 31.374C73.1942 31.374 73.9259 31.249 74.6089 30.949C75.2918 30.649 75.9016 30.224 76.4137 29.674C76.8284 29.224 77.2674 28.774 77.7064 28.349C78.1211 27.924 78.5601 27.474 78.9747 27.049C80.0967 25.849 80.6333 24.4991 80.6333 23.1991H80.682ZM76.4869 23.1991V24.9741L75.7552 24.2491C74.9503 25.049 74.2186 25.774 73.4625 26.499L73.4137 26.549H73.365C73.0967 26.774 72.804 26.874 72.4869 26.924C72.3406 26.924 72.1942 26.924 72.0235 26.924H67.0967H66.5601L66.4137 26.374C66.1455 25.399 65.7796 24.7741 65.4137 24.4241C65.0723 24.0741 64.6333 23.9241 64.0723 23.9241C63.4869 23.9241 63.0723 24.1241 62.7552 24.4491C62.4137 24.7991 62.0967 25.374 61.9016 26.274L61.7552 26.849H55.4869L55.2674 26.524C54.9747 26.074 54.682 25.574 54.4625 25.224C54.2186 24.8241 53.9991 24.5241 53.7308 24.2741C53.6576 24.1991 53.4869 24.0991 53.243 24.0241C52.9991 23.9491 52.7308 23.9241 52.4869 23.9241C51.9503 23.9241 51.5357 24.0991 51.2186 24.4491C50.8772 24.8241 50.5845 25.399 50.4137 26.274L50.2918 26.874H49.7064C47.5357 26.874 45.2918 26.924 43.0479 26.874C42.3894 26.874 41.8772 26.974 41.4381 27.199C41.0235 27.424 40.6333 27.824 40.2674 28.424C39.1698 30.199 37.5601 31.574 35.6333 32.274C33.7064 32.999 31.6333 33.049 29.682 32.399C27.7308 31.749 26.0235 30.474 24.8528 28.749C23.6577 27.024 23.0479 24.9491 23.1211 22.8241C23.1699 20.7491 23.8772 18.7241 25.1211 17.0991C26.365 15.4741 28.0967 14.2991 30.0479 13.7741C31.9503 13.2241 33.9503 13.3241 35.804 14.0741C37.6333 14.7991 39.1942 16.1241 40.2674 17.8491C40.6333 18.4491 40.9991 18.8241 41.4381 19.0741C41.8528 19.2991 42.365 19.4241 43.0479 19.4241C52.6577 19.3991 62.2918 19.4241 71.9259 19.3991C72.2918 19.3991 72.682 19.4491 73.0235 19.5991C73.3894 19.7491 73.682 19.9991 73.9503 20.2741C74.4869 20.8741 75.0723 21.4241 75.7552 22.0991L76.4869 21.3491V23.1491V23.1991Z" fill="#66C61C"/>
        <path d="M28.1222 67.8743C28.6832 67.8743 29.2442 68.0243 29.732 68.3493C30.2198 68.6743 30.5857 69.1243 30.8052 69.6743C31.0247 70.2243 31.0978 70.8243 30.9759 71.3993C30.8783 71.9743 30.61 72.5243 30.1954 72.9243C29.8052 73.3493 29.293 73.6243 28.732 73.7493C28.171 73.8743 27.5857 73.7993 27.0735 73.5993C26.5369 73.3743 26.0978 72.9993 25.7808 72.4993C25.4637 71.9993 25.293 71.4243 25.293 70.8493C25.293 70.0743 25.5857 69.3243 26.1222 68.7743C26.6588 68.2243 27.3661 67.8993 28.1222 67.8743Z" fill="#66C61C"/>
        <path d="M71.3155 73.8244C70.7545 73.8244 70.1936 73.6494 69.7058 73.2994C69.2424 72.9744 68.8765 72.4994 68.657 71.9494C68.4375 71.3994 68.3887 70.7994 68.5106 70.2244C68.6326 69.6494 68.9009 69.1244 69.3155 68.6994C69.7302 68.2994 70.2424 67.9994 70.8033 67.8994C71.3643 67.7994 71.9497 67.8494 72.4619 68.0994C72.9741 68.3244 73.4375 68.7244 73.7302 69.2244C74.0472 69.7244 74.1936 70.2994 74.1936 70.8994C74.1936 71.6744 73.8521 72.4244 73.3155 72.9744C72.7789 73.5244 72.0472 73.8244 71.2911 73.8244H71.3155Z" fill="#66C61C"/>
    </g>
</svg>
