<svg width="100" height="100" viewBox="0 0 100 100" fill="none" xmlns="http://www.w3.org/2000/svg">
    <g clip-path="url(#clip0_1433_5631)">
        <path d="M0.00259018 55.8375C0.0676944 55.6669 0.140608 55.5011 0.195296 55.328C1.09113 52.4562 3.37239 50.8311 6.55468 50.8311C17.2891 50.8311 28.0234 50.8311 38.7578 50.8311H73.2682V49.6463C73.2682 43.8054 73.2682 37.9654 73.2682 32.1263C73.2682 28.0523 75.8464 25.6035 80.125 25.6011H86.5651C90.1042 25.6011 92.5885 27.194 93.9687 30.2414C95.7682 34.1991 97.4635 38.2136 99.2057 42.2009C99.4661 42.7921 99.7265 43.3784 99.987 43.9671V63.2606C99.6719 63.7182 99.388 64.1981 99.0365 64.626C97.474 66.5331 95.349 67.0426 92.9453 66.8002C92.1484 66.7186 91.7682 66.1992 91.7396 65.4571C91.7109 64.715 92 64.1684 92.7812 63.973C93.1956 63.8972 93.6171 63.8624 94.039 63.8691C95.862 63.8073 97.0964 62.6768 97.1823 60.9652C97.2109 60.3888 97.1823 59.8076 97.1823 59.1743C94.6563 59.4885 92.4375 59.0136 90.6953 57.3538C90.0619 56.7435 89.6324 55.969 89.4609 55.1276C89.0365 52.6937 90.8281 50.7519 93.4323 50.6604C94.6276 50.6184 95.8281 50.6604 97.1745 50.6604C97.0234 48.3427 97.6302 45.9088 96.6172 43.5614C94.8915 39.5642 93.164 35.5669 91.4349 31.5697C90.4583 29.3163 89.0286 28.4011 86.487 28.3962C84.3411 28.3962 82.1936 28.3962 80.0443 28.3962C77.8125 28.3962 76.5469 29.6156 76.5469 31.7453C76.5469 38.2969 76.5469 44.8501 76.5469 51.405C76.5469 53.2947 76.2057 53.6311 74.2396 53.6311H7.08591C4.23695 53.6311 3.12759 54.6849 3.12759 57.381C3.12759 58.6178 3.11197 59.8545 3.12759 61.0913C3.12046 61.4786 3.19581 61.8633 3.34913 62.2222C3.50244 62.5811 3.73055 62.9069 4.01975 63.18C4.30896 63.453 4.6533 63.6678 5.03208 63.8113C5.41086 63.9548 5.81626 64.0241 6.22395 64.015C7.85155 64.0373 9.47915 64.015 11.1042 64.015C12.3281 64.015 12.9271 64.5097 12.9271 65.4794C12.9453 66.5405 12.2969 67.1317 11.0677 67.1391C9.50519 67.1391 7.94269 67.1391 6.38019 67.1391C3.21353 67.1243 1.04164 65.5561 0.151014 62.6472C0.105047 62.5326 0.0493342 62.4217 -0.015625 62.3157L0.00259018 55.8375ZM94.7552 53.6361V53.6509C94.3021 53.6509 93.8177 53.5569 93.401 53.6781C93.2094 53.7336 93.0313 53.825 92.8775 53.947C92.7236 54.0689 92.597 54.2189 92.5052 54.388C92.4114 54.6181 92.6536 55.1647 92.9036 55.2884C93.7139 55.7181 94.5773 56.0505 95.4739 56.2778C96.3724 56.4807 96.8307 56.0453 96.8776 55.2043C96.9375 54.0838 96.6172 53.6806 95.6328 53.6386C95.3411 53.6237 95.0547 53.6361 94.7552 53.6361Z" fill="#66C61C"/>
        <path d="M24.3696 75.0002C22.4248 74.9987 20.5243 74.4489 18.9088 73.4205C17.2933 72.3921 16.0355 70.9313 15.2949 69.2233C14.5543 67.5153 14.3641 65.6369 14.7484 63.8261C15.1328 62.0153 16.0744 60.3536 17.4539 59.0516C18.8335 57.7496 20.5889 56.8658 22.4977 56.5123C24.4066 56.1588 26.3829 56.3514 28.1764 57.0658C29.9698 57.7802 31.4997 58.9841 32.5721 60.5251C33.6445 62.0661 34.2112 63.8748 34.2004 65.722C34.1969 66.9445 33.9399 68.1544 33.4439 69.2825C32.9478 70.4106 32.2226 71.4347 31.3096 72.2964C30.3966 73.1581 29.3137 73.8404 28.1229 74.3044C26.9321 74.7683 25.6567 75.0047 24.3696 75.0002ZM24.3983 72.0319C26.1745 71.9991 27.8669 71.3081 29.1143 70.1066C30.3618 68.9051 31.0655 67.2882 31.0754 65.6008C31.0783 64.7644 30.9053 63.9359 30.5664 63.1639C30.2275 62.3919 29.7297 61.6921 29.1021 61.1054C28.4745 60.5187 27.7298 60.0571 26.9117 59.7476C26.0937 59.4381 25.2188 59.287 24.3384 59.3031C20.7446 59.3328 17.6743 62.2467 17.6561 65.6453C17.6379 69.0439 20.7785 72.0418 24.3983 72.0295V72.0319Z" fill="#66C61C"/>
        <path d="M80.0235 56.3395C81.9641 56.3493 83.8581 56.9048 85.4666 57.936C87.0751 58.9671 88.326 60.4276 89.0615 62.1333C89.797 63.8391 89.9841 65.7134 89.5992 67.52C89.2143 69.3267 88.2747 70.9845 86.8989 72.2844C85.5231 73.5843 83.7728 74.468 81.8687 74.824C79.9647 75.1801 77.9923 74.9924 76.2004 74.2848C74.4086 73.5772 72.8775 72.3813 71.8005 70.8481C70.7234 69.3148 70.1486 67.5129 70.1485 65.6697C70.1429 64.4388 70.3949 63.2191 70.8899 62.0815C71.3848 60.9439 72.1128 59.911 73.0316 59.0429C73.9504 58.1748 75.0416 57.4888 76.2419 57.0247C77.4422 56.5606 78.7277 56.3277 80.0235 56.3395ZM80.0235 72.0316C83.6433 72.0143 86.7214 69.0634 86.711 65.6004C86.711 61.9569 83.8829 59.3004 80.0313 59.3004C76.3985 59.3004 73.2605 62.2414 73.2605 65.6573C73.2605 69.0733 76.422 72.0465 80.0288 72.0316H80.0235Z" fill="#66C61C"/>
        <path d="M88.8255 46.6856C87.4245 46.6856 86.026 46.7054 84.6276 46.6856C81.7187 46.6361 79.8854 44.8774 79.8698 42.1318C79.8559 39.9996 79.8559 37.8674 79.8698 35.7353C79.888 33.1282 81.6693 31.3472 84.3906 31.2433C85.625 31.1963 86.8646 31.2112 88.099 31.2433C89.2396 31.2681 89.8333 31.7925 89.8463 32.7077C89.8594 33.6229 89.2422 34.1769 88.0443 34.1918C86.9375 34.2091 85.8307 34.1918 84.7265 34.1918C83.4245 34.214 82.9974 34.6469 82.9948 35.906C82.9948 37.9474 82.9948 39.9873 82.9948 42.0255C82.9948 43.2622 83.4531 43.6976 84.763 43.705C87.6276 43.7198 90.4922 43.705 93.3567 43.705C94.4739 43.705 95.0104 44.0983 95.1302 44.9145C95.2786 45.9361 94.6823 46.6213 93.513 46.646C91.9505 46.6881 90.388 46.646 88.8255 46.646V46.6856Z" fill="#66C61C"/>
        <path d="M52.35 67.154C47.5062 67.154 42.6624 67.1762 37.8213 67.1218C37.5123 67.1116 37.2085 67.0433 36.9274 66.9211C36.6462 66.7988 36.3934 66.6249 36.1833 66.4094C35.4906 65.5511 36.1833 64.344 37.3057 64.2006C37.4996 64.1832 37.6944 64.1783 37.889 64.1857H66.6729C67.889 64.1857 68.4958 64.5963 68.5791 65.467C68.6937 66.5183 68.0583 67.1441 66.8005 67.1465C62.2137 67.1564 57.6295 67.1564 53.0479 67.1465L52.35 67.154Z" fill="#66C61C"/>
        <path d="M79.8753 51.5709C79.8753 51.1083 79.8545 50.6433 79.8753 50.1808C79.9248 49.2977 80.456 48.7981 81.331 48.7659C82.2607 48.7338 82.8935 49.2161 82.9612 50.1214C83.0224 51.0761 83.0224 52.0335 82.9612 52.9882C82.9039 53.8985 82.2737 54.3883 81.3466 54.361C80.4195 54.3338 79.9091 53.8094 79.8675 52.8769C79.8492 52.4441 79.8675 52.0112 79.8675 51.5808L79.8753 51.5709Z" fill="#66C61C"/>
        <path d="M50.401 35.0673C49.651 35.0673 48.8906 34.9783 48.1589 35.0846C46.5365 35.332 45.263 34.7853 44.0677 33.7885C42.6979 32.6507 41.2474 31.5969 39.8151 30.5308C37.4349 28.7598 34.75 28.0276 31.7109 28.1686C28.062 28.2913 24.4821 29.1488 21.2083 30.6842C18.7734 31.8468 16.289 32.9376 13.7552 33.8998C12.7448 34.2807 11.5443 34.2832 10.4271 34.3253C9.54688 34.3599 9.04426 34.5726 8.88541 35.4829C8.64061 36.873 8.388 38.2359 7.11456 39.2699C6.33331 39.8981 7.04426 41.8547 8.0052 42.196C9.58853 42.7575 11.1745 43.3091 12.7526 43.8805C13.8984 44.2936 14.3932 45.095 14.0547 45.9237C13.7239 46.7127 12.8229 46.9601 11.7318 46.5717C10.1484 46.0111 8.56424 45.4529 6.97917 44.8971C5.20573 44.2713 4.05469 43.1657 4.04688 41.2784C4.04688 40.2395 4.08594 39.1981 4.17969 38.1642C4.23111 37.8548 4.40422 37.5754 4.66406 37.3825C5.70573 36.6405 5.80727 35.5101 6.04686 34.444C6.50259 32.4132 7.77082 31.2135 9.95311 31.2828C11.9375 31.3471 13.6224 30.7386 15.3385 29.9768C18.1042 28.74 20.8281 27.387 23.7005 26.4372C27.7604 25.094 31.9948 24.5672 36.2812 25.4205C39.1719 25.9944 41.4245 27.7234 43.6745 29.4128C44.237 29.8333 44.8672 30.2044 45.3255 30.7114C46.4531 31.9482 47.8333 32.1708 49.4922 32.104C55.2734 31.874 60.8958 32.5987 66.2526 34.8546C68.6927 35.8861 69.9635 37.432 69.7213 40.0267C69.6302 41.0161 69.7396 42.0056 69.6979 42.995C69.5911 45.5056 67.4505 47.153 64.3984 46.5989C63.5599 46.4456 63.2448 45.8272 63.3047 45.0678C63.3029 44.738 63.4322 44.4197 63.6669 44.1767C63.9016 43.9336 64.2242 43.7836 64.5703 43.7568C66.4114 43.4823 66.4115 43.4773 66.4115 41.7013C66.3697 41.1156 66.3749 40.5276 66.4271 39.9426C66.625 38.743 66.0026 38.184 64.9271 37.7165C60.3047 35.6857 55.4401 34.9412 50.401 35.0673Z" fill="#66C61C"/>
        <path d="M62.9453 43.9917C62.9463 45.2504 62.5541 46.481 61.8184 47.5278C61.0826 48.5745 60.0364 49.3904 58.8122 49.8721C57.5879 50.3537 56.2408 50.4795 54.9412 50.2335C53.6417 49.9874 52.4483 49.3807 51.512 48.49C50.5758 47.5993 49.9388 46.4648 49.6818 45.23C49.4248 43.9953 49.5593 42.7159 50.0683 41.5539C50.5773 40.3918 51.4379 39.3993 52.5411 38.7021C53.6443 38.0049 54.9405 37.6343 56.2656 37.6372C57.1446 37.6343 58.0154 37.7967 58.8279 38.1151C59.6404 38.4336 60.3785 38.9017 60.9995 39.4925C61.6205 40.0832 62.1122 40.785 62.4462 41.5572C62.7801 42.3295 62.9498 43.1569 62.9453 43.9917ZM52.6797 44.014C52.6833 44.6846 52.8962 45.3391 53.2913 45.8948C53.6865 46.4506 54.2463 46.8825 54.8999 47.1361C55.5535 47.3896 56.2716 47.4535 56.9634 47.3195C57.6552 47.1855 58.2896 46.8596 58.7865 46.3832C59.2833 45.9068 59.6203 45.3011 59.7548 44.6428C59.8894 43.9845 59.8154 43.303 59.5422 42.6846C59.2691 42.0663 58.809 41.5387 58.2203 41.1686C57.6315 40.7985 56.9404 40.6026 56.2344 40.6055C55.7618 40.5955 55.2921 40.6771 54.8538 40.8453C54.4156 41.0135 54.018 41.2647 53.6853 41.5837C53.3527 41.9026 53.092 42.2826 52.9191 42.7005C52.7462 43.1183 52.6647 43.5653 52.6797 44.014Z" fill="#66C61C"/>
        <path d="M14.2423 44.0362C14.2323 42.3457 14.9297 40.7206 16.1812 39.5184C17.4326 38.3163 19.1356 37.6356 20.9155 37.6261C22.6953 37.6166 24.4062 38.279 25.6719 39.4677C26.9375 40.6564 27.6541 42.2739 27.6641 43.9645C27.6691 44.8016 27.5004 45.6314 27.1678 46.4066C26.8351 47.1817 26.3449 47.8871 25.7253 48.4823C25.1056 49.0776 24.3686 49.551 23.5563 49.8757C22.7439 50.2004 21.8723 50.37 20.991 50.3747C20.1097 50.3794 19.236 50.2192 18.4199 49.9032C17.6038 49.5872 16.8613 49.1216 16.2346 48.5331C15.6079 47.9445 15.1094 47.2444 14.7676 46.4729C14.4257 45.7013 14.2473 44.8733 14.2423 44.0362ZM17.3673 43.9769C17.3533 44.4263 17.4348 44.8737 17.6071 45.2925C17.7795 45.7112 18.039 46.0926 18.3701 46.4139C18.7013 46.7351 19.0973 46.9896 19.5344 47.162C19.9716 47.3345 20.4408 47.4214 20.9142 47.4175C21.3876 47.4248 21.8578 47.3424 22.2973 47.1751C22.7368 47.0079 23.1368 46.7591 23.4741 46.4434C23.8113 46.1278 24.0789 45.7514 24.2613 45.3364C24.4437 44.9214 24.5373 44.4761 24.5365 44.0263C24.5471 43.5769 24.4622 43.13 24.2869 42.7124C24.1116 42.2948 23.8495 41.915 23.5163 41.5957C23.183 41.2764 22.7855 41.0242 22.3474 40.8541C21.9093 40.6839 21.4395 40.5994 20.9662 40.6055C20.4937 40.5906 20.0229 40.6673 19.5826 40.8309C19.1423 40.9945 18.7417 41.2415 18.4052 41.557C18.0687 41.8724 17.8034 42.2497 17.6254 42.6657C17.4474 43.0818 17.3604 43.5279 17.3699 43.9769H17.3673Z" fill="#66C61C"/>
        <path d="M38.7762 44.4617C41.7684 44.4617 44.7658 44.4617 47.7554 44.4617C48.8622 44.4617 49.3804 44.8574 49.5054 45.6984C49.5485 45.8885 49.5493 46.085 49.5075 46.2753C49.4657 46.4656 49.3824 46.6454 49.2629 46.8033C49.1433 46.9611 48.9903 47.0933 48.8136 47.1914C48.637 47.2896 48.4406 47.3514 48.2372 47.373C47.9476 47.4143 47.6548 47.4308 47.3622 47.4225C41.5705 47.4225 35.7789 47.4225 29.9872 47.4225C29.4664 47.4225 28.7346 47.3854 28.4455 47.0762C28.0735 46.6082 27.8988 46.0251 27.9559 45.4412C28.034 44.6843 28.758 44.4716 29.5028 44.4716L38.7762 44.4617Z" fill="#66C61C"/>
    </g>
    <defs>
        <clipPath id="clip0_1433_5631">
            <rect width="100" height="50" fill="white" transform="translate(0 25)"/>
        </clipPath>
    </defs>
</svg>
