<svg width="100" height="100" viewBox="0 0 100 100" fill="none" xmlns="http://www.w3.org/2000/svg">
    <g clip-path="url(#clip0_1433_5621)">
        <path d="M15.0092 61.1915V59.3444H12.77C11.1688 59.3444 9.56752 59.3734 7.96629 59.3233C7.12812 59.2953 6.32092 58.9773 5.66549 58.417C5.01006 57.8566 4.54163 57.084 4.33027 56.2147C4.08571 55.355 4.11164 54.4329 4.40406 53.5904C4.69649 52.748 5.2392 52.0318 5.94873 51.552C6.56212 51.143 6.74443 50.7076 6.73211 49.9687C6.69023 47.6281 6.70993 45.2822 6.71732 42.9389C6.71732 40.4875 7.98351 39.1391 10.2523 39.1232H11.9299C11.9299 36.9964 11.9447 34.9302 11.9053 32.864C11.9053 32.6793 11.59 32.4233 11.3707 32.3362C10.3361 31.9193 9.27929 31.5631 8.23726 31.1646C7.13365 30.745 6.77645 30.0246 7.12872 28.8689C7.59677 27.3331 8.08946 25.8061 8.60678 24.2879C8.98368 23.169 9.65126 22.8234 10.7155 23.2034C12.7289 23.9246 14.7358 24.6617 16.7361 25.4147C18.9014 26.2274 19.776 27.5257 19.7908 30.0088C19.8055 32.6476 19.7908 35.2864 19.7908 37.9252V39.0573H28.8044V37.9674C28.8044 33.346 28.8044 28.7255 28.8044 24.1058C28.8044 19.509 31.4329 16.6829 35.702 16.6776C39.2149 16.6776 42.7253 16.6776 46.2357 16.6776C49.5982 16.6618 51.9927 18.2925 53.4806 21.4908C54.7296 24.1744 55.9563 26.8686 57.193 29.5602C57.3285 29.8505 57.4738 30.1381 57.6463 30.497C57.8926 30.2727 58.1217 30.1012 58.3212 29.9085C60.7108 27.626 63.1101 25.3513 65.4652 23.0476C65.822 22.6874 66.091 22.2389 66.2486 21.7414C66.71 20.2382 67.6424 18.952 68.8878 18.1008C70.1332 17.2496 71.6149 16.8857 73.0821 17.0708C76.0037 17.3848 78.2923 19.8758 78.7258 23.0741C78.8651 24.1385 79.1428 25.1769 79.5511 26.1588C82.4497 32.9616 85.3853 39.7477 88.3578 46.5172C88.842 47.5778 89.4318 48.5793 90.1167 49.5043C91.4544 51.3514 92.8782 53.1353 94.2627 54.9481C96.2334 57.5104 96.3591 60.2732 94.6741 63.0703C94.1567 63.928 93.6443 64.7935 93.0975 65.63C90.8016 69.1422 86.6408 70.2584 83.1132 68.2319C79.455 66.1208 75.8362 63.9438 72.2051 61.7826C71.2543 61.2179 70.9537 60.3313 71.3823 59.4921C71.811 58.653 72.6289 58.463 73.6216 59.0039C75.4199 59.9882 75.4199 59.9882 76.8388 58.4762C78.5386 56.658 80.231 54.8294 81.9406 53.0218C82.2781 52.6656 82.4678 52.399 82.1623 51.8581C78.5197 45.393 74.8895 38.9209 71.2715 32.4418C71.1511 32.2874 71.0228 32.1403 70.8872 32.0011C70.8319 32.2064 70.7489 32.402 70.6408 32.5816C66.9358 37.0465 63.2235 41.5034 59.5037 45.9524C59.0578 46.4802 58.8263 47.0079 58.8977 47.7178C58.9248 48.0796 58.9248 48.4432 58.8977 48.805C58.8361 50.0611 58.8509 51.114 60.1097 51.9716C61.4498 52.8714 61.7503 54.927 61.201 56.5367C60.9334 57.3341 60.4479 58.0268 59.8078 58.5248C59.1677 59.0227 58.4025 59.3027 57.6118 59.3285C56.3259 59.3681 55.04 59.3285 53.6925 59.3285V61.2179C55.9736 61.6691 57.9887 62.6745 59.5628 64.5032C62.5337 67.9548 63.3639 71.9737 61.7331 76.3145C60.1023 80.6553 56.9688 83.1595 52.5716 83.2519C45.3661 83.4049 38.1581 83.3073 30.9501 83.3126C26.2055 83.3126 21.4634 83.3337 16.7188 83.3126C11.5678 83.2835 7.33809 79.6737 6.37243 74.5412C5.80403 71.6991 6.30068 68.7316 7.75537 66.2779C9.21006 63.8243 11.5064 62.0811 14.1495 61.4237L15.0092 61.1915ZM32.7607 56.1778H56.5993C56.9072 56.1778 57.2792 56.286 57.5083 56.1382C57.8852 55.8981 58.4025 55.5075 58.4272 55.146C58.4518 54.7845 58.0232 54.1538 57.6684 54.0192C56.1066 53.4282 55.9588 53.2909 55.9588 51.515C55.9588 46.0026 55.9588 40.4928 55.9588 34.983C55.9662 34.4608 55.8679 33.9432 55.6706 33.4657C54.094 29.964 52.4681 26.4886 50.8792 22.9922C49.9185 20.8812 48.4158 19.8257 46.1815 19.8442C42.7327 19.8864 39.2839 19.9523 35.8351 19.8257C33.1253 19.7254 31.7039 21.6728 31.7433 24.2008C31.8246 29.5127 31.7704 34.8273 31.7655 40.1392C31.7655 41.8438 31.3319 42.2951 29.7282 42.2951C23.3529 42.2951 16.9775 42.3109 10.6021 42.2792C9.86312 42.2792 9.65865 42.5088 9.67097 43.2846C9.70792 46.0554 9.68576 48.8261 9.68576 51.5995C9.68576 53.291 9.51331 53.4467 7.98599 54.0166C7.62879 54.1486 7.19276 54.766 7.21247 55.1328C7.23218 55.4996 7.74458 55.8928 8.11902 56.1382C8.34566 56.286 8.72009 56.1778 9.02801 56.1778H32.7607ZM34.3841 80.1513H41.7744C45.408 80.1513 49.0415 80.2252 52.6701 80.1038C56.8358 79.9666 60.0851 75.6838 59.5012 71.2929C58.9469 67.1051 55.9317 64.2868 51.9336 64.2815C42.6382 64.2657 33.3429 64.2657 24.0475 64.2815C21.5225 64.2815 18.9975 64.2472 16.475 64.2815C14.5442 64.2958 12.6954 65.1188 11.3239 66.5746C9.95241 68.0304 9.16727 70.0033 9.13642 72.0713C9.08223 76.6153 12.3093 80.1144 16.6572 80.1381C22.5646 80.1619 28.4743 80.1381 34.3841 80.1381V80.1513ZM78.1716 61.7377C80.4921 63.0782 82.8102 64.5797 85.2564 65.7804C87.0966 66.6829 89.2964 65.8305 90.5158 64.0546C91.208 63.0466 91.8386 61.9884 92.4422 60.9144C93.0457 59.8404 93.1172 58.6503 92.4077 57.6476C90.9001 55.5366 89.2915 53.4889 87.7568 51.457L78.1716 61.7377ZM73.8162 30.8269C77.3635 37.16 80.9601 43.6145 84.5912 50.0769C86.0471 48.7918 86.0471 48.7918 85.3303 47.132C83.7783 43.5485 82.2272 39.9641 80.6768 36.3789C79.5437 33.7612 78.408 31.1435 77.3069 28.605L73.8162 30.8269ZM66.2289 26.5889C63.9453 28.7738 61.5483 31.0459 59.1933 33.3548C58.9913 33.5527 58.9297 34.0013 58.9273 34.3338C58.9051 36.5741 58.9125 38.8198 58.9273 41.0601C58.9464 41.3154 58.9801 41.5692 59.0282 41.8201L68.8819 29.9666C67.9508 28.7659 67.1108 27.6946 66.2289 26.5757V26.5889ZM18.0639 61.0279H50.6255V59.3866H18.0639V61.0279ZM72.3185 20.1951C71.8634 20.1999 71.4137 20.3008 70.995 20.4919C70.5764 20.683 70.197 20.9605 69.8785 21.3088C69.56 21.657 69.3088 22.0691 69.1391 22.5214C68.9693 22.9737 68.8845 23.4574 68.8893 23.9448C68.8978 24.9281 69.2707 25.8676 69.9257 26.5564C70.5808 27.2453 71.4646 27.6272 72.3825 27.6181C73.3004 27.609 74.1774 27.2096 74.8205 26.5079C75.4636 25.8062 75.8201 24.8595 75.8116 23.8762C75.8038 22.892 75.4314 21.9513 74.7764 21.2611C74.1214 20.5708 73.2373 20.1874 72.3185 20.1951ZM10.3583 28.5601C11.4471 28.9718 12.4719 29.4045 13.5238 29.7449C14.4919 30.0589 14.9353 30.6817 14.9009 31.7742C14.8614 32.9933 14.9009 34.2124 14.9009 35.4342V39.052H16.8149C16.8149 35.8353 16.8346 32.6766 16.7854 29.518C16.7526 29.3177 16.6771 29.1282 16.5647 28.9644C16.4524 28.8005 16.3061 28.6666 16.1375 28.5733C14.4549 27.8819 12.7404 27.2803 10.9643 26.6232L10.3583 28.5601Z" fill="#66C61C"/>
        <path d="M43.5037 35.025C41.0403 35.025 38.5768 35.025 36.1134 35.025C34.6501 35.025 34.1574 34.4972 34.1427 32.9615C34.1295 30.1274 34.1295 27.2924 34.1427 24.4566C34.1427 22.9551 34.6354 22.4247 36.0223 22.4194C39.407 22.4194 42.7893 22.4379 46.1716 22.4194C47.3614 22.4194 48.1423 22.9472 48.6547 24.0713C49.9086 26.8579 51.2068 29.6128 52.4706 32.402C53.1727 33.951 52.5667 35.0171 50.958 35.0408C48.4872 35.0408 45.9942 35.025 43.5037 35.025ZM48.9232 31.7898C48.0044 29.7817 47.1471 27.858 46.2283 25.9686C46.1199 25.7443 45.6814 25.6018 45.3932 25.5992C43.3313 25.5675 41.2669 25.5834 39.205 25.5834H37.1727V31.7898H48.9232Z" fill="#66C61C"/>
        <path d="M15.8167 47.2217C15.8167 47.7495 15.8438 48.2773 15.8167 48.805C15.8103 49.2068 15.657 49.5899 15.3899 49.8721C15.1228 50.1543 14.7631 50.3131 14.3879 50.3144C13.5774 50.2959 12.9911 49.8183 12.9098 48.966C12.8113 47.8161 12.8113 46.659 12.9098 45.5091C12.9887 44.6647 13.5701 44.1898 14.4027 44.2188C15.2353 44.2478 15.7059 44.7729 15.7921 45.6411C15.818 46.1685 15.818 46.697 15.7921 47.2244L15.8167 47.2217Z" fill="#66C61C"/>
        <path d="M24.1279 47.2586C24.1279 47.7547 24.1476 48.2508 24.1279 48.7442C24.1288 49.1456 23.9873 49.5324 23.7322 49.8264C23.477 50.1203 23.1271 50.2994 22.7533 50.3275C22.3786 50.3562 22.0083 50.2268 21.7216 49.967C21.4348 49.7071 21.2543 49.3374 21.2186 48.9369C21.1459 47.8185 21.1459 46.696 21.2186 45.5777C21.2314 45.3782 21.2823 45.1837 21.368 45.0061C21.4537 44.8285 21.5725 44.6716 21.7169 44.545C21.8614 44.4184 22.0286 44.3249 22.2081 44.2701C22.3876 44.2154 22.5756 44.2005 22.7607 44.2266C23.5884 44.2978 24.0466 44.8151 24.118 45.6859C24.1599 46.2136 24.118 46.7414 24.118 47.2691L24.1279 47.2586Z" fill="#66C61C"/>
        <path d="M17.0759 47.2609C17.0476 46.701 17.0476 46.1399 17.0759 45.58C17.0875 45.2107 17.2344 44.8611 17.4847 44.6068C17.735 44.3525 18.0687 44.2139 18.4136 44.221C19.1871 44.1682 19.8178 44.5588 19.8917 45.3821C19.9988 46.6241 19.9988 47.874 19.8917 49.116C19.8227 49.942 19.1748 50.3536 18.4136 50.3008C17.6524 50.2481 17.1425 49.7889 17.071 48.9392C17.0365 48.393 17.0759 47.8204 17.0759 47.2609Z" fill="#66C61C"/>
        <path d="M36.9944 42.274C36.5338 42.274 36.0707 42.3004 35.6125 42.274C35.2403 42.2618 34.8861 42.0995 34.6207 41.8197C34.3554 41.5399 34.1984 41.163 34.1812 40.7646C34.1641 40.363 34.2937 39.9701 34.5425 39.6691C34.7913 39.3681 35.1397 39.1827 35.5139 39.1523C36.4983 39.0847 37.4857 39.0847 38.47 39.1523C38.8487 39.1759 39.204 39.3567 39.4603 39.6562C39.7166 39.9558 39.8539 40.3505 39.843 40.7567C39.8321 41.1629 39.6739 41.5486 39.4019 41.8318C39.1299 42.1151 38.7656 42.2737 38.3863 42.274C37.9158 42.3004 37.4551 42.274 36.9944 42.274Z" fill="#66C61C"/>
        <path d="M34.373 66.6247C40.3123 66.6247 46.2541 66.6088 52.1934 66.6247C54.8539 66.6247 56.9922 68.7357 57.3469 71.5777C57.6746 74.2165 56.0192 76.8553 53.5311 77.581C52.9041 77.7451 52.2599 77.8213 51.6145 77.8079C40.1038 77.822 28.5913 77.822 17.0773 77.8079C14.3207 77.8079 12.3598 76.4384 11.5863 74.0318C11.3119 73.1871 11.231 72.284 11.3505 71.3988C11.47 70.5136 11.7864 69.6722 12.2729 68.9453C12.7595 68.2185 13.4021 67.6275 14.1464 67.2223C14.8908 66.8171 15.7151 66.6094 16.5501 66.6168C22.4919 66.6009 28.4312 66.6247 34.373 66.6247ZM16.5378 74.6176C16.8304 74.62 17.1205 74.5604 17.3915 74.4421C17.6625 74.3239 17.9089 74.1493 18.1166 73.9286C18.3244 73.7078 18.4892 73.4452 18.6017 73.1558C18.7142 72.8665 18.7721 72.5561 18.7721 72.2427C18.775 71.9219 18.7186 71.6036 18.606 71.3063C18.4934 71.0091 18.3269 70.7386 18.1162 70.5107C17.9055 70.2827 17.6546 70.1018 17.3782 69.9783C17.1018 69.8548 16.8052 69.7912 16.5057 69.7912C16.2067 69.7938 15.9112 69.8607 15.6366 69.9878C15.3621 70.1148 15.1142 70.2996 14.9075 70.5311C14.7008 70.7626 14.5395 71.0361 14.4332 71.3356C14.3269 71.635 14.2778 71.9542 14.2886 72.2743C14.2925 72.5865 14.3538 72.8947 14.4689 73.1814C14.5841 73.4682 14.7509 73.7278 14.9597 73.9454C15.1686 74.163 15.4155 74.3344 15.6863 74.4497C15.9571 74.5651 16.2464 74.6221 16.5378 74.6176ZM40.2852 74.6176C40.7287 74.6124 41.1609 74.4671 41.5276 74.2C41.8944 73.933 42.1794 73.5559 42.3471 73.1161C42.5148 72.6764 42.5576 72.1933 42.4703 71.7276C42.3829 71.2618 42.1692 70.8341 41.856 70.4978C41.5427 70.1615 41.1438 69.9317 40.7092 69.8371C40.2746 69.7425 39.8236 69.7873 39.4127 69.966C39.0018 70.1447 38.6492 70.4492 38.399 70.8415C38.1489 71.2338 38.0124 71.6964 38.0066 72.1714C38.0043 72.4932 38.0616 72.8122 38.1752 73.11C38.2887 73.4078 38.4564 73.6786 38.6683 73.9066C38.8802 74.1346 39.1322 74.3153 39.4098 74.4382C39.6873 74.5612 39.9849 74.6239 40.2852 74.6229V74.6176ZM52.1097 74.6176C52.5564 74.6249 52.9951 74.4897 53.3699 74.2292C53.7446 73.9687 54.0386 73.5946 54.2143 73.1546C54.39 72.7146 54.4395 72.2285 54.3566 71.7582C54.2737 71.288 54.062 70.8548 53.7485 70.5138C53.435 70.1728 53.0339 69.9394 52.5963 69.8433C52.1586 69.7472 51.7041 69.7927 51.2907 69.9742C50.8773 70.1556 50.5236 70.4646 50.2746 70.862C50.0256 71.2594 49.8927 71.7272 49.8926 72.2057C49.8956 72.8365 50.1277 73.4412 50.5396 73.8919C50.9516 74.3426 51.5112 74.6038 52.0998 74.6202L52.1097 74.6176ZM26.1599 72.0949C26.1415 72.5713 26.2558 73.0428 26.4882 73.4494C26.7206 73.856 27.0606 74.1795 27.4651 74.3786C27.8695 74.5777 28.3201 74.6434 28.7595 74.5675C29.1989 74.4916 29.6074 74.2774 29.9329 73.9522C30.2584 73.627 30.4862 73.2054 30.5875 72.7412C30.6888 72.2769 30.6589 71.7908 30.5016 71.3448C30.3443 70.8988 30.0668 70.5129 29.7043 70.2363C29.3417 69.9596 28.9106 69.8047 28.4657 69.7912C27.8749 69.7753 27.3018 70.0078 26.8691 70.4388C26.4363 70.8699 26.1782 71.4652 26.1501 72.0975L26.1599 72.0949ZM33.4172 69.8361V74.5859H35.5185C34.9273 72.9631 34.8977 71.4194 35.5431 69.8361H33.4172ZM45.3032 74.5859H47.4218C46.7542 72.9604 46.8429 71.4009 47.3897 69.8361H45.3057L45.3032 74.5859ZM23.3787 74.5859V69.8361H21.5459V74.5859H23.3787Z" fill="#66C61C"/>
    </g>
    <defs>
        <clipPath id="clip0_1433_5621">
            <rect width="91.6667" height="66.6667" fill="white" transform="translate(4.17188 16.6665)"/>
        </clipPath>
    </defs>
</svg>
