<svg width="100" height="100" viewBox="0 0 100 100" fill="none" xmlns="http://www.w3.org/2000/svg">
    <g clip-path="url(#clip0_1433_5644)">
        <path d="M85.625 90.8331H12.7083C10.7878 90.3752 9.19704 89.4399 8.24869 87.643C7.96751 87.0377 7.71763 86.4184 7.5 85.7875V36.3083C8.15104 35.6443 8.69792 34.8544 9.45312 34.3379C19.2187 27.567 29.0003 20.8208 38.7977 14.0992C42.0269 11.8791 45.2821 9.69811 48.5265 7.49976H49.8286C50.2886 7.77536 50.7639 8.02926 51.2044 8.33308C63.7565 16.9746 76.3021 25.6255 88.8411 34.2858C89.6072 34.8175 90.1801 35.6269 90.8442 36.3083V85.6247C90.4102 86.5709 90.102 87.5779 89.5421 88.4459C88.6328 89.8305 87.1788 90.4468 85.625 90.8331ZM75.2083 85.6247H84.273C85.4058 85.6247 85.625 85.3947 85.625 84.2272C85.625 69.1997 85.625 54.1715 85.625 39.1426C85.6461 38.9066 85.6002 38.6695 85.4928 38.4584C85.3853 38.2473 85.2205 38.0708 85.0173 37.949C73.2653 29.8732 61.5227 21.7843 49.7895 13.6825C49.2969 13.3418 48.9844 13.3743 48.5156 13.6977C36.7824 21.7995 25.0398 29.8884 13.2878 37.9642C13.0924 38.0733 12.932 38.2357 12.8252 38.4323C12.7184 38.629 12.6696 38.852 12.6845 39.0753C12.7018 54.1577 12.7062 69.2402 12.6975 84.3227C12.6975 85.3752 12.9405 85.6247 13.9822 85.6247C16.8034 85.6247 19.6246 85.6247 22.4457 85.6247C22.6519 85.6247 22.8581 85.5922 23.1141 85.5705V84.6395C23.1141 79.5947 23.1141 74.5491 23.1141 69.5028C23.1141 67.5497 24.1059 66.5492 26.0634 66.5449C28.8303 66.5449 31.5972 66.5449 34.3642 66.5449C34.6506 66.5449 34.9371 66.5189 35.2799 66.5015V65.4425C35.2799 59.9086 35.2799 54.3748 35.2799 48.8409C35.2799 46.6447 36.2001 45.7159 38.3746 45.7159H59.8589C62.1376 45.7159 63.0317 46.623 63.0339 48.9342V66.5492H64.0386C66.7773 66.5492 69.5182 66.5492 72.2569 66.5492C74.2101 66.5492 75.1975 67.5649 75.1996 69.5202C75.1996 74.5665 75.1996 79.612 75.1996 84.6569L75.2083 85.6247ZM40.5382 66.4255H57.7669V50.9828H51.7708C51.7708 51.8053 51.7708 52.5605 51.7708 53.3179C51.7556 54.9498 50.6228 56.1391 49.1298 56.1152C47.6367 56.0913 46.582 54.9129 46.5668 53.3201C46.5668 52.541 46.5668 51.7641 46.5668 50.9698H40.5425L40.5382 66.4255ZM28.3594 85.5662H46.5017V71.84H40.4991C40.4991 72.6582 40.5143 73.4156 40.4991 74.1729C40.4601 75.768 39.362 76.9355 37.908 76.9507C36.4193 76.9659 35.319 75.7832 35.3038 74.1295C35.3038 73.3548 35.3038 72.5779 35.3038 71.8075H28.3594V85.5662ZM63.0425 71.7836C63.0425 72.6061 63.0555 73.3331 63.0425 74.0601C63.0481 74.438 63.0014 74.8148 62.9037 75.1799C62.7186 75.7377 62.348 76.2153 61.8537 76.5332C61.3593 76.851 60.771 76.99 60.1866 76.9268C59.56 76.8577 58.9793 76.5648 58.5511 76.102C58.123 75.6392 57.8761 75.0375 57.8559 74.4073C57.8082 73.5545 57.8559 72.6972 57.8559 71.8313H51.8403V85.5662H69.9609V71.7836H63.0425Z" fill="#66C61C"/>
    </g>
    <defs>
        <clipPath id="clip0_1433_5644">
            <rect width="83.3333" height="83.3333" fill="white" transform="translate(8.32812 8.3335)"/>
        </clipPath>
    </defs>
</svg>
