<svg width="101" height="100" viewBox="0 0 101 100" fill="none" xmlns="http://www.w3.org/2000/svg">
    <g clip-path="url(#clip0_1433_5779)">
        <path d="M15.81 61.1915V59.3444H13.5708C11.9695 59.3444 10.3683 59.3734 8.76707 59.3233C7.9289 59.2953 7.1217 58.9773 6.46627 58.417C5.81084 57.8566 5.34242 57.084 5.13105 56.2147C4.88649 55.355 4.91242 54.4329 5.20484 53.5904C5.49727 52.748 6.03998 52.0318 6.74951 51.552C7.3629 51.143 7.54521 50.7076 7.53289 49.9687C7.49101 47.6281 7.51071 45.2822 7.5181 42.9389C7.5181 40.4875 8.78429 39.1391 11.0531 39.1232H12.7307C12.7307 36.9964 12.7455 34.9302 12.7061 32.864C12.7061 32.6793 12.3908 32.4233 12.1715 32.3362C11.1369 31.9193 10.0801 31.5631 9.03804 31.1646C7.93443 30.745 7.57723 30.0246 7.9295 28.8689C8.39755 27.3331 8.89024 25.8061 9.40756 24.2879C9.78446 23.169 10.452 22.8234 11.5162 23.2034C13.5297 23.9246 15.5366 24.6617 17.5369 25.4147C19.7022 26.2274 20.5768 27.5257 20.5915 30.0088C20.6063 32.6476 20.5915 35.2864 20.5915 37.9252V39.0573H29.6052V37.9674C29.6052 33.346 29.6052 28.7255 29.6052 24.1058C29.6052 19.509 32.2337 16.6829 36.5028 16.6776C40.0157 16.6776 43.5261 16.6776 47.0364 16.6776C50.399 16.6618 52.7935 18.2925 54.2814 21.4908C55.5304 24.1744 56.7571 26.8686 57.9938 29.5602C58.1293 29.8505 58.2746 30.1381 58.447 30.497C58.6934 30.2727 58.9225 30.1012 59.122 29.9085C61.5115 27.626 63.9109 25.3513 66.266 23.0476C66.6228 22.6874 66.8918 22.2389 67.0493 21.7414C67.5108 20.2382 68.4432 18.952 69.6886 18.1008C70.9339 17.2496 72.4157 16.8857 73.8829 17.0708C76.8045 17.3848 79.093 19.8758 79.5266 23.0741C79.6659 24.1385 79.9436 25.1769 80.3519 26.1588C83.2505 32.9616 86.1861 39.7477 89.1586 46.5172C89.6428 47.5778 90.2325 48.5793 90.9175 49.5043C92.2551 51.3514 93.679 53.1353 95.0634 54.9481C97.0342 57.5104 97.1598 60.2732 95.4749 63.0703C94.9575 63.928 94.4451 64.7935 93.8982 65.63C91.6023 69.1422 87.4416 70.2584 83.914 68.2319C80.2558 66.1208 76.637 63.9438 73.0059 61.7826C72.055 61.2179 71.7545 60.3313 72.1831 59.4921C72.6117 58.653 73.4296 58.463 74.4224 59.0039C76.2207 59.9882 76.2207 59.9882 77.6396 58.4762C79.3394 56.658 81.0317 54.8294 82.7414 53.0218C83.0789 52.6656 83.2685 52.399 82.9631 51.8581C79.3205 45.393 75.6902 38.9209 72.0723 32.4418C71.9519 32.2874 71.8236 32.1403 71.688 32.0011C71.6327 32.2064 71.5497 32.402 71.4416 32.5816C67.7366 37.0465 64.0242 41.5034 60.3045 45.9524C59.8586 46.4802 59.627 47.0079 59.6985 47.7178C59.7256 48.0796 59.7256 48.4432 59.6985 48.805C59.6369 50.0611 59.6516 51.114 60.9105 51.9716C62.2506 52.8714 62.5511 54.927 62.0018 56.5367C61.7342 57.3341 61.2487 58.0268 60.6086 58.5248C59.9685 59.0227 59.2033 59.3027 58.4125 59.3285C57.1266 59.3681 55.8407 59.3285 54.4932 59.3285V61.2179C56.7744 61.6691 58.7895 62.6745 60.3636 64.5032C63.3345 67.9548 64.1647 71.9737 62.5339 76.3145C60.9031 80.6553 57.7696 83.1595 53.3724 83.2519C46.1668 83.4049 38.9588 83.3073 31.7509 83.3126C27.0063 83.3126 22.2642 83.3337 17.5196 83.3126C12.3686 83.2835 8.13888 79.6737 7.17321 74.5412C6.60481 71.6991 7.10147 68.7316 8.55615 66.2779C10.0108 63.8243 12.3071 62.0811 14.9503 61.4237L15.81 61.1915ZM33.5615 56.1778H57.4001C57.708 56.1778 58.08 56.286 58.3091 56.1382C58.686 55.8981 59.2033 55.5075 59.228 55.146C59.2526 54.7845 58.824 54.1538 58.4692 54.0192C56.9074 53.4282 56.7596 53.2909 56.7596 51.515C56.7596 46.0026 56.7596 40.4928 56.7596 34.983C56.7669 34.4608 56.6686 33.9432 56.4714 33.4657C54.8948 29.964 53.2689 26.4886 51.68 22.9922C50.7193 20.8812 49.2166 19.8257 46.9823 19.8442C43.5335 19.8864 40.0847 19.9523 36.6359 19.8257C33.9261 19.7254 32.5047 21.6728 32.5441 24.2008C32.6254 29.5127 32.5712 34.8273 32.5663 40.1392C32.5663 41.8438 32.1327 42.2951 30.529 42.2951C24.1536 42.2951 17.7783 42.3109 11.4029 42.2792C10.6639 42.2792 10.4594 42.5088 10.4717 43.2846C10.5087 46.0554 10.4865 48.8261 10.4865 51.5995C10.4865 53.291 10.3141 53.4467 8.78677 54.0166C8.42957 54.1486 7.99354 54.766 8.01325 55.1328C8.03296 55.4996 8.54536 55.8928 8.9198 56.1382C9.14644 56.286 9.52087 56.1778 9.8288 56.1778H33.5615ZM35.1849 80.1513H42.5752C46.2087 80.1513 49.8423 80.2252 53.4709 80.1038C57.6366 79.9666 60.8858 75.6838 60.302 71.2929C59.7477 67.1051 56.7325 64.2868 52.7344 64.2815C43.439 64.2657 34.1437 64.2657 24.8483 64.2815C22.3233 64.2815 19.7983 64.2472 17.2757 64.2815C15.345 64.2958 13.4961 65.1188 12.1247 66.5746C10.7532 68.0304 9.96805 70.0033 9.9372 72.0713C9.88301 76.6153 13.1101 80.1144 17.458 80.1381C23.3653 80.1619 29.2751 80.1381 35.1849 80.1381V80.1513ZM78.9723 61.7377C81.2929 63.0782 83.611 64.5797 86.0572 65.7804C87.8973 66.6829 90.0972 65.8305 91.3166 64.0546C92.0088 63.0466 92.6394 61.9884 93.243 60.9144C93.8465 59.8404 93.9179 58.6503 93.2085 57.6476C91.7009 55.5366 90.0923 53.4889 88.5575 51.457L78.9723 61.7377ZM74.617 30.8269C78.1643 37.16 81.7609 43.6145 85.392 50.0769C86.8479 48.7918 86.8479 48.7918 86.1311 47.132C84.5791 43.5485 83.0279 39.9641 81.4776 36.3789C80.3445 33.7612 79.2088 31.1435 78.1077 28.605L74.617 30.8269ZM67.0296 26.5889C64.746 28.7738 62.3491 31.0459 59.9941 33.3548C59.7921 33.5527 59.7305 34.0013 59.728 34.3338C59.7059 36.5741 59.7133 38.8198 59.728 41.0601C59.7471 41.3154 59.7808 41.5692 59.829 41.8201L69.6827 29.9666C68.7516 28.7659 67.9116 27.6946 67.0296 26.5757V26.5889ZM18.8647 61.0279H51.4263V59.3866H18.8647V61.0279ZM73.1192 20.1951C72.6642 20.1999 72.2145 20.3008 71.7958 20.4919C71.3771 20.683 70.9977 20.9605 70.6793 21.3088C70.3608 21.657 70.1096 22.0691 69.9398 22.5214C69.7701 22.9737 69.6852 23.4574 69.6901 23.9448C69.6986 24.9281 70.0714 25.8676 70.7265 26.5564C71.3816 27.2453 72.2653 27.6272 73.1833 27.6181C74.1012 27.609 74.9782 27.2096 75.6213 26.5079C76.2644 25.8062 76.6208 24.8595 76.6124 23.8762C76.6045 22.892 76.2322 21.9513 75.5772 21.2611C74.9222 20.5708 74.0381 20.1874 73.1192 20.1951ZM11.1591 28.5601C12.2479 28.9718 13.2727 29.4045 14.3246 29.7449C15.2927 30.0589 15.7361 30.6817 15.7016 31.7742C15.6622 32.9933 15.7016 34.2124 15.7016 35.4342V39.052H17.6157C17.6157 35.8353 17.6354 32.6766 17.5861 29.518C17.5534 29.3177 17.4779 29.1282 17.3655 28.9644C17.2531 28.8005 17.1069 28.6666 16.9382 28.5733C15.2557 27.8819 13.5412 27.2803 11.765 26.6232L11.1591 28.5601Z" fill="#66C61C"/>
        <path d="M44.3045 35.025C41.8411 35.025 39.3776 35.025 36.9142 35.025C35.4509 35.025 34.9582 34.4972 34.9434 32.9615C34.9303 30.1274 34.9303 27.2924 34.9434 24.4566C34.9434 22.9551 35.4361 22.4247 36.823 22.4194C40.2078 22.4194 43.5901 22.4379 46.9724 22.4194C48.1622 22.4194 48.9431 22.9472 49.4555 24.0713C50.7094 26.8579 52.0076 29.6128 53.2714 32.402C53.9734 33.951 53.3674 35.0171 51.7588 35.0408C49.288 35.0408 46.795 35.025 44.3045 35.025ZM49.724 31.7898C48.8052 29.7817 47.9479 27.858 47.029 25.9686C46.9207 25.7443 46.4822 25.6018 46.1939 25.5992C44.1321 25.5675 42.0677 25.5834 40.0058 25.5834H37.9735V31.7898H49.724Z" fill="#66C61C"/>
        <path d="M16.6175 47.2217C16.6175 47.7495 16.6446 48.2773 16.6175 48.805C16.611 49.2068 16.4578 49.5899 16.1907 49.8721C15.9236 50.1543 15.5638 50.3131 15.1887 50.3144C14.3782 50.2959 13.7919 49.8183 13.7106 48.966C13.6121 47.8161 13.6121 46.659 13.7106 45.5091C13.7895 44.6647 14.3708 44.1898 15.2035 44.2188C16.0361 44.2478 16.5066 44.7729 16.5929 45.6411C16.6188 46.1685 16.6188 46.697 16.5929 47.2244L16.6175 47.2217Z" fill="#66C61C"/>
        <path d="M24.9287 47.2586C24.9287 47.7547 24.9484 48.2508 24.9287 48.7442C24.9296 49.1456 24.7881 49.5324 24.5329 49.8264C24.2777 50.1203 23.9279 50.2994 23.5541 50.3275C23.1794 50.3562 22.8091 50.2268 22.5223 49.967C22.2356 49.7071 22.055 49.3374 22.0193 48.9369C21.9467 47.8185 21.9467 46.696 22.0193 45.5777C22.0322 45.3782 22.0831 45.1837 22.1688 45.0061C22.2545 44.8285 22.3732 44.6716 22.5177 44.545C22.6622 44.4184 22.8293 44.3249 23.0088 44.2701C23.1883 44.2154 23.3764 44.2005 23.5615 44.2266C24.3892 44.2978 24.8474 44.8151 24.9188 45.6859C24.9607 46.2136 24.9188 46.7414 24.9188 47.2691L24.9287 47.2586Z" fill="#66C61C"/>
        <path d="M17.8767 47.2609C17.8484 46.701 17.8484 46.1399 17.8767 45.58C17.8883 45.2107 18.0351 44.8611 18.2855 44.6068C18.5358 44.3525 18.8695 44.2139 19.2144 44.221C19.9879 44.1682 20.6185 44.5588 20.6924 45.3821C20.7996 46.6241 20.7996 47.874 20.6924 49.116C20.6235 49.942 19.9756 50.3536 19.2144 50.3008C18.4532 50.2481 17.9432 49.7889 17.8718 48.9392C17.8373 48.393 17.8767 47.8204 17.8767 47.2609Z" fill="#66C61C"/>
        <path d="M37.7952 42.274C37.3346 42.274 36.8714 42.3004 36.4132 42.274C36.041 42.2618 35.6868 42.0995 35.4215 41.8197C35.1561 41.5399 34.9992 41.163 34.982 40.7646C34.9649 40.363 35.0945 39.9701 35.3433 39.6691C35.5921 39.3681 35.9405 39.1827 36.3147 39.1523C37.2991 39.0847 38.2864 39.0847 39.2708 39.1523C39.6495 39.1759 40.0047 39.3567 40.2611 39.6562C40.5174 39.9558 40.6547 40.3505 40.6438 40.7567C40.6329 41.1629 40.4747 41.5486 40.2027 41.8318C39.9307 42.1151 39.5664 42.2737 39.1871 42.274C38.7165 42.3004 38.2559 42.274 37.7952 42.274Z" fill="#66C61C"/>
        <path d="M35.1738 66.6247C41.1131 66.6247 47.0549 66.6088 52.9942 66.6247C55.6547 66.6247 57.793 68.7357 58.1477 71.5777C58.4754 74.2165 56.8199 76.8553 54.3319 77.581C53.7049 77.7451 53.0606 77.8213 52.4153 77.8079C40.9045 77.822 29.3921 77.822 17.878 77.8079C15.1215 77.8079 13.1606 76.4384 12.3871 74.0318C12.1127 73.1871 12.0318 72.284 12.1513 71.3988C12.2708 70.5136 12.5872 69.6722 13.0737 68.9453C13.5603 68.2185 14.2028 67.6275 14.9472 67.2223C15.6915 66.8171 16.5159 66.6094 17.3509 66.6168C23.2927 66.6009 29.232 66.6247 35.1738 66.6247ZM17.3385 74.6176C17.6311 74.62 17.9213 74.5604 18.1923 74.4421C18.4633 74.3239 18.7097 74.1493 18.9174 73.9286C19.1251 73.7078 19.29 73.4452 19.4025 73.1558C19.515 72.8665 19.5729 72.5561 19.5729 72.2427C19.5758 71.9219 19.5194 71.6036 19.4068 71.3063C19.2942 71.0091 19.1277 70.7386 18.917 70.5107C18.7062 70.2827 18.4554 70.1018 18.179 69.9783C17.9025 69.8548 17.606 69.7912 17.3065 69.7912C17.0075 69.7938 16.7119 69.8607 16.4374 69.9878C16.1629 70.1148 15.915 70.2996 15.7083 70.5311C15.5016 70.7626 15.3403 71.0361 15.234 71.3356C15.1277 71.635 15.0786 71.9542 15.0894 72.2743C15.0933 72.5865 15.1546 72.8947 15.2697 73.1814C15.3849 73.4682 15.5516 73.7278 15.7605 73.9454C15.9694 74.163 16.2163 74.3344 16.4871 74.4497C16.7578 74.5651 17.0472 74.6221 17.3385 74.6176ZM41.086 74.6176C41.5295 74.6124 41.9616 74.4671 42.3284 74.2C42.6952 73.933 42.9802 73.5559 43.1479 73.1161C43.3156 72.6764 43.3584 72.1933 43.271 71.7276C43.1837 71.2618 42.97 70.8341 42.6567 70.4978C42.3435 70.1615 41.9446 69.9317 41.51 69.8371C41.0754 69.7425 40.6244 69.7873 40.2135 69.966C39.8025 70.1447 39.4499 70.4492 39.1998 70.8415C38.9497 71.2338 38.8132 71.6964 38.8073 72.1714C38.8051 72.4932 38.8624 72.8122 38.9759 73.11C39.0895 73.4078 39.2571 73.6786 39.4691 73.9066C39.681 74.1346 39.933 74.3153 40.2105 74.4382C40.4881 74.5612 40.7857 74.6239 41.086 74.6229V74.6176ZM52.9105 74.6176C53.3572 74.6249 53.7959 74.4897 54.1706 74.2292C54.5454 73.9687 54.8394 73.5946 55.0151 73.1546C55.1908 72.7146 55.2403 72.2285 55.1574 71.7582C55.0744 71.288 54.8628 70.8548 54.5493 70.5138C54.2358 70.1728 53.8347 69.9394 53.3971 69.8433C52.9594 69.7472 52.5049 69.7927 52.0915 69.9742C51.678 70.1556 51.3243 70.4646 51.0754 70.862C50.8264 71.2594 50.6934 71.7272 50.6934 72.2057C50.6964 72.8365 50.9284 73.4412 51.3404 73.8919C51.7524 74.3426 52.312 74.6038 52.9006 74.6202L52.9105 74.6176ZM26.9607 72.0949C26.9423 72.5713 27.0566 73.0428 27.289 73.4494C27.5214 73.856 27.8614 74.1795 28.2659 74.3786C28.6703 74.5777 29.1209 74.6434 29.5603 74.5675C29.9997 74.4916 30.4082 74.2774 30.7337 73.9522C31.0592 73.627 31.287 73.2054 31.3883 72.7412C31.4896 72.2769 31.4597 71.7908 31.3024 71.3448C31.1451 70.8988 30.8676 70.5129 30.5051 70.2363C30.1425 69.9596 29.7114 69.8047 29.2665 69.7912C28.6757 69.7753 28.1026 70.0078 27.6699 70.4388C27.2371 70.8699 26.979 71.4652 26.9508 72.0975L26.9607 72.0949ZM34.218 69.8361V74.5859H36.3193C35.7281 72.9631 35.6985 71.4194 36.3439 69.8361H34.218ZM46.104 74.5859H48.2226C47.555 72.9604 47.6437 71.4009 48.1905 69.8361H46.1065L46.104 74.5859ZM24.1795 74.5859V69.8361H22.3467V74.5859H24.1795Z" fill="#66C61C"/>
    </g>
    <defs>
        <clipPath id="clip0_1433_5779">
            <rect width="91.6667" height="66.6667" fill="white" transform="translate(4.97266 16.6665)"/>
        </clipPath>
    </defs>
</svg>
