<svg width="100" height="100" viewBox="0 0 100 100" fill="none" xmlns="http://www.w3.org/2000/svg">
    <mask id="mask0_1508_14859" style="mask-type:luminance" maskUnits="userSpaceOnUse" x="9" y="20" width="82" height="58">
        <path d="M90.6359 20H9.75781V77.5H90.6359V20Z" fill="white"/>
    </mask>
    <g mask="url(#mask0_1508_14859)">
        <path d="M90.2212 46.125C90.2456 45.3 90.0749 44.475 89.7334 43.75C89.3676 43 88.8554 42.35 88.1968 41.85C86.0993 40.15 84.0017 38.475 81.9285 36.775C80.8066 35.825 79.3432 35.325 77.8554 35.35C74.3432 35.4 70.8554 35.35 67.3432 35.35H65.8798V34.925L65.9042 33.9C65.9042 31.025 65.9042 28.15 65.9042 25.3C65.9042 23.675 65.3432 22.375 64.4164 21.45C63.4895 20.55 62.1237 20 60.4651 20H15.2212C13.5383 20 12.1724 20.55 11.2456 21.475C10.3188 22.4 9.75781 23.725 9.75781 25.375V65.625C9.75781 67.25 10.2944 68.575 11.2456 69.5C12.1724 70.425 13.5383 70.975 15.2212 71C16.6846 71 18.1481 71.025 19.6115 71C19.9773 71 20.3188 71.025 20.6115 71.225C20.9042 71.425 21.0749 71.725 21.2212 72.05C22.6115 75.45 25.27 77.275 28.9529 77.475C32.8066 77.7 35.8554 76.225 37.4895 72.825C37.831 72.1 38.2456 71.6 38.7822 71.325C39.3188 71.05 39.9042 71 40.5871 71C47.9529 71.05 55.3188 71.025 62.6846 71.025C62.831 71.025 63.1237 71.025 63.3676 71.075C63.6846 71.175 63.9042 71.4 64.0505 71.775C65.5139 75.5 68.5139 77.525 72.4895 77.525C76.4651 77.525 79.4895 75.475 80.9529 71.8C81.0261 71.55 81.1724 71.325 81.392 71.2C81.6115 71.05 81.8798 71 82.1237 71.025C83.0261 71.025 83.9042 71.025 84.8066 71.025C86.4407 71 87.7822 70.45 88.709 69.525C89.6359 68.6 90.1725 67.3 90.1725 65.725C90.1725 59.2 90.2456 56.525 90.2456 50L90.2212 46.125ZM31.1237 34.8V24.5H44.4407V35.55L43.8066 35.125C42.9529 34.55 42.1481 34.05 41.4407 33.55C40.709 33.075 40.0017 32.6 39.27 32.1C38.7578 31.75 38.27 31.6 37.8066 31.6C37.3432 31.6 36.8554 31.75 36.3432 32.1C34.8554 33.1 33.3676 34.075 31.7578 35.125L31.1237 35.55V34.775V34.8ZM29.5139 73.125C27.0017 73.125 25.1481 71.3 25.1481 68.75C25.1481 66.2 26.9773 64.4 29.4895 64.375C32.0017 64.375 33.8798 66.15 33.9042 68.675C33.9285 71.2 32.0017 73.125 29.4895 73.125H29.5139ZM61.1724 24.9V66.45H60.7822C60.4895 66.475 60.1968 66.5 59.9042 66.5C53.0749 66.5 46.2456 66.5 39.4163 66.5C39.0993 66.5 38.7822 66.45 38.5139 66.3C38.2456 66.125 38.0505 65.85 37.9285 65.525C37.2944 63.9 36.1724 62.475 34.709 61.475C33.2456 60.475 31.4895 59.925 29.6846 59.9C25.9042 59.825 22.709 61.85 21.2212 65.3C21.0505 65.7 20.831 66.025 20.4895 66.225C20.1724 66.425 19.7822 66.45 19.392 66.425C17.8798 66.375 16.392 66.425 14.831 66.425H14.4163V24.475H26.4651V25.825C26.4651 30.35 26.4651 34.875 26.4651 39.4C26.4651 39.975 26.5383 40.45 26.7334 40.825C26.9285 41.2 27.2212 41.525 27.709 41.775C28.6359 42.25 29.4895 42.05 30.392 41.425C32.4895 40 34.6115 38.675 36.6603 37.225C37.0505 36.95 37.4163 36.8 37.831 36.8C38.2212 36.8 38.5871 37 38.9529 37.25C41.0017 38.675 43.0749 40.025 45.1724 41.375C45.6359 41.675 46.1481 41.9 46.709 42C47.8554 42.15 48.9285 41.225 49.0505 40.075C49.0749 39.775 49.0993 39.45 49.0749 39.125V39.075V39.025V38.975V38.925V38.875V38.825V38.775V38.725V38.675V38.625V38.575V38.525V38.475V38.425V38.375V38.325V38.275V38.225V38.175V38.125V38.075V38.025V37.975V37.925V37.875V37.825V37.775V37.725V37.675V37.625V37.575V37.525V37.475V37.425V37.375V37.325V37.275V37.225V37.175V37.125V37.075V37.025V36.975V36.925V36.875V36.825V36.775V36.725V36.675V36.625V36.575V36.525V36.475V36.425V36.375V36.325V36.275V36.225V36.175V36.125V36.075V36.025V35.975V35.925V35.875V35.825V35.775V35.725V35.675V35.625V35.575V35.525V35.475V35.425V35.375V35.325V35.275V35.225V35.175V35.125V35.075V35.025V34.975V34.925V34.875V34.825V34.775V34.725V34.675V34.625V34.575V34.525V34.475V34.425V34.375V34.325V34.275V34.225V34.175V34.125V34.075V34.025V33.975V33.925V33.875V33.825V33.775V33.725V33.675V33.625V33.575V33.525V33.475V33.425V33.375V33.325V33.275V33.225V33.175V33.125V33.075V33.025V32.975V32.925V32.875V32.825V32.775V32.725V32.675V32.625V32.575V32.525V32.475V32.425V32.375V32.325V32.275V32.225V32.175V32.125V32.075V32.025V31.975V31.925V31.875V31.825V31.775V31.725V31.675V31.625V31.575V31.525V31.475V31.425V31.375V31.325V31.275V31.225V31.175V31.125V31.075V31.025V30.975V30.925V30.875V30.825V30.775V30.725V30.675V30.625V30.575V30.525V30.475V30.425V30.375V30.325V30.275V30.225V30.175V30.125V30.075V30.025V29.975V29.925V29.875V29.825V29.775V29.725V29.675V29.625V29.575V29.525V29.475V29.425V29.375V29.325V29.275V29.225V29.175V29.125V29.075V29.025V28.975V28.925V28.875V28.825V28.775V28.725V28.675V28.625V28.575V28.525V28.475V28.425V28.375V28.325V28.275V28.225V28.175V28.125V28.075V28.025V27.975V27.925V27.875V27.825V27.775V27.725V27.675V27.625V27.575V27.525V27.475V27.425V27.375V27.325V27.275V27.225V27.175V27.125V27.075V27.025V26.975V26.925V26.875V26.825V26.775V26.725V26.675V26.625V26.575V26.525V26.475V26.425V26.375V24.9H61.1237V25.325L61.1724 24.9ZM72.4895 73.125C70.0017 73.125 68.1237 71.275 68.1237 68.75V68.325H68.1725C68.3676 66 70.0993 64.375 72.4651 64.375C75.0261 64.375 76.9286 66.25 76.9042 68.775C76.8798 71.275 74.9773 73.125 72.4895 73.125ZM85.5798 50C85.5798 56.425 85.5139 59.2 85.4651 65.65C85.4651 65.65 85.4651 65.8 85.4651 65.875C85.4651 65.95 85.4651 66.025 85.4407 66.15L85.392 66.525H85.0261C84.0017 66.525 83.0017 66.575 82.0017 66.525C81.7578 66.525 81.5139 66.35 81.392 66.2C81.2456 66.05 81.0993 65.875 81.0261 65.675C79.6846 62.25 77.0505 60.475 73.3676 60.025C71.1968 59.75 69.0017 60.3 67.2456 61.575C67.0505 61.7 66.8554 61.825 66.5627 62.025L65.9285 62.45V39.95L66.27 39.9C66.5139 39.875 66.7822 39.85 67.0261 39.825C70.5871 39.825 74.1237 39.825 77.6846 39.875C78.1724 39.875 78.6603 40.05 79.0505 40.325C81.0261 41.875 83.0017 43.475 84.9285 45.075C85.2944 45.4 85.5139 45.825 85.5383 46.325L85.5798 50Z" fill="#66C61C"/>
    </g>
</svg>
