<svg width="16" height="16" viewBox="0 0 16 16" fill="none" xmlns="http://www.w3.org/2000/svg">
    <circle cx="8" cy="7.33398" r="2" stroke="#4B465C" stroke-linecap="round" stroke-linejoin="round"/>
    <circle cx="8" cy="7.33398" r="2" stroke="#66C61C" stroke-linecap="round" stroke-linejoin="round"/>
    <path fill-rule="evenodd" clip-rule="evenodd" d="M11.7726 11.1045L8.94397 13.9331C8.42338 14.4532 7.57989 14.4532 7.0593 13.9331L4.22997 11.1045C2.14725 9.02165 2.14731 5.64482 4.2301 3.56206C6.31289 1.47931 9.68972 1.47931 11.7725 3.56206C13.8553 5.64482 13.8554 9.02165 11.7726 11.1045V11.1045Z" stroke="#4B465C" stroke-linecap="round" stroke-linejoin="round"/>
    <path fill-rule="evenodd" clip-rule="evenodd" d="M11.7726 11.1045L8.94397 13.9331C8.42338 14.4532 7.57989 14.4532 7.0593 13.9331L4.22997 11.1045C2.14725 9.02165 2.14731 5.64482 4.2301 3.56206C6.31289 1.47931 9.68972 1.47931 11.7725 3.56206C13.8553 5.64482 13.8554 9.02165 11.7726 11.1045V11.1045Z" stroke="#66C61C" stroke-linecap="round" stroke-linejoin="round"/>
</svg>
