<svg width="100" height="100" viewBox="0 0 100 100" fill="none" xmlns="http://www.w3.org/2000/svg">
    <path d="M9.10395 58.2103H3.92706C2.38001 58.2103 1.67408 57.7523 1.65656 56.7392C1.63904 55.7261 2.3625 55.2233 3.87951 55.2233H9.09643V52.2364C8.18772 52.2364 7.29152 52.2364 6.39283 52.2364C5.31139 52.2189 4.64049 51.6066 4.66302 50.7006C4.68555 49.7945 5.34143 49.2619 6.39032 49.2569C8.73844 49.2436 11.0857 49.2436 13.4322 49.2569C14.4786 49.2569 15.1344 49.8294 15.162 50.6981C15.1895 51.5668 14.5086 52.2115 13.4297 52.2389C13.0567 52.2389 12.6787 52.2389 12.2356 52.2389V55.2258H13.9729C15.948 55.2258 16.684 55.639 16.664 56.7417C16.6439 57.8444 15.9355 58.2128 13.9103 58.2128H12.158C12.4083 59.2084 13.0116 59.7062 13.9103 59.7062C19.2307 59.7245 24.5511 59.7245 29.8715 59.7062C30.109 59.717 30.346 59.6782 30.5675 59.5924C30.789 59.5066 30.99 59.3757 31.1576 59.2081C31.3252 59.0405 31.4557 58.8399 31.5408 58.6192C31.6258 58.3985 31.6635 58.1626 31.6514 57.9265C31.6764 54.1281 31.6764 50.3305 31.6514 46.5338C31.6514 45.4908 30.9004 44.8337 29.8365 44.7914C29.2732 44.7665 28.71 44.7914 28.1467 44.7914H27.1604C27.1604 46.1181 27.1604 47.41 27.1604 48.7018C27.1604 50.3098 26.7048 50.7728 25.1177 50.7728C22.9598 50.7728 20.8003 50.7728 18.6391 50.7728C17.1146 50.7728 16.6364 50.2973 16.6364 48.7491C16.6364 47.4772 16.6364 46.2052 16.6364 44.8287C15.5976 44.8287 14.5987 44.7391 13.6324 44.8686C13.1743 44.9283 12.7262 45.3664 12.3533 45.7099C11.6849 46.3396 10.9013 46.474 10.2505 45.9787C9.59959 45.4834 9.47192 44.5898 10.0252 43.8206C10.9389 42.5487 12.2006 41.8293 13.7651 41.8293C19.1798 41.797 24.5945 41.7571 30.0067 41.8617C31.1207 41.8841 32.2221 42.5138 33.3561 42.8573C36.6981 35.3899 37.757 34.2076 43.5497 31.6388C43.2993 31.3899 43.049 31.1684 42.8137 30.9419C40.9748 29.1791 39.7551 26.8747 39.335 24.3694C38.9148 21.8641 39.3165 19.2909 40.4806 17.0302C42.8437 12.3282 47.9755 9.75943 53.3051 10.6107C58.2617 11.4023 62.3021 15.5168 63.0506 20.5672C63.178 21.1758 63.2193 21.7992 63.1732 22.4191C63.1106 22.8597 62.8303 23.4919 62.4848 23.6263C61.7338 23.9226 61.7563 24.4229 61.919 24.958C62.1694 25.7819 62.3421 26.7228 62.8628 27.3575C64.1821 28.9605 63.5237 30.6556 62.2971 31.838C61.9065 32.2109 61.6046 32.6659 61.4134 33.1697C60.6974 35.161 59.4407 36.2064 56.9574 36.7117C58.1716 38.4093 59.1629 40.2139 60.9953 41.3066C62.1368 41.9836 63.4335 41.9837 64.6527 41.7795C67.176 41.3539 69.3814 41.7223 71.1413 43.8629C72.1426 41.456 73.7623 39.833 76.208 39.1336C76.8387 38.9584 77.4885 38.8606 78.1431 38.8424C79.0818 38.815 79.7177 39.3975 79.7227 40.3209C79.7477 44.3035 79.7477 48.2861 79.7227 52.2687C79.7339 52.4737 79.6996 52.6787 79.6223 52.8691C79.545 53.0595 79.4266 53.2307 79.2754 53.3705C79.1243 53.5104 78.9441 53.6155 78.7475 53.6785C78.551 53.7414 78.3429 53.7607 78.1381 53.7348C77.2519 53.6776 76.3857 53.4635 75.3994 53.3042L78.4034 60.2439C79.0918 61.8419 79.8028 63.4324 80.4561 65.0479C80.6639 65.5607 80.9393 65.715 81.485 65.7299C87.6156 65.8942 92.4346 70.2825 93.2131 76.3784C93.9315 81.9988 90.2091 87.4998 84.5866 89.1426C77.7601 91.1339 70.6832 86.7357 69.424 79.7188L69.3314 79.221H46.6488C45.2845 86.3797 39.5794 89.516 34.7229 89.5359C29.8665 89.5558 24.0663 86.4096 22.6945 79.1637C21.3126 79.1637 19.9108 79.1637 18.5089 79.1637C17.1721 79.1637 16.6439 78.6186 16.6565 77.277C16.6711 73.0614 17.6866 68.9089 19.6204 65.1574C20.0409 64.3385 20.6392 63.6117 21.2325 62.7305H14.3083C11.5196 62.7305 9.80235 61.3491 9.169 58.6509C9.18402 58.4866 9.144 58.3721 9.10395 58.2103ZM48.1933 76.0946C46.6237 74.0312 46.6688 71.7287 46.7214 69.4213C46.7389 68.7069 46.7214 67.9901 46.7214 67.2757C46.7214 64.4406 44.954 62.6957 42.0927 62.6932C37.8095 62.6932 33.5238 62.7454 29.2432 62.6757C25.7385 62.6185 23.3478 64.107 21.9235 67.2707C20.6384 70.0498 19.8821 73.0416 19.693 76.0946H48.1933ZM59.6786 48.9632C60.0716 47.3875 60.4296 45.9289 60.8101 44.4305C57.9488 42.937 57.4556 42.4889 55.3653 39.6016C54.707 38.693 54.0261 37.7994 53.2851 36.9606C52.3077 35.8541 51.0216 35.0613 49.5902 34.683C45.3345 33.5181 41.4744 34.9718 38.8134 38.7752C36.7932 41.6626 35.7568 44.9457 35.0959 48.3558C34.8456 49.6004 34.7655 50.8972 34.5953 52.2463C38.8334 52.2463 42.8337 52.2463 46.834 52.2264C46.9578 52.2091 47.0753 52.1613 47.1759 52.0875C47.2764 52.0136 47.3568 51.9159 47.4098 51.8033C47.9524 49.8774 48.9129 48.0932 50.2235 46.5761C49.5651 45.6103 48.9118 44.7341 48.351 43.8032C48.2477 43.6364 48.1797 43.4503 48.1512 43.2564C48.1228 43.0625 48.1344 42.8648 48.1855 42.6756C48.2366 42.4863 48.3261 42.3095 48.4484 42.1558C48.5707 42.0022 48.7233 41.875 48.8968 41.782C49.5827 41.3863 50.3662 41.5729 50.8744 42.2649C51.0021 42.4391 51.1022 42.6333 51.2173 42.82C52.7354 45.316 55.0338 47.249 57.761 48.3235C58.4169 48.5724 59.1053 48.7516 59.6786 48.9408V48.9632ZM66.2598 76.132C67.8945 76.132 69.3289 76.1046 70.7658 76.1469C71.0097 76.1645 71.2535 76.1127 71.469 75.9977C71.6844 75.8827 71.8624 75.7091 71.9824 75.4972C73.8273 72.8762 75.6848 70.2701 77.5873 67.6814C77.9854 67.1413 77.9704 66.7305 77.7225 66.1655C75.9176 62.041 74.1403 57.9016 72.3529 53.7672C71.8998 52.7193 71.4467 51.6713 71.0812 50.8325L63.7039 52.5151C64.888 57.5432 66.057 62.7529 67.3563 67.9303C68.0547 70.7654 68.1073 73.4512 66.2598 76.132ZM60.034 20.8485C59.6585 16.5771 55.1676 13.06 50.6441 13.401C45.7075 13.7744 41.8474 18.215 42.2379 23.0762C42.5659 27.1335 46.4385 31.2655 49.7278 31.0141C49.7278 29.7147 49.7278 28.4104 49.7278 27.1061C49.7629 23.5218 52.4189 20.8833 56.0287 20.851C57.343 20.8385 58.6522 20.8485 60.034 20.8485ZM55.7458 70.1133V69.1749C55.7458 66.7803 55.8009 64.3858 55.7133 61.9937C55.5956 58.8574 53.8058 56.5749 50.7993 55.6664C49.9061 55.3955 48.9793 55.2497 48.0456 55.2333C43.8876 55.1885 39.7296 55.2109 35.5741 55.2158C35.3037 55.2158 35.0359 55.2482 34.783 55.2656C34.7129 56.779 34.6478 58.2128 34.5777 59.6963C37.1161 59.6963 39.677 59.6963 42.2379 59.6963C46.6237 59.6963 49.7254 62.7878 49.7479 67.1637C49.7479 68.1593 49.7479 69.1276 49.7479 70.1232L55.7458 70.1133ZM50.2385 52.3135C50.624 52.4654 50.7392 52.5251 50.8518 52.5625C55.7909 53.7423 58.7423 57.466 58.7373 62.519C58.7373 64.8836 58.7373 67.2483 58.7523 69.6105C58.7523 69.8967 58.8975 70.3746 59.0853 70.4344C61.3057 71.1512 62.5899 72.6746 63.1832 75.0915C63.5318 74.725 63.8523 74.3332 64.142 73.9191C64.7946 72.7677 64.9842 71.4131 64.6727 70.1282C64.4073 68.8836 64.0969 67.6391 63.8115 66.407C62.7652 61.8992 61.7263 57.3889 60.6599 52.886C60.5873 52.5824 60.3269 52.1393 60.0916 52.0895C57.2449 51.5816 54.5706 50.3753 52.3113 48.5799L50.2385 52.3135ZM72.4806 79.1538C72.4709 79.2506 72.4709 79.3482 72.4806 79.445C73.3617 83.8881 77.7375 87.0767 82.2085 86.549C84.4888 86.3071 86.5916 85.2129 88.0914 83.4878C89.5911 81.7627 90.3758 79.5356 90.2867 77.2571C90.1415 72.7368 86.3865 68.9459 81.8505 68.6546C80.8942 68.5949 80.2784 68.8289 79.7828 69.6503C79.2395 70.5538 78.5636 71.3927 77.9553 72.2465C77.8736 72.4049 77.8098 72.5718 77.7651 72.7443C78.1306 72.5402 78.3709 72.3933 78.6212 72.2689C80.0154 71.5865 81.6213 71.4679 83.1016 71.9378C84.5819 72.4077 85.8215 73.4297 86.5602 74.7891C87.2988 76.1485 87.479 77.7395 87.063 79.2282C86.6469 80.7169 85.6669 81.9874 84.3288 82.773C81.5176 84.4083 77.72 83.6043 76.2706 80.717C75.4996 79.1762 74.5683 78.9546 73.1715 79.1164C72.9487 79.1413 72.7334 79.1413 72.4856 79.1538H72.4806ZM43.4896 79.1189C42.646 79.1189 41.8023 79.0841 40.9687 79.1438C40.8335 79.1747 40.707 79.2355 40.5987 79.3217C40.4903 79.4079 40.4029 79.5173 40.3429 79.6416C39.269 82.1308 37.3739 83.5098 34.6754 83.5048C32.0143 83.5048 30.1444 82.1208 29.0754 79.6815C28.9803 79.4624 28.7525 79.1588 28.5748 79.1463C27.6886 79.0916 26.7974 79.1214 25.8962 79.1214C26.4369 83.4027 30.4923 86.6884 34.9658 86.5888C39.2014 86.4818 43.1642 83.0493 43.4946 79.1189H43.4896ZM52.7519 32.8859C53.9635 33.1348 55.1375 33.4609 56.3316 33.5729C57.6409 33.6949 58.4795 33.0552 58.6422 31.7882C58.7673 30.7925 59.1428 30.1006 60.019 29.6451C60.1942 29.5554 60.3069 29.3489 60.4471 29.197L60.1968 29.2244C59.6285 27.482 59.0628 25.7396 58.4444 23.8379H56.1589C55.9081 23.8319 55.6571 23.8435 55.4079 23.8728C54.0461 24.0868 52.8495 25.1721 52.7819 26.5336C52.6868 28.6021 52.7619 30.678 52.7619 32.8859H52.7519ZM60.1842 76.0697C60.1317 74.4692 59.238 73.2595 57.8762 73.2023C55.3053 73.0952 52.7243 73.1724 50.0333 73.1724C50.6967 74.8501 51.8657 75.8955 53.5054 76.0274C55.7108 76.2041 57.9313 76.0697 60.1943 76.0697H60.1842ZM69.6969 47.7559C68.7306 44.9109 67.3713 44.0223 65.2885 44.7416C63.5537 45.349 62.4648 47.5319 63.0881 49.222C65.3881 49.3124 67.6723 48.8072 69.7169 47.7559H69.6969ZM76.7062 42.1554C74.8737 42.6756 73.6646 44.4678 73.7447 46.4566C73.8173 48.2836 75.109 49.9812 76.7062 50.3098V42.1554ZM78.7814 79.1164C79.5324 80.361 80.7841 80.8588 82.0358 80.4929C82.6754 80.3126 83.2369 79.9263 83.6321 79.3946C84.0273 78.863 84.2339 78.2159 84.2196 77.555C84.2053 76.894 83.9708 76.2564 83.553 75.7421C83.1351 75.2279 82.5575 74.866 81.9106 74.7132C81.327 74.5618 80.7091 74.61 80.1565 74.8503C79.6038 75.0905 79.1486 75.5086 78.864 76.0374C78.8816 76.0598 78.9016 76.0996 78.9191 76.0996C79.6376 76.1121 80.356 76.1121 81.072 76.132C82.0908 76.1643 82.7442 76.7642 82.7342 77.6404C82.7242 78.5166 82.0658 79.0915 81.0369 79.114C80.3585 79.1189 79.6426 79.1189 78.809 79.1189L78.7814 79.1164ZM19.703 47.6788H24.0938V44.8013H19.703V47.6788ZM32.1771 79.1712C32.4274 79.6166 32.798 79.9836 33.2469 80.2308C33.6959 80.478 34.2054 80.5955 34.7179 80.5701C35.2212 80.5827 35.7184 80.4592 36.1567 80.2128C36.5949 79.9665 36.9576 79.6065 37.2062 79.1712H32.1771Z" fill="#66C61C"/>
</svg>
