<svg width="19" height="19" viewBox="0 0 19 19" fill="none" xmlns="http://www.w3.org/2000/svg">
    <path d="M7 0.25L7.00007 0.25C7.13453 0.249962 7.26653 0.286074 7.38225 0.354554C7.49571 0.4217 7.58943 0.517545 7.65401 0.632385L7.69837 0.728077L9.69588 5.72185L9.69592 5.72193C9.75633 5.8728 9.7661 6.03922 9.72377 6.19612C9.68209 6.35057 9.59214 6.48758 9.46715 6.58722L9.38031 6.64627L7.71241 7.6466L7.49614 7.77631L7.62773 7.99145L7.69073 8.09445L7.69071 8.09446L7.69246 8.09724C8.50914 9.39385 9.60615 10.4909 10.9028 11.3075L10.9027 11.3076L10.9061 11.3096L11.0081 11.3716L11.2228 11.5021L11.3523 11.2868L12.3573 9.61479L12.3575 9.61448C12.441 9.47504 12.5676 9.36651 12.7181 9.30524C12.8662 9.24497 13.0296 9.23362 13.1845 9.27272L13.2844 9.3066L18.2782 11.3041L18.2784 11.3042C18.4032 11.354 18.5124 11.4365 18.5945 11.543C18.675 11.6475 18.7266 11.7713 18.7439 11.9021L18.75 12.0072V16C18.75 17.5134 17.526 18.746 15.9476 18.748C7.50135 18.2313 0.767841 11.4988 0.25001 2.99258C0.25185 2.29379 0.519658 1.6218 0.999177 1.11325C1.47954 0.603795 2.13611 0.296803 2.83497 0.254789L3.00355 0.25L7 0.25Z" fill="white" stroke="#66C61C" stroke-width="0.5"/>
</svg>
