<svg width="100" height="100" viewBox="0 0 100 100" fill="none" xmlns="http://www.w3.org/2000/svg">
    <g clip-path="url(#clip0_1433_5549)">
        <g clip-path="url(#clip1_1433_5549)">
            <path d="M8.32812 16.1459C8.70736 14.8797 9.08984 13.615 9.46745 12.3471C10.3675 9.33116 12.8984 7.92003 15.903 8.79731C23.1784 10.9246 30.4554 13.0486 37.7145 15.2296C38.5967 15.4949 39.4707 15.9767 40.1885 16.5561C44.9785 20.42 49.7246 24.3393 54.4853 28.2407C54.6481 28.3741 54.8141 28.5043 55.0273 28.6769C55.7598 27.8305 56.4661 27.0151 57.1725 26.198C59.2282 23.8201 62.1237 23.5678 64.5065 25.6186C69.2965 29.7397 74.0703 33.8771 78.8311 38.0307C81.0918 40.0034 81.3131 42.9347 79.3242 45.1775C78.6683 45.9164 78.6081 46.4747 78.9792 47.3715C83.0384 57.1762 87.0488 67.0021 91.0723 76.823C91.2757 77.3194 91.4645 77.8224 91.6615 78.3221V79.9497C91.2025 81.4926 90.4001 82.7638 88.8457 83.4083C86.4466 84.4028 84.054 85.4119 81.6354 86.3575C80.1543 86.9353 78.6113 86.8556 77.4085 85.8155C76.5524 85.075 75.8981 85.1433 75.0778 85.6381C74.985 85.6935 74.8841 85.7342 74.7832 85.7732C70.0192 87.6759 65.5465 90.2752 60.5726 91.67H58.7822C58.2891 91.5431 57.7878 91.4454 57.306 91.2859C54.1712 90.2442 52.1139 88.1365 51.4775 84.8894C49.0491 72.5115 46.6875 60.1206 44.3047 47.7329C43.5316 43.7192 42.7764 39.7023 41.9837 35.6918C41.917 35.3549 41.694 34.9822 41.4303 34.7592C38.8652 32.588 36.2871 30.433 33.6846 28.3074C33.2581 27.9591 32.7243 27.6905 32.1953 27.531C25.8184 25.6251 19.4495 23.6834 13.0417 21.8914C10.6035 21.2078 8.89941 19.992 8.32812 17.448C8.32812 17.0135 8.32812 16.5805 8.32812 16.1459ZM43.8229 32.7084C44.1501 33.5239 44.4919 34.1066 44.6172 34.7332C45.3708 38.475 46.0739 42.2283 46.7965 45.9783C49.2184 58.5548 51.6533 71.128 54.0557 83.7094C54.863 87.9396 58.4697 89.9204 62.3955 88.1951C66.9805 86.1818 71.5557 84.144 76.1374 82.1225C77.1497 81.6749 77.7552 81.8556 78.2809 82.7198C78.984 83.8771 79.7425 84.1342 81.0169 83.6166C83.0742 82.7817 85.1266 81.9402 87.179 81.0922C88.9141 80.3761 89.2233 79.6095 88.5023 77.8484C84.4268 67.9054 80.3496 57.9623 76.2757 48.0193C75.2064 45.4103 75.1364 45.8139 76.9821 43.6964C77.0537 43.615 77.1204 43.5304 77.1904 43.4457C78.206 42.2153 78.1344 41.1004 76.9154 40.0408C72.1888 35.9327 67.4557 31.8312 62.7145 27.741C61.4889 26.683 60.3333 26.8035 59.2575 28.0454C58.4046 29.0284 57.5583 30.018 56.7038 30.9978C55.5644 32.3048 55.0648 32.339 53.735 31.2306C52.1416 29.9008 50.5449 28.5776 48.9255 27.2316C47.1335 29.1554 45.4001 31.0157 43.8229 32.7084ZM46.777 25.4607C44.5814 23.6752 42.376 22.0053 40.3171 20.171C38.6113 18.6508 36.7331 17.5929 34.5033 17.1453C34.3454 17.1127 34.1908 17.0607 34.0345 17.0135C27.7796 15.1743 21.5247 13.3302 15.2682 11.4959C13.6325 11.0157 12.6087 11.5496 12.1286 13.1137C11.8437 14.0447 11.5671 14.9789 11.305 15.9164C10.8688 17.4741 11.4287 18.4718 13.0042 18.9373C19.5944 20.8855 26.1943 22.7996 32.7666 24.7999C33.7952 25.1124 34.8011 25.687 35.6589 26.3478C37.6315 27.8679 39.5065 29.5135 41.4694 31.1492C43.2223 29.2693 44.9557 27.4106 46.7738 25.4607H46.777Z" fill="#66C61C"/>
            <path d="M8.32812 45.6056C9.55697 40.5112 12.3499 36.2436 15.4391 32.1306C16.1016 31.2485 16.8926 30.4868 18.0628 30.6479C18.7692 30.7455 19.6546 30.9978 20.0697 31.5008C23.2451 35.3452 26.0055 39.4695 27.3988 44.3198C29.0638 50.1173 24.7506 55.9588 18.7334 56.211C13.4372 56.434 9.61393 53.4962 8.4681 48.3237C8.44694 48.226 8.37533 48.1381 8.32812 48.0454C8.32812 47.2315 8.32812 46.4177 8.32812 45.6039V45.6056ZM18.1328 33.2927C17.8984 33.5418 17.7617 33.6655 17.651 33.8087C15.4603 36.6196 13.5267 39.5948 12.1302 42.881C11.6501 44.0121 11.2171 45.2475 11.152 46.4552C11.0007 49.2823 12.2799 51.4942 14.8304 52.7231C17.5013 54.0089 20.1999 53.8201 22.5436 51.9044C24.7686 50.0831 25.4652 47.6368 24.7051 44.8764C23.9792 42.2397 22.599 39.8927 21.1292 37.6108C20.195 36.1606 19.1631 34.7706 18.1328 33.2927Z" fill="#66C61C"/>
            <path d="M62.4424 51.9696C65.7415 51.9842 68.2383 53.7746 69.21 56.6017C70.8083 61.2616 72.3626 65.936 73.9349 70.6056C74.5306 72.3765 75.1296 74.1457 75.7204 75.9165C76.1256 77.134 75.9027 77.6825 74.7617 78.1886C70.5055 80.0767 66.2493 81.9679 61.9818 83.8315C59.8284 84.7707 57.8053 83.6932 57.4342 81.3511C56.6009 76.1069 55.8343 70.853 55.0433 65.6024C54.7568 63.6997 54.446 61.8019 54.2067 59.8927C53.7624 56.3511 55.8962 53.2944 59.3532 52.5132C60.512 52.2511 61.6969 52.0965 62.444 51.9663L62.4424 51.9696ZM56.946 58.2977C56.946 58.8022 56.8971 59.2075 56.9541 59.5981C57.5172 63.4556 58.095 67.3114 58.6745 71.1672C59.1449 74.3003 59.6266 77.4302 60.0986 80.5633C60.2321 81.4455 60.3493 81.5138 61.1956 81.1427C62.8314 80.4266 64.4671 79.7088 66.1012 78.9878C66.3389 78.882 66.5667 78.755 66.8141 78.6297C66.7376 78.3791 66.6888 78.1984 66.6302 78.0226C65.1572 73.6379 63.5605 69.2889 62.2536 64.8537C61.3861 61.9061 59.5306 59.9465 56.946 58.2961V58.2977ZM72.8216 76.0174C70.709 69.7397 68.6387 63.5581 66.5407 57.3846C66.1452 56.2209 65.3395 55.3501 64.1465 55.0148C62.2275 54.4744 60.416 54.9676 58.6794 55.8156C58.6533 55.8286 58.6615 55.91 58.6468 55.9979C59.2474 56.4748 59.8431 56.9875 60.4779 57.4481C62.5514 58.9504 63.8698 60.9491 64.6559 63.3807C66.0866 67.8078 67.6035 72.2072 69.0879 76.618C69.1872 76.9142 69.3125 77.2007 69.4362 77.5164C70.5885 77.0054 71.6725 76.5252 72.8232 76.0158L72.8216 76.0174Z" fill="#66C61C"/>
            <path d="M50.8589 41.6864C51.4302 41.7303 51.881 42.1226 52.0438 42.7915C52.7095 45.5487 53.3621 48.3074 53.9953 51.0711C54.1727 51.8442 53.6763 52.5669 52.9357 52.7345C52.2358 52.8924 51.5067 52.4855 51.3179 51.7222C50.6408 48.9683 49.98 46.2111 49.3582 43.4442C49.1304 42.4285 49.7733 41.6619 50.8605 41.6864H50.8589Z" fill="#66C61C"/>
            <path d="M50.5489 38.1804C50.5424 39.1651 50.0932 39.7266 49.4047 39.8324C48.7016 39.9399 48.1336 39.6501 47.9155 38.9893C47.5867 37.99 47.3361 36.9613 47.118 35.9311C46.9796 35.28 47.4516 34.6029 48.0945 34.4337C48.7765 34.2546 49.4226 34.4467 49.6635 35.101C50.0623 36.185 50.3097 37.3259 50.5489 38.1804Z" fill="#66C61C"/>
        </g>
    </g>
    <defs>
        <clipPath id="clip0_1433_5549">
            <rect width="100" height="100" fill="white"/>
        </clipPath>
        <clipPath id="clip1_1433_5549">
            <rect width="83.3333" height="83.3333" fill="white" transform="translate(8.32812 8.3335)"/>
        </clipPath>
    </defs>
</svg>
