<svg width="100" height="100" viewBox="0 0 100 100" fill="none" xmlns="http://www.w3.org/2000/svg">
    <g clip-path="url(#clip0_1433_5540)">
        <path d="M91.6619 59.1156V88.2497C91.157 90.0234 90.0177 91.1627 88.2439 91.6677H78.3156C75.7852 90.7996 74.9301 89.0049 74.9735 86.4051C75.0755 80.3287 75.0061 74.2523 75.0061 68.1759V67.1581C67.9466 74.146 59.6567 77.7723 49.9519 77.7549C40.247 77.7375 31.9939 74.1134 24.9952 67.1624V68.2584C24.9952 74.5778 24.9952 80.8973 24.9952 87.2167C24.9952 89.3868 23.9818 90.8169 22.0373 91.4919C21.918 91.5423 21.802 91.6003 21.6901 91.6655H11.7617C9.99089 91.1577 8.84505 90.0249 8.34375 88.2475V59.1156C8.62587 58.6598 8.81901 58.0999 9.21181 57.7744C9.68056 57.3816 9.74568 56.9693 9.74568 56.4333C9.737 48.7033 9.737 40.9732 9.74568 33.2432C9.74568 32.7549 9.74568 32.2666 9.77824 31.7805C9.878 29.7227 10.7802 27.7859 12.2912 26.3855C13.6563 25.1073 15.0885 23.8986 16.5382 22.7158C17.9054 21.5982 19.7435 21.5505 21.2474 22.4988C21.421 22.6073 21.599 22.7158 21.7791 22.8222C21.8833 22.6985 21.957 22.6204 22.0221 22.5336C27.2927 15.4603 34.2371 10.9754 42.8555 9.07869C44.4093 8.74015 46.0022 8.56868 47.5755 8.32129H52.4583C52.6635 8.3805 52.8722 8.42617 53.0833 8.45801C62.1979 9.34777 69.8238 13.1925 75.961 19.9923C76.7726 20.8907 77.5083 21.8608 78.2765 22.794C80.6636 21.3725 82.0547 21.4919 84.1858 23.2844C85.0148 23.9832 85.8069 24.7297 86.6619 25.3938C89.2292 27.3903 90.3512 29.9836 90.3143 33.2388C90.2405 40.9927 90.286 48.7488 90.2991 56.5027C90.2981 56.8401 90.3824 57.1724 90.5443 57.4684C90.859 58.0522 91.2778 58.573 91.6619 59.1156ZM70.9089 29.3065C65.3685 21.6004 57.9553 17.6203 48.4566 18.1499C40.2101 18.6121 33.806 22.5704 29.0751 29.3586C32.1545 30.9515 32.6645 33.0848 30.796 36.34C31.0901 36.3977 31.3871 36.4389 31.6858 36.4637C33.7431 36.5288 35.809 36.6112 37.8598 36.6177C38.3372 36.6177 38.8169 36.3595 39.2878 36.1989C40.2036 35.8821 41.089 35.3808 42.0287 35.2549C46.8444 34.6196 51.7183 34.5555 56.549 35.0639C58.1788 35.2289 59.7761 35.4654 61.1454 36.4854C61.3585 36.6004 61.6012 36.6488 61.842 36.6243C64.0122 36.5808 66.1823 36.5259 68.3524 36.4593C68.6447 36.4312 68.9347 36.3834 69.2205 36.3161C67.339 33.968 67.6819 30.8777 70.9089 29.3065ZM11.1367 59.7362C11.1215 59.9815 11.102 60.1377 11.102 60.294C11.102 69.2639 11.102 78.2403 11.102 87.2232C11.102 88.3886 11.6228 88.8899 12.8099 88.892C15.3605 88.9007 17.9097 88.9007 20.4575 88.892C21.7097 88.892 22.1936 88.419 22.1936 87.1841C22.1936 78.5889 22.1936 69.993 22.1936 61.3964C22.1936 60.192 21.7248 59.7406 20.5052 59.7362C18.1723 59.7362 15.8416 59.7362 13.5087 59.7362H11.1367ZM88.8885 59.7796C88.563 59.7623 88.3242 59.7384 88.0877 59.7384C85.239 59.7384 82.3911 59.7384 79.5439 59.7384C78.2309 59.7384 77.7882 60.1724 77.7882 61.494C77.7882 70.0299 77.7882 78.5723 77.7882 87.1212C77.7882 88.4233 78.2591 88.8899 79.5439 88.8942C82.0395 88.8942 84.5345 88.8942 87.0287 88.8942C88.4219 88.8942 88.8885 88.4298 88.8885 87.0452C88.8885 78.2041 88.8885 69.363 88.8885 60.5218V59.7796ZM22.888 49.2284C22.7904 49.3065 22.7275 49.3304 22.7144 49.3695C21.9158 51.8282 22.2804 54.3608 22.2196 56.876C22.2301 56.9652 22.261 57.0507 22.3099 57.126C22.3589 57.2013 22.4245 57.2643 22.5018 57.31C24.4701 58.2779 25.1298 59.9337 24.9779 62.0084C24.9561 62.3022 24.9958 62.5973 25.0945 62.8749C25.1931 63.1526 25.3485 63.4066 25.5508 63.6208C38.0204 78.5405 61.0152 78.84 73.9058 64.2566C74.6611 63.4038 75.1168 62.5661 75.0321 61.3725C74.9041 59.5822 75.7678 58.2714 77.3195 57.3729C77.4469 57.2792 77.5527 57.1592 77.6298 57.021C77.707 56.8829 77.7536 56.7299 77.7665 56.5722C77.8099 55.0531 77.8468 53.534 77.7665 52.0149C77.7144 51.0817 77.4475 50.1594 77.2761 49.2306C74.0208 62.2384 62.6168 70.8712 49.8846 70.8126C37.3129 70.754 26.0174 62.2623 22.888 49.2284ZM87.4106 56.9129C87.4444 56.7212 87.4676 56.5277 87.48 56.3335C87.48 48.3589 87.48 40.3837 87.48 32.4077C87.4908 31.5783 87.3141 30.7572 86.9632 30.0056C86.6122 29.2541 86.096 28.5915 85.4531 28.0674C84.3825 27.1487 83.3112 26.2315 82.2392 25.3157C80.8807 24.1611 79.8325 24.5301 79.4831 26.2814C78.9883 28.751 78.487 31.2206 78.0096 33.6946C77.8815 34.3456 77.6428 34.8816 76.9505 35.0943C76.2583 35.307 75.8069 34.9706 75.3663 34.5257C74.6394 33.7966 73.9275 33.0479 73.168 32.3556C73.0434 32.2284 72.8943 32.1278 72.7297 32.06C72.565 31.9922 72.3883 31.9586 72.2103 31.9613C72.0323 31.9639 71.8567 32.0027 71.6941 32.0754C71.5316 32.148 71.3855 32.2529 71.2648 32.3838C70.7266 32.922 70.7049 33.6555 71.2192 34.2935C71.3559 34.4606 71.5165 34.6082 71.6706 34.7623C73.5499 36.6416 75.4119 38.5405 77.313 40.3894C78.0421 41.0947 78.5434 41.8434 78.6932 42.8743C78.8632 43.9172 79.0922 44.9497 79.3789 45.9667C80.247 49.287 80.8156 52.6377 80.5595 56.0882C80.5546 56.3665 80.5662 56.6447 80.5942 56.9216L87.4106 56.9129ZM19.4267 56.9129C19.4267 56.4159 19.4158 55.9624 19.4267 55.5088C19.4701 53.8877 19.3355 52.2341 19.6046 50.6499C20.0777 47.8504 20.7722 45.0878 21.4384 42.3252C21.5863 41.7545 21.8785 41.2313 22.2869 40.8061C24.3398 38.6815 26.4471 36.6091 28.5282 34.5127C29.2878 33.7488 29.3572 32.9936 28.7583 32.3795C28.1593 31.7653 27.3607 31.8022 26.5621 32.5835C25.911 33.2345 25.26 33.8855 24.609 34.5366C24.1749 34.9706 23.6823 35.2874 23.0161 35.0704C22.3499 34.8534 22.122 34.3565 21.9983 33.7293C21.4861 31.1251 20.9761 28.521 20.4206 25.9168C20.1341 24.5778 19.0404 24.2241 17.9879 25.0986C16.9028 25.9993 15.8611 26.9498 14.7696 27.8395C13.1854 29.1416 12.4931 30.7735 12.5017 32.8178C12.5343 40.5435 12.5148 48.2692 12.5169 55.9949C12.5169 56.2835 12.5408 56.5722 12.556 56.8955L19.4267 56.9129ZM75.4792 30.8712L75.757 30.7475C76.0326 29.3717 76.2713 27.9871 76.5968 26.6243C76.6823 26.3289 76.6964 26.0175 76.6379 25.7156C76.5795 25.4138 76.4501 25.1302 76.2604 24.8881C70.158 16.3682 61.8811 11.6004 51.4254 11.1794C40.0213 10.7215 30.8676 15.3178 24.0143 24.4758C23.4154 25.2766 23.1897 26.0275 23.4588 27.0127C23.7973 28.2518 23.9948 29.5301 24.2964 31.0036C24.9475 30.307 25.5616 29.8296 25.924 29.2002C36.4167 10.9428 62.7795 10.6173 73.7192 28.6143C74.2118 29.4281 74.8889 30.1269 75.4792 30.8756V30.8712ZM26.1931 50.4437C28.5195 58.8313 36.319 65.9993 45.2513 67.5292C45.2687 67.2915 45.2687 67.0529 45.2513 66.8152C44.724 63.1694 44.1966 59.5236 43.6346 55.8842C43.5941 55.7439 43.5229 55.6144 43.426 55.5052C43.3292 55.3959 43.2091 55.3097 43.0747 55.2527C40.9045 54.517 39.418 53.0826 38.6823 50.9124C38.5239 50.4459 38.283 50.2614 37.8338 50.2202C36.6207 50.1182 35.4076 49.9685 34.1901 49.9055C31.5126 49.7886 28.8303 49.9705 26.1931 50.4481V50.4437ZM54.661 67.5791C65.2144 65.626 72.0222 57.2753 73.7583 50.5262C73.7149 50.4958 73.6736 50.448 73.6259 50.4394C69.777 49.7456 65.8395 49.6965 61.9744 50.294C61.7444 50.3287 61.4644 50.6477 61.3711 50.8973C60.579 53.0414 59.1554 54.5322 56.9592 55.2375C56.5252 55.3721 56.3841 55.5826 56.3234 56.0275C55.987 58.4949 55.6051 60.958 55.2383 63.4233C55.0452 64.7579 54.8629 66.1273 54.661 67.5791ZM49.9497 52.781C51.5751 52.781 53.2049 52.781 54.8303 52.781C56.7075 52.7679 58.1072 51.7892 58.7084 50.0119C59.4527 47.807 60.1819 45.5956 60.8785 43.3734C61.7248 40.6455 60.0994 38.2801 57.2739 37.948C52.3957 37.3805 47.4679 37.3849 42.5907 37.9611C40.0104 38.2605 38.3351 40.6043 39.0794 43.1151C39.7782 45.4741 40.5616 47.8113 41.3559 50.1421C41.918 51.7914 43.3286 52.7614 45.0755 52.7766C46.6945 52.7853 48.3221 52.7723 49.9497 52.7744V52.781ZM63.4566 39.6581C64.5721 42.297 63.2787 44.7818 62.4779 47.438C66.5686 46.8586 70.5465 47.0344 74.6719 47.7766C74.7782 45.9537 74.8889 44.2588 74.9584 42.5683C74.9492 42.2267 74.8183 41.8996 74.5894 41.646C73.7778 40.7779 72.9249 39.9337 72.0634 39.1091C71.8806 38.9274 71.6352 38.8226 71.3776 38.8161C68.7691 39.0613 66.1649 39.3673 63.4501 39.6516L63.4566 39.6581ZM36.5751 39.5279C36.4997 39.4932 36.4212 39.4656 36.3407 39.4454C33.7821 39.2284 31.2214 39.0114 28.6584 38.8139C28.4017 38.8091 28.1524 38.9004 27.9596 39.07C27.0764 39.912 26.2235 40.7822 25.3685 41.6546C25.208 41.7946 25.0969 41.9826 25.0517 42.1907C24.9402 44.0616 25.0863 45.9389 25.4857 47.7701C29.452 47.0004 33.5174 46.8839 37.5213 47.425C36.6858 44.7514 35.4249 42.2601 36.5751 39.5214V39.5279ZM46.408 55.5869C47.0178 59.7623 47.6146 63.853 48.2179 67.9719H51.7791C52.3867 63.7987 52.9792 59.7254 53.5803 55.5869H46.408Z" fill="#66C61C"/>
        <path d="M50.0509 38.9065C51.1502 38.9165 52.2217 39.253 53.1294 39.8732C54.037 40.4934 54.7399 41.3694 55.1489 42.3898C55.5578 43.4102 55.6543 44.5292 55.426 45.6046C55.1978 46.6799 54.6552 47.6633 53.8671 48.4297C53.079 49.1961 52.0809 49.711 50.9996 49.9092C49.9183 50.1073 48.8025 49.9796 47.7938 49.5424C46.7852 49.1051 45.9292 48.378 45.3346 47.4534C44.74 46.5288 44.4335 45.4483 44.4541 44.3491C44.4629 43.6239 44.6148 42.9075 44.901 42.2411C45.1873 41.5746 45.6023 40.9713 46.1223 40.4656C46.6423 39.9599 47.257 39.5619 47.9311 39.2944C48.6053 39.0268 49.3257 38.895 50.0509 38.9065ZM52.7679 44.4143C52.7689 44.0457 52.6963 43.6807 52.5544 43.3405C52.4124 43.0004 52.204 42.692 51.9414 42.4335C51.6787 42.1749 51.3671 41.9714 51.0248 41.8349C50.6825 41.6983 50.3163 41.6315 49.9478 41.6383C49.5793 41.6451 49.2159 41.7254 48.8788 41.8744C48.5418 42.0235 48.2378 42.2383 47.9849 42.5064C47.7319 42.7744 47.5351 43.0903 47.4057 43.4354C47.2764 43.7805 47.2173 44.148 47.2319 44.5163C47.2605 45.24 47.5715 45.9237 48.0983 46.4208C48.6251 46.9179 49.3257 47.1889 50.0498 47.1755C50.774 47.1622 51.4641 46.8656 51.9722 46.3495C52.4803 45.8333 52.766 45.1386 52.7679 44.4143Z" fill="#66C61C"/>
    </g>
    <defs>
        <clipPath id="clip0_1433_5540">
            <rect width="83.3333" height="83.3333" fill="white" transform="translate(8.32812 8.3335)"/>
        </clipPath>
    </defs>
</svg>
