<svg width="100" height="100" viewBox="0 0 100 100" fill="none" xmlns="http://www.w3.org/2000/svg">
    <g clip-path="url(#clip0_1433_5648)">
        <path d="M95.8333 55.6066C95.3787 56.9924 94.3936 57.5585 92.9917 57.6205C91.7705 57.6765 90.5523 57.818 89.3428 57.9861C89.2008 58.025 89.0687 58.0941 88.9551 58.1886C88.8416 58.2832 88.7492 58.4011 88.6841 58.5345C88.0109 60.0412 87.4104 61.5832 86.7314 63.084C86.5011 63.5912 86.4924 63.9361 86.8713 64.3696C87.7223 65.3396 88.5325 66.348 89.3311 67.3623C90.3832 68.6921 90.3308 69.8361 89.1446 71.0568C87.2404 73.0126 85.3217 74.9547 83.3885 76.883C82.2227 78.0359 81.0568 78.0889 79.8036 77.0688C78.7544 76.2225 77.7635 75.3174 76.691 74.4888C76.5581 74.4022 76.4083 74.3457 76.2518 74.3233C76.0953 74.3009 75.9359 74.3131 75.7846 74.3591C74.2603 74.9488 72.7739 75.6535 71.2438 76.2314C71.0028 76.291 70.7897 76.4331 70.6404 76.6335C70.4912 76.834 70.415 77.0804 70.4248 77.3311C70.3432 78.5931 70.212 79.8551 70.0838 81.1141C69.9031 82.9009 69.0637 83.6616 67.2655 83.6704C65.1758 83.6704 63.089 83.6704 60.9993 83.6704H60.02C60.02 85.4395 60.02 87.1614 60.02 88.8686C60.0282 89.348 59.9451 89.8245 59.7752 90.2721C59.5633 90.7614 59.1908 91.1615 58.7208 91.4049C58.2508 91.6483 57.7121 91.72 57.1959 91.6078C56.1292 91.363 55.3831 90.3694 55.3802 89.1222C55.3802 83.0542 55.3802 76.9881 55.3802 70.9241V69.8154C55.0217 69.7948 54.7594 69.7653 54.5058 69.7653C49.4638 69.7653 44.4217 69.7653 39.3825 69.7476C38.7588 69.7476 38.5082 69.9511 38.3216 70.526C37.5052 72.9543 35.9567 75.0625 33.894 76.5539C31.8313 78.0453 29.3582 78.8449 26.8228 78.84C24.2875 78.8351 21.8175 78.026 19.7604 76.5267C17.7033 75.0274 16.1627 72.9132 15.3554 70.4818C15.1193 69.7771 14.7434 69.7594 14.1751 69.7535C9.34282 69.724 5.63556 66.8846 4.496 62.341C4.33574 61.7294 4.24579 61.1012 4.22788 60.4687C4.19291 58.2367 4.15794 56.0018 4.22788 53.7697C4.35612 49.1583 7.14239 45.626 11.6307 44.3729C16.6232 42.9782 21.6303 41.6219 26.617 40.2067C27.1159 40.059 27.5589 39.7619 27.8877 39.3545C31.1199 35.1352 34.2384 30.8216 37.5434 26.676C39.7031 23.9604 42.6817 22.5982 46.1354 22.4921C48.8488 22.4095 51.5651 22.4655 54.2785 22.4596H55.3947V21.4365C55.3947 17.9661 55.3947 14.4957 55.3947 11.0254C55.3947 9.42728 56.3157 8.35111 57.668 8.32752C59.0204 8.30393 60.0405 9.40373 60.0463 11.0225C60.0463 13.222 60.0463 15.4186 60.0463 17.7332H63.8351C65.0563 17.7332 66.2804 17.7332 67.5045 17.7332C69.0812 17.7597 69.9293 18.544 70.0925 20.1303C70.2324 21.4483 70.3578 22.784 70.4568 24.0931C70.4516 24.3147 70.5204 24.5315 70.6521 24.7086C70.7838 24.8857 70.9707 25.0127 71.1826 25.0691C72.736 25.6764 74.2486 26.387 75.7962 27.0003C75.9506 27.0436 76.1124 27.0523 76.2705 27.0259C76.4286 26.9994 76.579 26.9383 76.7113 26.847C77.7518 26.0421 78.7369 25.1634 79.7599 24.329C81.0685 23.2617 82.2139 23.3 83.4088 24.503C85.3324 26.4372 87.2404 28.3901 89.1329 30.3616C90.2637 31.541 90.2987 32.6998 89.2961 33.9912C88.8152 34.6074 88.3052 35.2001 87.8127 35.8045C87.3201 36.409 86.8684 36.984 86.4807 37.4469C87.2327 39.3457 87.938 41.1649 88.687 42.9605C88.7702 43.0862 88.879 43.1922 89.0063 43.2716C89.1335 43.3509 89.2761 43.4018 89.4244 43.4205C90.6339 43.5768 91.8521 43.7154 93.0733 43.7743C94.3994 43.8304 95.3233 44.4053 95.8538 45.6348L95.8333 55.6066ZM55.3219 27.1684C52.5618 27.1684 49.8805 27.2126 47.2021 27.1684C44.2876 27.1065 42.0464 28.2623 40.3035 30.6211C37.2316 34.7785 34.084 38.8769 30.9771 43.0048C30.4319 43.7645 29.6393 44.3053 28.7388 44.5321C26.4888 45.1218 24.2534 45.7528 22.0121 46.3719C18.9373 47.2152 15.8596 48.0555 12.7878 48.9135C10.4562 49.5681 8.89105 51.349 8.83276 53.581C8.77447 55.813 8.75699 58.048 8.83276 60.28C8.93769 63.3435 11.6948 65.49 14.6938 64.9357C15.9704 57.4347 22.0384 54.2798 26.6433 54.2415C29.2302 54.1963 31.7613 55.0046 33.8537 56.5443C36.7128 58.6288 38.3333 61.483 38.8754 64.9828H55.3044L55.3219 27.1684ZM81.2929 29.1704C81.2026 29.2294 81.1501 29.2559 81.1035 29.2943C80.2058 30.0432 79.314 30.798 78.4163 31.544C76.9999 32.7234 76.3208 32.685 74.6858 31.8772C72.6919 30.8741 70.6425 29.9881 68.5478 29.2235C66.5893 28.5247 66.123 28.1001 65.9481 25.9802C65.852 24.8008 65.7208 23.6567 65.6071 22.4921H60.0696V35.7072C62.2708 35.2311 64.5493 35.2589 66.7385 35.7886C68.9277 36.3182 70.9722 37.3363 72.7223 38.7683C74.4725 40.2003 75.884 42.0101 76.8537 44.0651C77.8233 46.1202 78.3266 48.3686 78.3266 50.6458C78.3266 52.923 77.8233 55.1714 76.8537 57.2264C75.884 59.2815 74.4725 61.0913 72.7223 62.5233C70.9722 63.9553 68.9277 64.9734 66.7385 65.503C64.5493 66.0327 62.2708 66.0604 60.0696 65.5844V78.888H65.6333C65.7528 77.5759 65.852 76.2874 65.9889 75.0019C66.1755 73.2062 66.6359 72.6431 68.373 72.2037C70.542 71.6509 72.6175 70.7744 74.5313 69.6031C76.3412 68.4768 76.9358 68.5446 78.6116 69.9304C79.5238 70.6882 80.4419 71.4371 81.2346 72.1005L84.5076 68.7776C83.709 67.8016 82.8464 66.7638 82.007 65.7052C81.1152 64.5878 81.0044 63.6678 81.7359 62.4619C83.0485 60.3053 84.0311 57.9603 84.6504 55.5064C85.0322 54.0145 85.7026 53.5338 87.2735 53.3835C88.5646 53.2596 89.8557 53.1152 91.141 52.9795V48.2944C89.8149 48.1646 88.518 48.0585 87.2123 47.9052C85.4811 47.6988 84.9448 47.2299 84.5105 45.5257C83.945 43.2745 83.0491 41.1218 81.8525 39.1393C80.8383 37.4675 80.917 36.7805 82.1789 35.2473C82.9688 34.2802 83.7499 33.3101 84.4843 32.4049L81.2929 29.1704ZM60.0171 50.6296C60.0171 53.7344 60.0171 56.8391 60.0171 59.9439C60.0171 60.4923 60.1658 60.7341 60.705 60.8609C62.3895 61.2736 64.147 61.2736 65.8316 60.8609C68.4921 60.1876 70.7808 58.4757 72.1971 56.0997C73.6133 53.7238 74.0418 50.8771 73.3888 48.1823C71.9316 42.4917 66.2716 39.042 60.7982 40.4632C60.2153 40.6194 60.0026 40.8583 60.0113 41.4981C60.0405 44.5409 60.02 47.5867 60.02 50.6266L60.0171 50.6296ZM34.3142 66.5839C34.2812 64.5993 33.4802 62.707 32.0831 61.3134C30.6861 59.9198 28.8045 59.1362 26.8425 59.1308C24.8805 59.1254 22.9948 59.8987 21.5902 61.2845C20.1857 62.6704 19.3744 64.5583 19.3308 66.5426C19.2812 70.6705 22.6912 74.1468 26.8094 74.1763C28.7986 74.1724 30.7052 73.3712 32.1118 71.9482C33.5184 70.5252 34.3104 68.5963 34.3142 66.5839Z" fill="#66C61C"/>
    </g>
    <defs>
        <clipPath id="clip0_1433_5648">
            <rect width="91.6667" height="83.3333" fill="white" transform="translate(4.17188 8.3335)"/>
        </clipPath>
    </defs>
</svg>
