<svg width="64" height="64" viewBox="0 0 64 64" fill="none" xmlns="http://www.w3.org/2000/svg">
<rect width="64" height="64" rx="32" fill="#66C61C"/>
<path d="M26.5675 24.5228C23.5021 25.2419 21.1085 27.6354 20.3895 30.7009C19.8702 32.9147 19.8702 35.2187 20.3895 37.4325C21.1085 40.4979 23.5021 42.8915 26.5675 43.6105C28.7813 44.1298 31.0853 44.1298 33.2991 43.6105C36.3646 42.8915 38.7581 40.4979 39.4772 37.4325M26.5675 24.5228C28.7813 24.0035 31.0853 24.0035 33.2991 24.5228C36.3646 25.2419 38.7581 27.6354 39.4772 30.7009C39.9965 32.9147 39.9965 35.2187 39.4772 37.4325M26.5675 24.5228C26.037 24.6473 25.5265 24.8219 25.0414 25.0414C26.0905 22.7237 28.166 20.9841 30.7009 20.3895C32.9147 19.8702 35.2187 19.8702 37.4325 20.3895C40.4979 21.1085 42.8915 23.5021 43.6105 26.5675C44.1298 28.7813 44.1298 31.0853 43.6105 33.2991C43.0159 35.834 41.2763 37.9095 38.9586 38.9586C39.1781 38.4735 39.3527 37.963 39.4772 37.4325" stroke="white" stroke-width="1.5"/>
<path d="M26 32L28.5208 33.6805C29.4165 34.2777 30.5835 34.2777 31.4792 33.6805L34 32" stroke="white" stroke-width="1.5" stroke-linecap="round"/>
</svg>
