<svg width="86" height="20" viewBox="0 0 86 20" fill="none" xmlns="http://www.w3.org/2000/svg">
    <g clip-path="url(#clip0_865_48990)">
        <path fill-rule="evenodd" clip-rule="evenodd"
              d="M4.47645 1.27539C3.07342 1.27539 2.37175 1.27539 1.9358 1.7117C1.62938 2.01851 1.53838 2.45668 1.51145 3.17781C1.5 3.48247 1.5 3.83746 1.5 4.2544V17.0212C1.5 17.438 1.5 17.7931 1.51145 18.0976C1.53838 18.819 1.62938 19.2571 1.9358 19.5639C2.19765 19.826 2.55545 19.9307 3.10345 19.9723C3.46774 20.0002 3.91623 20.0002 4.47645 20.0002H5.327L5.8134 18.8425L13.1935 1.27539H4.47645ZM7.13457 13.2761L5.99122 15.9423L5.42388 14.4978L2.71918 7.60993L9.37174 4.96128L10.9842 4.31929L9.82302 7.022C8.36551 7.57106 6.908 8.02471 5.45065 8.57376C6.01195 10.1094 6.57327 11.7406 7.13457 13.2761Z"
              fill="#F47519"/>
        <path fill-rule="evenodd" clip-rule="evenodd"
              d="M16.5373 18.7249C17.9404 18.7249 18.642 18.7249 19.078 18.2886C19.3844 17.9817 19.4754 17.5435 19.5023 16.8224C19.5138 16.5178 19.5138 16.1628 19.5138 15.7459V2.97901C19.5138 2.56222 19.5138 2.20708 19.5023 1.90258C19.4754 1.18129 19.3844 0.743126 19.078 0.436305C18.8162 0.174243 18.4584 0.0695423 17.9103 0.0278789C17.546 0 17.0976 0 16.5373 0H15.6868L15.2004 1.15774L7.82031 18.7249H16.5373ZM13.8792 6.72407L15.0226 4.05792L15.5899 5.50251L18.2946 12.3903L11.6421 15.0389L10.0296 15.6809L11.1908 12.9782C12.6483 12.4291 14.1058 11.9755 15.5631 11.4265C15.0018 9.89077 14.4405 8.25957 13.8792 6.72407Z"
              fill="#F47519"/>
        <path d="M36.6328 16.3806V7.58448H38.9056V8.70483H38.9894C39.713 7.78377 40.6782 7.32324 41.885 7.32324C43.9443 7.32324 44.975 8.44964 44.975 10.7012V16.3794H42.6512V11.1483C42.6512 10.5529 42.5043 10.0912 42.2093 9.76195C41.9142 9.43269 41.4917 9.26861 40.9429 9.26861C40.3942 9.26861 39.9097 9.46184 39.5285 9.84947C39.1472 10.237 38.9566 10.7401 38.9566 11.3574V16.3782H36.6328V16.3806Z"
              fill="#292D32"/>
        <path d="M48.9043 16.3465L45.5703 7.58447H48.1382L50.1415 14.1387H50.2423L52.2456 7.58447H54.8135L51.454 16.4474C50.9768 17.705 50.4997 18.5982 50.0225 19.1267C49.5623 19.6541 48.8837 19.919 47.9852 19.919C47.3842 19.919 46.81 19.8485 46.26 19.7087V17.9311C46.5853 18.0489 46.9703 18.1085 47.4134 18.1085C48.1771 18.1085 48.6737 17.5216 48.9031 16.3478L48.9043 16.3465Z"
              fill="#292D32"/>
        <path d="M59.2984 12.9601L57.6994 12.53C56.8969 12.344 56.2825 12.0524 55.8563 11.6538C55.4302 11.2553 55.2165 10.6903 55.2165 9.96002C55.2165 9.18475 55.5285 8.55172 56.1514 8.06081C56.7742 7.5699 57.5999 7.32324 58.6258 7.32324C59.6517 7.32324 60.4894 7.54803 61.1851 7.99762C61.8808 8.41926 62.2378 9.107 62.2547 10.0621H60.2005C60.1665 9.73035 60.0232 9.48002 59.7707 9.30753C59.5182 9.13496 59.1904 9.0499 58.7861 9.0499C58.4048 9.0499 58.1085 9.1313 57.8985 9.29411C57.6884 9.45699 57.5828 9.67325 57.5828 9.94303C57.5828 10.3197 57.9555 10.6065 58.7023 10.8021L60.3522 11.2565C61.8954 11.638 62.6676 12.4837 62.6676 13.7925C62.6676 14.6637 62.3446 15.3551 61.6999 15.8691C61.054 16.383 60.1507 16.6394 58.9888 16.6394C56.4974 16.6394 55.1752 15.5981 55.0234 13.5142H57.1276C57.1615 13.9747 57.3303 14.3234 57.6363 14.5591C57.9422 14.7949 58.3368 14.9127 58.8188 14.9127C59.3008 14.9127 59.665 14.8155 59.9261 14.6224C60.1871 14.4291 60.317 14.1691 60.317 13.8434C60.317 13.6138 60.2369 13.434 60.0766 13.304C59.9164 13.1751 59.6566 13.0598 59.2984 12.9589V12.9601Z"
              fill="#292D32"/>
        <path d="M67.8854 7.32324C69.244 7.32324 70.3574 7.75825 71.2279 8.62946C72.1264 9.51163 72.5744 10.6295 72.5744 11.9832C72.5744 13.3368 72.1312 14.4401 71.2437 15.3283C70.3561 16.2166 69.2489 16.6431 67.8842 16.6431C66.5196 16.6431 65.3928 16.2044 64.5175 15.3283C63.636 14.4461 63.1953 13.3319 63.1953 11.9832C63.1953 10.6344 63.636 9.51163 64.5175 8.62946C65.399 7.74731 66.5098 7.32324 67.8842 7.32324H67.8854ZM65.5701 11.9819C65.5701 12.807 65.785 13.4765 66.2136 13.9869C66.6434 14.4984 67.1995 14.7536 67.8842 14.7536C68.5689 14.7536 69.1105 14.4972 69.5427 13.9832C69.9749 13.4692 70.1911 12.8021 70.1911 11.9819C70.1911 11.1618 69.9725 10.4995 69.5342 9.99401C69.102 9.47764 68.552 9.21882 67.8842 9.21882C67.2165 9.21882 66.6422 9.47399 66.2136 9.98551C65.7838 10.4971 65.5701 11.1618 65.5701 11.9819Z"
              fill="#292D32"/>
        <path d="M72.3242 9.35457V7.5854H73.8905V6.83569C73.8905 5.85875 74.1041 5.1552 74.5303 4.72506C74.9564 4.29492 75.6643 4.08105 76.6513 4.08105C77.2912 4.08105 77.8885 4.14303 78.4447 4.26697V5.97662C78.0743 5.89763 77.6955 5.85875 77.3082 5.85875C76.5846 5.85875 76.2228 6.1929 76.2228 6.86121V7.5854H78.2346V9.35457H76.2228V16.3815H73.8905V9.35457H72.3242Z"
              fill="#292D32"/>
        <path d="M80.4398 13.8791V9.35412H78.8906V7.5849H80.4398V5.08301H82.7722V7.5849H84.8932V9.35412H82.7722V13.743C82.7722 14.1136 82.8547 14.3724 83.0198 14.5182C83.185 14.664 83.4764 14.7369 83.8916 14.7369C84.3299 14.7369 84.7415 14.692 85.1288 14.6021V16.4138C84.5168 16.5548 83.8965 16.6241 83.2688 16.6241C82.2247 16.6241 81.4925 16.4223 81.0712 16.0177C80.6499 15.6131 80.4398 14.8998 80.4398 13.8779V13.8791Z"
              fill="#292D32"/>
        <path d="M26.426 16.3992H23.5898L28.1485 3.91357H31.2717L35.8479 16.3992H33.0204L32.0896 13.6217H27.3481L26.426 16.3992ZM29.7928 6.48209H29.671L28.0093 11.654H31.4458L29.7928 6.48209Z"
              fill="#292D32"/>
    </g>
    <defs>
        <clipPath id="clip0_865_48990">
            <rect width="85.5" height="20" fill="white" transform="translate(0.5)"/>
        </clipPath>
    </defs>
</svg>
